<svg xmlns="http://www.w3.org/2000/svg" width="68" height="68" viewBox="0 0 68 68"><g transform="translate(-2 -2)"><path d="M4.267,69.993h6.8a2.269,2.269,0,0,0,2.267-2.267V65.46h25.62A30.348,30.348,0,0,0,68.841,40.384l.492-2.786A4.255,4.255,0,0,0,63.2,33.064v-5h1.133a1.133,1.133,0,0,0,.8-1.935l-9.067-9.067a1.132,1.132,0,0,0-1.6,0l-2.6,2.6V4.26a1.133,1.133,0,0,0-1.133-1.133H39.4A1.133,1.133,0,0,0,38.266,4.26V16.727H33.674a18.455,18.455,0,0,0-2.013-3.65l2.864-7a1.964,1.964,0,0,0-2.692-2.511L29.691,4.636l-1.35-1.8a1.965,1.965,0,0,0-2.963-.212L23.654,4.347,22.522,2.837a1.966,1.966,0,0,0-2.963-.212L17.385,4.8l-3.269-.934a1.964,1.964,0,0,0-2.266,2.827l3.427,6.327C12.872,15.193,9.933,21.3,9.933,26.851v3.476a6.807,6.807,0,0,0,6.8,6.8h43.5l-2.394,4.788-6.232,2.671a5.659,5.659,0,0,0-5.407-4.06H29.883a31.355,31.355,0,0,0-16.55,4.7V42.793a2.269,2.269,0,0,0-2.267-2.267h-6.8A2.269,2.269,0,0,0,2,42.793V67.727a2.269,2.269,0,0,0,2.267,2.267ZM16.934,7.029a1.962,1.962,0,0,0,1.929-.5l2.055-2.055,1.133,1.513a1.965,1.965,0,0,0,2.961.21l1.724-1.723L28.029,6.2a1.959,1.959,0,0,0,2.45.58l1.649-.825-2.557,6.241H26.5L27.946,9.3,25.919,8.286l-1.953,3.908H21.979L20.4,8.907l-2.043.983,1.107,2.3H17.408l-3.222-5.95ZM28.067,17.86v17H16.733A4.538,4.538,0,0,1,12.2,30.327V26.851c0-6.067,3.755-11.724,4.829-12.391H29.866a12.211,12.211,0,0,1,1.3,2.267H29.2a1.133,1.133,0,0,0-1.133,1.133Zm2.267,1.133h7.933V34.86H30.333Zm24.933.469L61.6,25.793H48.936ZM40.533,5.393H49.6V21.924l-4.2,4.2a1.133,1.133,0,0,0,.8,1.935h1.133v6.8h-6.8ZM49.6,28.06H60.933v6.8H58.666V30.327a1.133,1.133,0,0,0-1.133-1.133H53a1.133,1.133,0,0,0-1.133,1.133V34.86H49.6Zm6.8,6.8H54.133v-3.4H56.4ZM29.883,42.793H46.2a3.4,3.4,0,0,1,0,6.8H28.067V51.86H46.2a5.656,5.656,0,0,0,5.587-4.886l7.325-3.139a1.126,1.126,0,0,0,.568-.535l3.667-7.336A2,2,0,0,1,67.1,37.2l-.492,2.786a28.085,28.085,0,0,1-27.658,23.2H13.333V47.936a29.112,29.112,0,0,1,16.55-5.143Zm-25.617,0h6.8V67.727h-6.8Z" transform="translate(0 0.007)"/><path d="M6,41H8.268v3.4H6Z" transform="translate(0.536 5.198)"/><path d="M38,7h1.134V9.268H38Z" transform="translate(4.8 0.671)"/><path d="M41,7h1.134V9.268H41Z" transform="translate(5.199 0.671)"/><path d="M38,11h1.134v2.268H38Z" transform="translate(4.8 1.207)"/><path d="M41,11h1.134v2.268H41Z" transform="translate(5.199 1.207)"/><path d="M38,15h1.134v2.268H38Z" transform="translate(4.8 1.733)"/><path d="M41,15h1.134v2.268H41Z" transform="translate(5.199 1.733)"/><path d="M29,19h1.134v2.268H29Z" transform="translate(3.6 2.266)"/><path d="M32,19h1.134v2.268H32Z" transform="translate(4 2.266)"/><path d="M29,23h1.134v2.268H29Z" transform="translate(3.6 2.799)"/><path d="M32,23h1.134v2.268H32Z" transform="translate(4 2.799)"/><path d="M29,27h1.134v2.268H29Z" transform="translate(3.6 3.333)"/><path d="M32,27h1.134v2.268H32Z" transform="translate(4 3.333)"/><path d="M38,19h1.134v2.268H38Z" transform="translate(4.8 2.266)"/><path d="M41,19h1.134v2.268H41Z" transform="translate(5.199 2.266)"/><path d="M22.671,18.134H21.536V17H19.268v1.134H18.134A1.134,1.134,0,0,0,17,19.268v3.4A1.134,1.134,0,0,0,18.134,23.8h3.4v1.134H17v1.134a1.134,1.134,0,0,0,1.134,1.134h1.134v1.134h2.268V27.207h1.134A1.134,1.134,0,0,0,23.8,26.073v-3.4a1.134,1.134,0,0,0-1.134-1.134h-3.4V20.4H23.8V19.268A1.134,1.134,0,0,0,22.671,18.134Z" transform="translate(1.999 1.998)"/><path d="M53,4h2.268V6.268H53Z" transform="translate(6.793 0.268)"/><path d="M55,2h2.268V4.268H55Z" transform="translate(7.061)"/><path d="M57,4h2.268V6.268H57Z" transform="translate(7.329 0.268)"/><path d="M55,6h2.268V8.268H55Z" transform="translate(7.061 0.536)"/><path d="M60,9h2.268v2.268H60Z" transform="translate(7.732 0.939)"/><path d="M53,12h2.268v2.268H53Z" transform="translate(6.793 1.341)"/><path d="M2,11H4.268v2.268H2Z" transform="translate(0 1.207)"/><path d="M4,9H6.268v2.268H4Z" transform="translate(0.268 0.939)"/><path d="M6,11H8.268v2.268H6Z" transform="translate(0.536 1.207)"/><path d="M4,13H6.268v2.268H4Z" transform="translate(0.268 1.466)"/><path d="M2,19H4.268v2.268H2Z" transform="translate(0 2.266)"/><path d="M6,2H8.268V4.268H6Z" transform="translate(0.536)"/></g></svg>