<svg xmlns="http://www.w3.org/2000/svg" width="67.994" height="68" viewBox="0 0 67.994 68"><defs><style>.a{fill-rule:evenodd;}</style></defs><g transform="translate(0 0)"><path class="a" d="M203.617,198.753h7.818a2.636,2.636,0,0,0,2.256-2.387v-7.825c2.225,0,12.131-.186,13.524.137v30.36h-23.6V198.753Zm10.2,28.24a26.034,26.034,0,0,1-8.732-1.473c-1.454-.485-5.9-2.542-6.644-3.567l2.753-2.815a2.712,2.712,0,0,0,2.815,2.287h22.933a2.71,2.71,0,0,0,2.654-2.654c.118-1.628,0-3.754,0-5.432l-.006-21.752c-.012-1.305.708-1.554,2.293-3.145a30.753,30.753,0,0,1,2.753-2.685c.988.727,3.045,5.09,3.53,6.55a25.7,25.7,0,0,1-3.157,23.523c-.472.708-.858,1.137-1.38,1.809a6.45,6.45,0,0,1-.752.833c-.373.367-.466.609-.789.932a33.459,33.459,0,0,1-5.432,4.114,24.019,24.019,0,0,1-2.181,1.131A26.542,26.542,0,0,1,213.821,226.994Zm-8.614-30.5,6.2-6.265c.031,1.019.286,5.7-.124,6.109S206.19,196.5,205.208,196.5Zm-7.955-7.955,6.2-6.265c.031.945.273,5.792-.087,6.147S198.16,188.542,197.253,188.542Zm3.978,9.285v13.256h-5.569V190.929h6.625c2.393,0,3.58-.926,3.58-3.313v-6.892H219.26v5.569H212.9c-1.218,0-2.212,1.349-3.281,2.418l-5.836,5.836C203.1,195.223,201.23,196.715,201.23,197.827Zm-7.955-7.427v20.285a2.659,2.659,0,0,0,2.25,2.784l-2.747,2.815c-1.05-.783-3.064-5.1-3.567-6.575-7.464-21.963,14.53-42.628,36.68-31.64a14.247,14.247,0,0,1,3.045,1.989c-.18.28-5.929,6.233-6.364,6.233h-.926v-5.438a2.642,2.642,0,0,0-.827-1.821,2.718,2.718,0,0,0-1.958-.7H205.338c-1.678,0-2.368,1.106-3.611,2.349l-7.564,7.557A2.774,2.774,0,0,0,193.275,190.4Zm-7.955,10.472a28.963,28.963,0,0,0,3.1,12.952c.491.994,2.94,5.482,4.2,5.482,1.144,0,5.786-5.836,6.495-5.836h2.125c0,2.933.273,2.045-1.429,3.748-4.58,4.58-5.569,4.587-3,6.519a28.314,28.314,0,0,0,41.018-37.575c-.367-.609-.833-1.305-1.28-1.9-1.765-2.337-1.7-2.082-4.649.87a29.214,29.214,0,0,1-2.685,2.616c-.323-1.38-1.8-1.454-3.052-1.454.74-1.1,5.836-5.438,5.836-6.233,0-1.187-2.355-2.492-3.288-3.076a28.344,28.344,0,0,0-43.38,23.89Z" transform="translate(-179.694 -167.006)"/><path class="a" d="M178.614,198.323a41.165,41.165,0,0,1,.722-7.116,31.621,31.621,0,0,1,12.482-19.255,30.787,30.787,0,0,1,14.25-5.678c1.668-.237,3.032-.2,3.685-.3a28.845,28.845,0,0,1,3.6.131c1.307.193,2.229.286,3.455.529a33.071,33.071,0,0,1,7.446,2.515,31.846,31.846,0,0,1,13.385,12.382c.28.467.442.834.71,1.276a31.471,31.471,0,0,1,3.026,21.3c-1.37,6.879-4.5,11.8-9.207,16.56a31.506,31.506,0,0,1-19.286,8.6,32.205,32.205,0,0,1-15.047-2.484,30.221,30.221,0,0,1-6.319-3.642l-3.243-2.739a33.253,33.253,0,0,1-3.629-4.208,39.478,39.478,0,0,1-2.285-3.685,31.179,31.179,0,0,1-2.764-7.2c-1.015-4.065-.635-5.2-.984-6.991Zm-2.254-1.855c0,6.107.735,10.565,3.138,15.582a33.026,33.026,0,0,0,3.044,5.192l1.787,2.335c.317.411.61.647.928,1.058,2.185,2.864,7.259,6.182,10.621,7.838a34.162,34.162,0,0,0,13.285,3.187c4.526,0,8.4-.311,12.563-1.917a33.532,33.532,0,0,0,16.41-12.407,23.88,23.88,0,0,0,1.612-2.5c.51-.915,1-1.756,1.419-2.7,2.515-5.653,3.187-9.257,3.187-15.669,0-8.454-4.183-17.139-9.923-22.878s-14.412-9.93-22.878-9.93c-6.082,0-10.6.747-15.582,3.144a34.535,34.535,0,0,0-9.687,6.786c-5.584,5.584-9.923,14.312-9.923,22.878Z" transform="translate(-176.36 -163.66)"/><path class="a" d="M220.09,220.922c0,.716.094,1.469,1.206,1.469h14.737c1.463,0,1.852-2.411-.27-2.411H221.3C220.774,219.98,220.09,220.495,220.09,220.922Z" transform="translate(-192.944 -184.93)"/><path class="a" d="M221.788,231.571h13.8c2.311,0,1.852-2.411.4-2.411H221.122C219.8,229.16,219.17,231.571,221.788,231.571Z" transform="translate(-192.903 -188.396)"/><path class="a" d="M220.09,239.134c0,.653.031,1.476,1.074,1.476H236.3c1.1,0,1.463-2.279-.132-2.279h-15.27A1.036,1.036,0,0,0,220.09,239.134Z" transform="translate(-192.944 -191.859)"/></g></svg>