<svg xmlns="http://www.w3.org/2000/svg" width="68" height="61.186" viewBox="0 0 68 61.186"><path d="M62.393,34.74H46.826L45.617,29.9a5.6,5.6,0,0,0-5.44-4.248H27.823a5.6,5.6,0,0,0-5.44,4.248L21.174,34.74H5.607A5.614,5.614,0,0,0,0,40.347V81.232A5.614,5.614,0,0,0,5.607,86.84H62.393A5.614,5.614,0,0,0,68,81.232V40.347A5.614,5.614,0,0,0,62.393,34.74ZM24.449,30.419a3.474,3.474,0,0,1,3.375-2.635H40.177a3.474,3.474,0,0,1,3.375,2.635l1.08,4.321H42.144L41.21,31a1.064,1.064,0,0,0-1.033-.806H27.824A1.065,1.065,0,0,0,26.791,31l-.934,3.736H23.369Zm15.5,4.321h-11.9l.6-2.413h10.69ZM5.607,36.869H62.393A3.471,3.471,0,0,1,65.047,38.1L58.134,58.842A4.608,4.608,0,0,1,53.757,62H38.472V59.654a2.2,2.2,0,0,0-2.2-2.2H31.729a2.2,2.2,0,0,0-2.2,2.2V62H14.243a4.608,4.608,0,0,1-4.377-3.155L2.953,38.1A3.471,3.471,0,0,1,5.607,36.869Zm26.05,27.4V59.654a.071.071,0,0,1,.071-.071h4.543a.071.071,0,0,1,.071.071v4.614ZM36.342,66.4V68.74a.071.071,0,0,1-.071.071H31.729a.071.071,0,0,1-.071-.071V66.4ZM65.871,81.232a3.482,3.482,0,0,1-3.478,3.478H5.607a3.482,3.482,0,0,1-3.478-3.478V42.365l5.717,17.15a6.735,6.735,0,0,0,6.4,4.611H29.528V68.74a2.2,2.2,0,0,0,2.2,2.2h4.543a2.2,2.2,0,0,0,2.2-2.2V64.126H53.757a6.735,6.735,0,0,0,6.4-4.611l5.717-17.15V81.232Z" transform="translate(0 -25.654)"/></svg>