<svg xmlns="http://www.w3.org/2000/svg" width="68" height="68" viewBox="0 0 68 68"><path d="M299.355,58a3.257,3.257,0,0,0-1.221.242,3.251,3.251,0,0,0-4.377-2.194,3.277,3.277,0,0,0-3.155-2.435,3.23,3.23,0,0,0-1.094.2V52.126a14.234,14.234,0,0,0,8.063-22.431l2.581-2.75-1.594-1.5-2.437,2.6a14.234,14.234,0,1,0-13.178,24.089V71.8a1.535,1.535,0,0,1-.409-.8l-1.441-7.943a3.479,3.479,0,0,0-6.9.622v.7a3.649,3.649,0,0,0,.047.574L276.2,76.8a5.508,5.508,0,0,0,1.123,2.524l2.706,3.39a3.31,3.31,0,0,1,.72,2.057v3.946h17.507V84.772a3.308,3.308,0,0,1,.72-2.057l2.457-3.081a5.515,5.515,0,0,0,1.2-3.425V61.295A3.291,3.291,0,0,0,299.355,58ZM274.188,38.26a12.018,12.018,0,0,1,20.434-8.627l-12.8,13.634-2.485-2.491-1.547,1.551,4.08,4.09,14.178-15.1a12.054,12.054,0,0,1-6.543,18.551V48.132a3.283,3.283,0,1,0-6.565,0v1.733a12.011,12.011,0,0,1-8.754-11.605Zm26.261,37.95a3.307,3.307,0,0,1-.72,2.057l-2.457,3.081a5.515,5.515,0,0,0-1.2,3.425v1.752h-13.13V84.771a5.523,5.523,0,0,0-1.2-3.427l-2.707-3.39a3.3,3.3,0,0,1-.673-1.515L276.393,64.6a1.37,1.37,0,0,1-.017-.215v-.7a1.291,1.291,0,0,1,2.562-.23l1.44,7.942a3.717,3.717,0,0,0,3.657,3.059h1.094V48.132a1.094,1.094,0,1,1,2.188,0v17.55h2.188V56.907a1.094,1.094,0,1,1,2.188,0v8.775h2.188V59.1a1.094,1.094,0,1,1,2.188,0v6.581h2.188V61.295a1.094,1.094,0,1,1,2.188,0Zm0,0" transform="translate(-234.638 -20.717)"/><path d="M27.355,0H7.659A7.678,7.678,0,0,0,0,7.677V60.323A7.678,7.678,0,0,0,7.659,68h19.7a7.678,7.678,0,0,0,7.659-7.677V7.677A7.678,7.678,0,0,0,27.355,0Zm5.471,60.323a5.484,5.484,0,0,1-5.471,5.484H7.659a5.484,5.484,0,0,1-5.471-5.484V7.677A5.484,5.484,0,0,1,7.659,2.194h19.7a5.484,5.484,0,0,1,5.471,5.484Zm0,0"/><path d="M57.762,174.129l-3.427,6.845-7.7,1.1,5.575,5.356-1.312,7.54,6.866-3.558,6.866,3.558-1.312-7.54,5.575-5.356-7.7-1.1Zm3.2,12.533L61.715,191l-3.953-2.049L53.809,191l.754-4.337-3.179-3.055,4.4-.63,1.982-3.959,1.983,3.96,4.4.63Zm0,0" transform="translate(-40.255 -150.232)"/><path d="M64.57,326.266l-3.085,6.1-6.965.988,5.041,4.8-1.183,6.737,6.192-3.179,6.192,3.179-1.183-6.737,5.041-4.8-6.965-.988Zm2.65,11.115.625,3.556-3.275-1.681-3.275,1.682.625-3.556-2.619-2.49,3.621-.513,1.648-3.261,1.648,3.26,3.621.513Zm0,0" transform="translate(-47.063 -281.482)"/><path d="M58.378,48.895l6.192-3.179,6.192,3.179-1.183-6.737,5.041-4.8-6.965-.988-3.085-6.1-3.085,6.1-6.965.988,5.041,4.8Zm.925-10,3.621-.513,1.647-3.261,1.648,3.26,3.621.513L67.22,41.38l.625,3.556L64.57,43.256l-3.275,1.682.625-3.556Zm0,0" transform="translate(-47.063 -26.126)"/></svg>