<svg xmlns="http://www.w3.org/2000/svg" width="68" height="68" viewBox="0 0 68 68"><g transform="translate(0 0)"><path d="M67,63.861H61.828V31.94a1,1,0,0,0-1.992,0V63.861H53.242V21.579h6.594v5.712a1,1,0,1,0,1.992,0V20.583a1,1,0,0,0-1-1H52.246a1,1,0,0,0-1,1V26.3H43.66a1,1,0,0,0-1,1V33h-7.59a1,1,0,0,0-1,1v5.712h-7.59a1,1,0,0,0-1,1V46.42H17.9a1,1,0,0,0-1,1v5.175H9.314a1,1,0,0,0-1,1v2.774a1,1,0,1,0,1.992,0V54.583H16.9v9.278H10.31V61.01a1,1,0,1,0-1.992,0v2.851H4.139V1A1,1,0,0,0,2.147,1V6.171H1A1,1,0,0,0,1,8.164H2.147v6.594H1A1,1,0,1,0,1,16.75H2.147v6.594H1a1,1,0,1,0,0,1.992H2.147V31.93H1a1,1,0,0,0,0,1.992H2.147v6.594H1a1,1,0,0,0,0,1.992H2.147V49.1H1A1,1,0,1,0,1,51.1H2.147V57.69H1a1,1,0,1,0,0,1.992H2.147v5.175a1,1,0,0,0,1,1H8.318V67a1,1,0,1,0,1.992,0v-1.15H16.9V67A1,1,0,1,0,18.9,67V65.853h6.594V67a1,1,0,1,0,1.992,0V65.853h6.594V67a1,1,0,1,0,1.992,0V65.853h6.594V67a1,1,0,1,0,1.992,0V65.853H51.25V67a1,1,0,1,0,1.992,0v-1.15h6.594V67a1,1,0,1,0,1.992,0V65.853H67a1,1,0,1,0,0-1.992ZM18.9,48.412h6.594V63.861H18.9ZM27.483,41.7h6.594V63.861H27.483ZM36.069,35h6.594V63.861H36.069Zm8.586-6.708H51.25V63.862H44.656Z" transform="translate(0 0)"/><path d="M65.588,45.014a3.127,3.127,0,0,0,2.226-.921L82.831,29.075a1,1,0,0,0-1.411-1.411L66.4,42.681a1.152,1.152,0,1,1-1.628-1.63L99.823,6a1,1,0,0,0-.705-1.7h-3.14a1.152,1.152,0,0,1,0-2.3h8.33a1.153,1.153,0,0,1,1.152,1.152v8.33a1.152,1.152,0,1,1-2.3,0V8.337a1,1,0,0,0-1.7-.705L84.71,24.374a1,1,0,0,0,1.411,1.411l15.039-15.039v.732a3.147,3.147,0,1,0,6.294,0V3.147A3.15,3.15,0,0,0,104.308,0h-8.33a3.148,3.148,0,0,0,0,6.3h.732L63.364,39.641a3.147,3.147,0,0,0,2.224,5.373Z" transform="translate(-54.136 0)"/></g></svg>