<svg xmlns="http://www.w3.org/2000/svg" width="63.467" height="68" viewBox="0 0 63.467 68"><g transform="translate(-4 -2)"><path d="M15.669,25.472a3.4,3.4,0,0,0,0-6.8H13.4a1.134,1.134,0,1,1,0-2.268h2.268A1.134,1.134,0,0,1,16.8,17.535h2.268a3.4,3.4,0,0,0-3.4-3.4V13H13.4v1.134a3.4,3.4,0,1,0,0,6.8h2.268a1.134,1.134,0,0,1,0,2.268H13.4a1.134,1.134,0,0,1-1.134-1.134H10a3.4,3.4,0,0,0,3.4,3.4v1.134h2.268Z" transform="translate(0.803 1.465)"/><path d="M22,18h4.535v2.268H22Z" transform="translate(2.399 2.133)"/><path d="M28,18H39.338v2.268H28Z" transform="translate(3.197 2.133)"/><path d="M22,22H40.141v2.268H22Z" transform="translate(2.396 2.666)"/><path d="M10,30h2.268v2.268H10Z" transform="translate(0.803 3.733)"/><path d="M10,34h2.268v2.268H10Z" transform="translate(0.803 4.266)"/><path d="M10,38h2.268v2.268H10Z" transform="translate(0.803 4.799)"/><path d="M10,42h2.268v2.268H10Z" transform="translate(0.803 5.333)"/><path d="M10,46h2.268v2.268H10Z" transform="translate(0.803 5.866)"/><path d="M10,50h2.268v2.268H10Z" transform="translate(0.803 6.399)"/><path d="M14,30h9.071v2.268H14Z" transform="translate(1.332 3.733)"/><path d="M14,34h9.071v2.268H14Z" transform="translate(1.332 4.266)"/><path d="M14,38h9.071v2.268H14Z" transform="translate(1.332 4.799)"/><path d="M14,42h9.071v2.268H14Z" transform="translate(1.332 5.333)"/><path d="M14,46h9.071v2.268H14Z" transform="translate(1.332 5.866)"/><path d="M14,50h9.071v2.268H14Z" transform="translate(1.332 6.399)"/><path d="M65.2,29.2H53.867V3.133a1.133,1.133,0,0,0-2.04-.68L49.333,5.777,46.84,2.453a1.174,1.174,0,0,0-1.813,0L42.533,5.777,40.04,2.453a1.174,1.174,0,0,0-1.813,0L35.733,5.777,33.24,2.453a1.174,1.174,0,0,0-1.813,0L28.933,5.777,26.44,2.453a1.174,1.174,0,0,0-1.813,0L22.133,5.777,19.64,2.453a1.174,1.174,0,0,0-1.813,0L15.333,5.777,12.84,2.453a1.174,1.174,0,0,0-1.813,0L8.533,5.777,6.04,2.453A1.133,1.133,0,0,0,4,3.133V68.867a1.133,1.133,0,0,0,2.04.68l2.493-3.324,2.493,3.324a1.174,1.174,0,0,0,1.813,0l2.493-3.324,2.493,3.324a1.174,1.174,0,0,0,1.813,0l2.493-3.324,2.493,3.324a1.174,1.174,0,0,0,1.813,0l2.493-3.324,2.493,3.324a1.174,1.174,0,0,0,1.813,0l2.493-3.324,2.493,3.324a1.174,1.174,0,0,0,1.813,0l2.493-3.324,2.493,3.324a1.174,1.174,0,0,0,1.813,0l2.493-3.324,2.493,3.324a1.133,1.133,0,0,0,.907.453,1.155,1.155,0,0,0,.358-.058,1.133,1.133,0,0,0,.775-1.076v-10.2H65.2A2.267,2.267,0,0,0,67.467,56.4V31.467A2.267,2.267,0,0,0,65.2,29.2Zm0,4.533h-34V31.467h34ZM51.6,65.467l-1.36-1.813a1.174,1.174,0,0,0-1.813,0l-2.493,3.324L43.44,63.653a1.174,1.174,0,0,0-1.813,0l-2.493,3.324L36.64,63.653a1.174,1.174,0,0,0-1.813,0l-2.493,3.324L29.84,63.653a1.174,1.174,0,0,0-1.813,0l-2.493,3.324L23.04,63.653a1.174,1.174,0,0,0-1.813,0l-2.493,3.324L16.24,63.653a1.174,1.174,0,0,0-1.813,0l-2.493,3.324L9.44,63.653a1.174,1.174,0,0,0-1.813,0l-1.36,1.813V6.533l1.36,1.813a1.174,1.174,0,0,0,1.813,0l2.493-3.324,2.493,3.324a1.174,1.174,0,0,0,1.813,0l2.493-3.324,2.493,3.324a1.174,1.174,0,0,0,1.813,0l2.493-3.324,2.493,3.324a1.174,1.174,0,0,0,1.813,0l2.493-3.324,2.493,3.324a1.174,1.174,0,0,0,1.813,0l2.493-3.324,2.493,3.324a1.174,1.174,0,0,0,1.813,0l2.493-3.324,2.493,3.324a1.174,1.174,0,0,0,1.813,0L51.6,6.533V29.2H31.2a2.267,2.267,0,0,0-2.267,2.267V56.4A2.267,2.267,0,0,0,31.2,58.667H51.6ZM65.2,56.4h-34V40.533h34Zm0-18.133h-34V36h34Z" transform="translate(0 0)"/><path d="M43.669,49.338A5.669,5.669,0,1,0,38,43.669a5.669,5.669,0,0,0,5.669,5.669Zm0-9.071a3.4,3.4,0,1,1-3.4,3.4A3.4,3.4,0,0,1,43.669,40.268Z" transform="translate(4.53 4.796)"/><path d="M32.268,40.268h2.268V38h-3.4A1.134,1.134,0,0,0,30,39.134v3.4h2.268Z" transform="translate(3.466 4.799)"/><path d="M55.268,42.535h2.268v-3.4A1.134,1.134,0,0,0,56.4,38H53v2.268h2.268Z" transform="translate(6.53 4.799)"/><path d="M31.134,48.535h3.4V46.268H32.268V44H30v3.4A1.134,1.134,0,0,0,31.134,48.535Z" transform="translate(3.466 5.598)"/><path d="M57.535,47.4V44H55.268v2.268H53v2.268h3.4A1.134,1.134,0,0,0,57.535,47.4Z" transform="translate(6.53 5.598)"/></g></svg>