<svg xmlns="http://www.w3.org/2000/svg" width="60.873" height="68" viewBox="0 0 60.873 68"><g transform="translate(-337.763 -2713.035)"><path d="M211.781,225.146h.011a1.316,1.316,0,0,1,1.3,1.327l1.99.016a3.312,3.312,0,0,0-2.292-3.174v-2.149h-1.99V223.3a3.306,3.306,0,0,0,.949,6.465,1.316,1.316,0,0,1-.011,2.632h-.011a1.316,1.316,0,0,1-1.3-1.327l-1.99-.017a3.308,3.308,0,0,0,2.368,3.2v2.125h1.99v-2.161a3.306,3.306,0,0,0-1.025-6.441,1.316,1.316,0,0,1,.011-2.632Z" transform="translate(153.448 2521.251)"/><path d="M177.062,271h1.99v1.99h-1.99Z" transform="translate(180.654 2478.028)"/><path d="M274.937,271h1.99v1.99h-1.99Z" transform="translate(95.778 2478.028)"/><path d="M87.7,108.5H40.777v1.994H85.713v29.241H81.728V114.481H34.8v-3.987h3.984V108.5H32.809v5.981H26.832v33.228H73.759v-1.994H28.824V116.475H79.736v29.241H75.752v1.994h5.976v-5.981H87.7Z" transform="translate(310.931 2618.93)"/><path d="M103.712,188.063,99.148,183.5H61.4l-4.563,4.563v16.082l4.563,4.563H99.148l4.563-4.563ZM62.219,206.719l-3.4-3.4V188.888l3.4-3.4h36.1l3.4,3.4v14.434l-3.4,3.4Z" transform="translate(284.911 2553.92)"/><path d="M290.795,37.413l.727-1.853a18.626,18.626,0,0,0-1.909-.632l-.522,1.921A16.666,16.666,0,0,1,290.795,37.413Z" transform="translate(83.505 2682.74)"/><path d="M167.548,31.563a18.612,18.612,0,0,0-4.895,3.132l1.321,1.489a16.633,16.633,0,0,1,11.064-4.194,16.845,16.845,0,0,1,2.553.195l.3-1.967A18.839,18.839,0,0,0,175.038,30,18.57,18.57,0,0,0,167.548,31.563Z" transform="translate(193.154 2687.015)"/><path d="M157.529,1.99a20.517,20.517,0,0,1,14.986,6.435h-3.808v1.99h6.966V3.45h-1.99V6.767a22.659,22.659,0,0,0-31.217-1.033L143.79,7.22A20.634,20.634,0,0,1,157.529,1.99Z" transform="translate(210.673 2713.035)"/><path d="M123.657,55.524l-1.453-1.36c-.485.518-.951,1.065-1.383,1.625l1.574,1.217C122.789,56.5,123.214,56,123.657,55.524Z" transform="translate(229.426 2666.057)"/><path d="M244.82,440.011a18.614,18.614,0,0,0,4.895-3.132l-1.321-1.489a16.633,16.633,0,0,1-11.064,4.194,16.832,16.832,0,0,1-2.554-.195l-.3,1.967a18.855,18.855,0,0,0,2.856.218A18.57,18.57,0,0,0,244.82,440.011Z" transform="translate(130.875 2335.48)"/><path d="M205.313,458.346l-.727,1.853a18.609,18.609,0,0,0,1.909.632l.522-1.92A16.715,16.715,0,0,1,205.313,458.346Z" transform="translate(156.786 2315.57)"/><path d="M137.4,441.925a20.517,20.517,0,0,1-14.985-6.435h3.808V433.5h-6.966v6.966h1.99v-3.317a22.659,22.659,0,0,0,31.216,1.033l-1.324-1.486A20.634,20.634,0,0,1,137.4,441.925Z" transform="translate(230.799 2337.119)"/><path d="M369.8,437.895l1.453,1.36c.485-.518.951-1.065,1.383-1.625l-1.574-1.217C370.668,436.923,370.244,437.422,369.8,437.895Z" transform="translate(13.514 2334.594)"/></g></svg>