<svg xmlns="http://www.w3.org/2000/svg" width="61.04" height="68.003" viewBox="0 0 61.04 68.003"><g transform="translate(-25.17)"><path d="M82.088,0H42.361a4.128,4.128,0,0,0-4.123,4.123V13.35a18.022,18.022,0,0,0,0,34.655V63.88A4.128,4.128,0,0,0,42.361,68H74.825a1.452,1.452,0,0,0,1.027-.425l9.933-9.933a1.452,1.452,0,0,0,.425-1.027V4.123A4.128,4.128,0,0,0,82.088,0ZM42.361,2.9H82.088a1.22,1.22,0,0,1,1.219,1.219V8.506H41.142V4.123A1.22,1.22,0,0,1,42.361,2.9ZM28.074,30.677A15.115,15.115,0,1,1,43.189,45.792,15.132,15.132,0,0,1,28.074,30.677Zm13.068,33.2V48.58A17.991,17.991,0,0,0,56.77,42.508h8.9a1.452,1.452,0,0,0,0-2.9h-6.83a17.889,17.889,0,0,0,2.3-7.363h4.527a1.452,1.452,0,1,0,0-2.9H61.159a17.888,17.888,0,0,0-2.2-7.363h6.706a1.452,1.452,0,1,0,0-2.9H56.958a17.991,17.991,0,0,0-15.816-6.293V11.41H83.306V55.165H77.5a4.128,4.128,0,0,0-4.123,4.123V65.1H42.361A1.22,1.22,0,0,1,41.142,63.88Zm35.135-.835V59.288A1.22,1.22,0,0,1,77.5,58.07h3.756Z" transform="translate(0)"/><path d="M350.2,140.773h4.823a1.452,1.452,0,1,0,0-2.9H350.2a1.452,1.452,0,0,0,0,2.9Z" transform="translate(-278.825 -118.801)"/><path d="M350.2,215.014h4.823a1.452,1.452,0,1,0,0-2.9H350.2a1.452,1.452,0,0,0,0,2.9Z" transform="translate(-278.825 -182.775)"/><path d="M350.2,289.256h4.823a1.452,1.452,0,1,0,0-2.9H350.2a1.452,1.452,0,0,0,0,2.9Z" transform="translate(-278.825 -246.749)"/><path d="M300.428,363.5a1.452,1.452,0,1,0,0-2.9H286.843a1.452,1.452,0,1,0,0,2.9Z" transform="translate(-224.232 -310.722)"/><path d="M91.886,153.2l-1.772-1.772a2.526,2.526,0,0,0-3.572,0l-9.293,9.293-2.569-2.569a2.526,2.526,0,0,0-3.572,0l-1.772,1.772a2.529,2.529,0,0,0,0,3.572l6.126,6.126a2.509,2.509,0,0,0,1.786.74h0a2.509,2.509,0,0,0,1.786-.74L91.886,156.77A2.529,2.529,0,0,0,91.886,153.2ZM77.249,167.3l-5.591-5.591,1.237-1.237,3.328,3.328a1.452,1.452,0,0,0,2.054,0l10.052-10.052,1.237,1.237Z" transform="translate(-37.422 -129.846)"/></g></svg>