<svg xmlns="http://www.w3.org/2000/svg" width="68" height="68" viewBox="0 0 68 68"><g transform="translate(0 0)"><path d="M205.844,205.844a1.329,1.329,0,1,0-1.879,0A1.327,1.327,0,0,0,205.844,205.844Zm0,0" transform="translate(-176.539 -176.54)"/><path d="M34,68A33.89,33.89,0,0,0,57.876,57.878l0,0,0,0A33.888,33.888,0,0,0,68,34C68,15.7,52.377,0,34,0,15.7,0,0,15.623,0,34,0,52.326,15.648,68,34,68ZM8.4,35.328A25.367,25.367,0,0,0,15.05,51.072l-3.967,3.966A31.506,31.506,0,0,1,2.689,35.328ZM34,11.023A23.292,23.292,0,0,1,56.977,34,23.292,23.292,0,0,1,34,56.976,23.292,23.292,0,0,1,11.024,34,23.292,23.292,0,0,1,34,11.023ZM12.962,56.917l3.966-3.967A25.367,25.367,0,0,0,32.672,59.6v5.714a31.506,31.506,0,0,1-19.711-8.394Zm22.367,8.394V59.6A25.367,25.367,0,0,0,51.073,52.95l3.966,3.967a31.506,31.506,0,0,1-19.711,8.394ZM56.918,55.038l-3.967-3.966A25.371,25.371,0,0,0,59.6,35.326h5.714a31.51,31.51,0,0,1-8.394,19.712Zm8.394-22.367H59.6a25.367,25.367,0,0,0-6.646-15.745l3.967-3.966a31.506,31.506,0,0,1,8.394,19.711ZM55.039,11.082l-3.966,3.967A25.367,25.367,0,0,0,35.329,8.4V2.689a31.506,31.506,0,0,1,19.711,8.394ZM32.672,2.689V8.4a25.367,25.367,0,0,0-15.745,6.646l-3.966-3.967A31.506,31.506,0,0,1,32.672,2.689ZM11.083,12.961l3.967,3.966A25.367,25.367,0,0,0,8.4,32.672H2.689a31.506,31.506,0,0,1,8.394-19.711Zm0,0"/><path d="M127.005,147.2l2.435.608a14.454,14.454,0,0,0,.831,2l-1.294,2.156a1.328,1.328,0,0,0,.2,1.622l3.756,3.754a1.327,1.327,0,0,0,1.621.2l2.157-1.293a14.594,14.594,0,0,0,2,.831l.609,2.434a1.327,1.327,0,0,0,1.288,1.006h5.31a1.328,1.328,0,0,0,1.288-1.006l.608-2.435a14.554,14.554,0,0,0,2-.831l2.157,1.293a1.327,1.327,0,0,0,1.621-.2l3.756-3.754a1.327,1.327,0,0,0,.2-1.622l-1.294-2.157a14.552,14.552,0,0,0,.831-2l2.435-.608a1.328,1.328,0,0,0,1.006-1.288V140.6a1.328,1.328,0,0,0-1.006-1.288l-2.435-.608a14.552,14.552,0,0,0-.831-2l1.294-2.157a1.328,1.328,0,0,0-.2-1.622l-3.756-3.756a1.328,1.328,0,0,0-1.622-.2l-2.157,1.294a14.552,14.552,0,0,0-2-.831l-.608-2.435A1.328,1.328,0,0,0,145.913,126H140.6a1.328,1.328,0,0,0-1.288,1.006l-.608,2.435a14.572,14.572,0,0,0-2,.831l-2.157-1.294a1.327,1.327,0,0,0-1.622.2l-3.755,3.756a1.327,1.327,0,0,0-.2,1.622l1.294,2.157a14.563,14.563,0,0,0-.831,2l-2.435.608A1.328,1.328,0,0,0,126,140.6v5.31a1.328,1.328,0,0,0,1.006,1.288Zm1.65-5.562,2.16-.54a1.329,1.329,0,0,0,.96-.941,11.854,11.854,0,0,1,1.174-2.82,1.328,1.328,0,0,0-.012-1.346l-1.15-1.916,2.29-2.29,1.916,1.15a1.328,1.328,0,0,0,1.347.012,11.843,11.843,0,0,1,2.819-1.174,1.329,1.329,0,0,0,.941-.96l.54-2.16h3.237l.54,2.16a1.328,1.328,0,0,0,.941.96,11.886,11.886,0,0,1,2.82,1.174,1.327,1.327,0,0,0,1.346-.012l1.916-1.15,2.29,2.29-1.15,1.916a1.328,1.328,0,0,0-.012,1.346,11.87,11.87,0,0,1,1.174,2.82,1.329,1.329,0,0,0,.959.941l2.16.54v3.237l-2.16.54a1.328,1.328,0,0,0-.96.941,11.886,11.886,0,0,1-1.174,2.82,1.327,1.327,0,0,0,.012,1.346l1.15,1.916-2.29,2.288-1.917-1.149a1.328,1.328,0,0,0-1.345-.012,11.862,11.862,0,0,1-2.821,1.174,1.329,1.329,0,0,0-.941.96l-.54,2.16H141.64l-.54-2.16a1.328,1.328,0,0,0-.941-.96,11.847,11.847,0,0,1-2.819-1.174,1.329,1.329,0,0,0-1.346.011l-1.917,1.149-2.29-2.288,1.15-1.916a1.328,1.328,0,0,0,.012-1.347,11.865,11.865,0,0,1-1.174-2.82,1.326,1.326,0,0,0-.959-.94l-2.16-.54Zm0,0" transform="translate(-109.258 -109.258)"/><path d="M229.986,233.972A3.986,3.986,0,1,0,226,229.986,3.991,3.991,0,0,0,229.986,233.972Zm0-5.315a1.329,1.329,0,1,1-1.329,1.329A1.33,1.33,0,0,1,229.986,228.657Zm0,0" transform="translate(-195.986 -195.987)"/><path d="M201.875,201.875a9.3,9.3,0,0,0-7.558-15.827,1.329,1.329,0,1,0,.278,2.643,6.644,6.644,0,1,1-5.905,5.905,1.329,1.329,0,1,0-2.643-.278,9.3,9.3,0,0,0,15.827,7.557Zm0,0" transform="translate(-161.297 -161.299)"/></g></svg>