<svg xmlns="http://www.w3.org/2000/svg" width="68" height="68" viewBox="0 0 68 68"><g transform="translate(-1 -1)"><path d="M41.548,32.774a8.774,8.774,0,1,0-8.774,8.774A8.784,8.784,0,0,0,41.548,32.774Zm-8.774,6.581a6.581,6.581,0,1,1,6.581-6.581A6.587,6.587,0,0,1,32.774,39.355Z" transform="translate(2.226 2.226)"/><path d="M64.589,34.012a29.407,29.407,0,0,0-2.169-10.2V20.97a2.142,2.142,0,0,1,.944-1.8A9.869,9.869,0,0,0,56.886,1.065a9.936,9.936,0,0,0-8.462,7.545,29.622,29.622,0,0,0-23.3-1.533V1H18.548V18.548H16.355V5.387H9.774V18.548H7.581V9.774H1V20.742H9.046A29.526,29.526,0,0,0,7.094,44.871a4.342,4.342,0,0,0-.61,2.194H4.29A3.294,3.294,0,0,0,1,50.355v5.484H3.194a2.194,2.194,0,0,1,0,4.387H1V65.71A3.294,3.294,0,0,0,4.29,69H17.452a3.294,3.294,0,0,0,3.29-3.29V60.226H18.548a2.194,2.194,0,1,1,0-4.387h2.194V50.355a3.294,3.294,0,0,0-3.29-3.29H15.258a4.392,4.392,0,0,0-4.387-4.387,4.327,4.327,0,0,0-2.018.515,27.262,27.262,0,0,1-1.224-7.1H20.742v2.97l2,.707q.1.258.215.517l-.917,1.917,5.751,5.751,1.917-.917c.171.076.343.148.517.215l.705,2H33.9V62.39a27.13,27.13,0,0,1-10.465-2.52l-.926,1.988a29.627,29.627,0,0,0,35.52-8.251v7.975l2.915,5.83a2.872,2.872,0,0,0,5.137,0L69,61.581V39.387A5.49,5.49,0,0,0,64.589,34.012ZM5.387,18.548H3.194V11.968H5.387ZM50.421,9.856a7.708,7.708,0,0,1,6.712-6.612,8.193,8.193,0,0,1,.909-.05,7.587,7.587,0,0,1,5.1,1.95,7.672,7.672,0,0,1-.966,12.184,4.28,4.28,0,0,0-1.938,3.414H59.129V13.959a3.29,3.29,0,1,0-2.194,0v6.782H55.822a4.275,4.275,0,0,0-1.917-3.4,7.646,7.646,0,0,1-3.484-7.483Zm9.805,13.079v1.1a1.1,1.1,0,0,1-1.1,1.1H56.935a1.1,1.1,0,0,1-1.1-1.1v-1.1Zm-3.29-12.065a1.1,1.1,0,1,1,1.1,1.1A1.1,1.1,0,0,1,56.935,10.871ZM36.1,7.617a27.39,27.39,0,0,1,12.068,3.34,9.8,9.8,0,0,0,4.558,8.231,2.155,2.155,0,0,1,.921,1.828v3.016a3.294,3.294,0,0,0,3.29,3.29h2.194a3.258,3.258,0,0,0,1.986-.684A27.237,27.237,0,0,1,62.392,33.9H49.258v-2.97l-2-.707q-.1-.258-.215-.517l.917-1.917-5.751-5.751-1.917.917c-.171-.076-.343-.148-.517-.215l-.705-2H36.1ZM20.742,3.194h2.194V18.548H20.742ZM11.968,7.581h2.194V18.548H11.968ZM8.677,49.258V47.065a2.194,2.194,0,0,1,4.387,0v2.194h4.387a1.1,1.1,0,0,1,1.1,1.1v3.29a4.387,4.387,0,1,0,0,8.774v3.29a1.1,1.1,0,0,1-1.1,1.1H4.29a1.1,1.1,0,0,1-1.1-1.1v-3.29a4.387,4.387,0,0,0,0-8.774v-3.29a1.1,1.1,0,0,1,1.1-1.1ZM20.742,30.933V33.9H7.619a27.292,27.292,0,0,1,3.973-13.161H25.129V9.42A27.172,27.172,0,0,1,33.9,7.608V20.742h-2.97l-.707,2q-.258.1-.517.215l-1.917-.917-5.751,5.751.917,1.917c-.076.171-.148.343-.215.517ZM32.486,47.065l-.539-1.527-.5-.172a10.723,10.723,0,0,1-1.258-.524l-.477-.234-1.463.7-3.556-3.556.7-1.463-.234-.477a10.914,10.914,0,0,1-.524-1.258l-.172-.5-1.526-.537V32.485l1.527-.539.172-.5a10.723,10.723,0,0,1,.524-1.258l.234-.477-.7-1.463,3.556-3.556,1.463.7.477-.234a10.914,10.914,0,0,1,1.258-.524l.5-.172.537-1.525h5.029l.539,1.527.5.172a10.723,10.723,0,0,1,1.258.524l.477.234,1.463-.7,3.556,3.556-.7,1.463.234.477a10.915,10.915,0,0,1,.524,1.258l.172.5,1.525.537v5.029l-1.527.539-.172.5a10.723,10.723,0,0,1-.524,1.258l-.234.477.7,1.463L41.752,45.31l-1.463-.7-.477.234a10.915,10.915,0,0,1-1.258.524l-.5.172-.537,1.525Zm25.546-7.677V49.869A27.278,27.278,0,0,1,36.1,62.384V49.258h2.97l.707-2q.258-.1.517-.215l1.917.917,5.751-5.751-.917-1.917c.076-.171.148-.343.215-.517l2-.705V36.1h9.9a5.427,5.427,0,0,0-1.125,3.29Zm2.194,3.29h2.194V60.226H60.226Zm3.9,23.755a.7.7,0,0,1-1.212,0L60.9,62.419h5.225Zm2.684-6.207H64.613V42.677h2.194Zm0-19.742H60.226v-1.1a3.29,3.29,0,0,1,6.581,0Z" transform="translate(0)"/><path d="M35.161,55.608a25.26,25.26,0,0,0,15.014-7.793l-1.6-1.5a23.062,23.062,0,0,1-13.706,7.116Z" transform="translate(3.277 4.386)"/><path d="M52.21,43.6l-1.9-1.1a23.181,23.181,0,0,1-1.369,2.095l1.769,1.3A25.336,25.336,0,0,0,52.21,43.6Z" transform="translate(4.64 4.016)"/></g></svg>