<svg xmlns="http://www.w3.org/2000/svg" width="68.011" height="68" viewBox="0 0 68.011 68">
  <g id="analysis" transform="translate(0 -0.039)">
    <path id="Path_2124" data-name="Path 2124" d="M433.214,64.039h-1.136V66.31h1.136a3.407,3.407,0,0,1,3.407,3.407v30.664h-2.283v2.271h2.283v2.271a3.42,3.42,0,0,1-1.715,2.953l1.136,1.969a5.7,5.7,0,0,0,2.85-4.922V69.718A5.685,5.685,0,0,0,433.214,64.039Zm0,0" transform="translate(-370.881 -54.914)"/>
    <path id="Path_2125" data-name="Path 2125" d="M.011,104.826a5.679,5.679,0,0,0,5.679,5.665H26.782l-3.717,10.2H19.317v2.266H48.845v-2.266H45.1l-1.38-3.786-2.136.775,1.1,3.011h-17.2l3.99-10.942a1.133,1.133,0,0,0-1.068-1.521H5.69a3.4,3.4,0,0,1-3.407-3.4l-.011-2.266H23.861v-2.266H2.272L2.283,69.7A3.4,3.4,0,0,1,5.69,66.3H6.825V64.039H5.69A5.679,5.679,0,0,0,.011,69.7L0,101.427Zm0,0" transform="translate(0 -54.914)"/>
    <path id="Path_2126" data-name="Path 2126" d="M113.907,26.16V5.718A5.677,5.677,0,0,0,108.244.039H69.74a5.678,5.678,0,0,0-5.662,5.679V43.2h2.265V5.718a3.4,3.4,0,0,1,3.4-3.407h38.5a3.4,3.4,0,0,1,3.4,3.407V26.16Zm0,0" transform="translate(-54.981)"/>
    <path id="Path_2127" data-name="Path 2127" d="M104.078,32.039h2.271v2.271h-2.271Zm0,0" transform="translate(-89.335 -27.457)"/>
    <path id="Path_2128" data-name="Path 2128" d="M136.078,32.039h2.271v2.271h-2.271Zm0,0" transform="translate(-116.802 -27.457)"/>
    <path id="Path_2129" data-name="Path 2129" d="M168.078,32.039h2.271v2.271h-2.271Zm0,0" transform="translate(-144.269 -27.457)"/>
    <path id="Path_2130" data-name="Path 2130" d="M113.164,194.26v-9.086a1.135,1.135,0,0,0-1.136-1.136h-4.543a1.136,1.136,0,0,0-1.136,1.136v7.95h-2.271V195.4h9.086Zm-2.271-1.136h-2.271V186.31h2.271Zm0,0" transform="translate(-89.338 -157.944)"/>
    <path id="Path_2131" data-name="Path 2131" d="M190.892,134.853v-5.679a1.135,1.135,0,0,0-1.136-1.136h-4.543a1.136,1.136,0,0,0-1.136,1.136V139.4h2.271V130.31h2.271v4.543Zm0,0" transform="translate(-158.006 -109.874)"/>
    <path id="Path_2132" data-name="Path 2132" d="M254.892,124.582v-3.407a1.135,1.135,0,0,0-1.136-1.136h-4.543a1.136,1.136,0,0,0-1.136,1.136v4.543h2.271V122.31h2.271v2.271Zm0,0" transform="translate(-212.942 -103.003)"/>
    <path id="Path_2133" data-name="Path 2133" d="M318.892,103.989V97.175a1.135,1.135,0,0,0-1.136-1.136h-4.543a1.136,1.136,0,0,0-1.136,1.136v6.814h2.271V98.31h2.271v5.679Zm0,0" transform="translate(-267.877 -82.404)"/>
    <path id="Path_2134" data-name="Path 2134" d="M216.041,196.131a18.238,18.238,0,1,0-6.708,5.589l8.518,8.518A4.348,4.348,0,0,0,224,204.084Zm-14.621,5.156a15.9,15.9,0,1,1,15.9-15.9A15.9,15.9,0,0,1,201.42,201.287Zm20.97,7.34a2.133,2.133,0,0,1-2.938,0l-8.064-8.063a18.263,18.263,0,0,0,3.195-2.684l7.809,7.809a2.1,2.1,0,0,1,.61,1.468A2.07,2.07,0,0,1,222.39,208.627Zm0,0" transform="translate(-157.259 -143.469)"/>
    <path id="Path_2135" data-name="Path 2135" d="M229.706,200.039a13.628,13.628,0,1,0,13.628,13.628A13.629,13.629,0,0,0,229.706,200.039Zm0,24.986a11.357,11.357,0,1,1,11.357-11.357A11.357,11.357,0,0,1,229.706,225.025Zm0,0" transform="translate(-185.545 -171.706)"/>
    <path id="Path_2136" data-name="Path 2136" d="M294.453,234.593a6.835,6.835,0,0,1,1.942-.283v-2.271a9.1,9.1,0,0,0-2.595.376Zm0,0" transform="translate(-252.182 -199.136)"/>
    <path id="Path_2137" data-name="Path 2137" d="M248.078,250.975h2.271a6.821,6.821,0,0,1,2.921-5.593l-1.3-1.863A9.1,9.1,0,0,0,248.078,250.975Zm0,0" transform="translate(-212.94 -208.996)"/>
    <path id="Path_2138" data-name="Path 2138" d="M104.078,280.039h4.543v2.271h-4.543Zm0,0" transform="translate(-89.336 -240.336)"/>
    <path id="Path_2139" data-name="Path 2139" d="M152.078,280.039h2.271v2.271h-2.271Zm0,0" transform="translate(-130.535 -240.336)"/>
    <path id="Path_2140" data-name="Path 2140" d="M104.078,64.039H142.55v2.271H104.078Zm0,0" transform="translate(-89.303 -54.914)"/>
    <path id="Path_2141" data-name="Path 2141" d="M104.078,96.039h4.543v2.271h-4.543Zm0,0" transform="translate(-89.336 -82.401)"/>
  </g>
</svg>
