<svg xmlns="http://www.w3.org/2000/svg" width="59.947" height="68" viewBox="0 0 59.947 68"><g transform="translate(-29.934)"><path d="M144.832,37.9h-11.7a1.345,1.345,0,0,0,0,2.689h11.7A1.345,1.345,0,0,0,144.832,37.9Z" transform="translate(-88.197 -32.807)"/><path d="M30.185,340.351a1.344,1.344,0,1,0,.231-1.755A1.359,1.359,0,0,0,30.185,340.351Z" transform="translate(-0.025 -292.77)"/><path d="M72.711,48.21h1.943l6.5,6.147a1.361,1.361,0,0,0,2.269-.989l-.046-5.158H85.87A4.016,4.016,0,0,0,89.881,44.2V23.085a4.016,4.016,0,0,0-4.011-4.011H72.711V5.38A5.443,5.443,0,0,0,67.22,0h-31.8a5.443,5.443,0,0,0-5.491,5.38v36.1a1.346,1.346,0,0,0,2.69,0v-28.6h37.4v6.187H53.988a4.052,4.052,0,0,0-4.011,4.011v5.493a1.346,1.346,0,0,0,2.69,0V23.085a1.363,1.363,0,0,1,1.321-1.321H85.87a1.322,1.322,0,0,1,1.321,1.321V44.2A1.322,1.322,0,0,1,85.87,45.52H82.022a1.358,1.358,0,0,0-1.345,1.357l.03,3.353-4.593-4.343a1.345,1.345,0,0,0-.924-.368h-21.2A1.322,1.322,0,0,1,52.668,44.2V39.492a1.346,1.346,0,0,0-2.69,0V44.2a4.015,4.015,0,0,0,4.011,4.011H70.021v6.7h-37.4V52.144a1.346,1.346,0,0,0-2.69,0V62.62A5.443,5.443,0,0,0,35.425,68h31.8a5.443,5.443,0,0,0,5.491-5.38ZM32.624,10.2V5.38a2.75,2.75,0,0,1,2.8-2.69h31.8a2.75,2.75,0,0,1,2.8,2.69V10.2ZM54.641,61.457A3.853,3.853,0,1,1,50.788,57.6,3.857,3.857,0,0,1,54.641,61.457ZM32.624,62.619V57.6H45.5a6.584,6.584,0,0,0,0,7.7H35.425A2.75,2.75,0,0,1,32.624,62.619Zm37.4,0a2.75,2.75,0,0,1-2.8,2.69H56.072a6.584,6.584,0,0,0,0-7.7H70.021v5.015Z" transform="translate(0 0)"/><path d="M276.091,191.02a9.038,9.038,0,1,0-9.038,9.038A9.049,9.049,0,0,0,276.091,191.02Zm-15.387,0a6.349,6.349,0,1,1,6.349,6.349A6.356,6.356,0,0,1,260.7,191.02Z" transform="translate(-197.396 -157.499)"/><path d="M304.11,232.511a1.345,1.345,0,0,0-1.9-1.9l-2.063,2.063-.967-.967a1.345,1.345,0,0,0-1.9,1.9l1.918,1.918a1.356,1.356,0,0,0,1.9,0Z" transform="translate(-231.037 -199.246)"/><path d="M179.2,245.322a1.343,1.343,0,1,0,.239-1.764A1.355,1.355,0,0,0,179.2,245.322Z" transform="translate(-128.999 -210.517)"/></g></svg>