<svg xmlns="http://www.w3.org/2000/svg" width="68" height="68" viewBox="0 0 68 68"><g transform="translate(-1 -1)"><path d="M53.392,17.355V15H51.2v2.355a3.122,3.122,0,0,0-.463,5.777l2.14,1.07a.937.937,0,0,1-.418,1.776h-.319a.94.94,0,0,1-.939-.938V23.784H49v1.258a3.126,3.126,0,0,0,2.2,2.974v2.355h2.2V28.016a3.122,3.122,0,0,0,.463-5.777l-2.14-1.07a.937.937,0,0,1,.418-1.776h.319a.94.94,0,0,1,.939.938v.16h2.2v-.16A3.128,3.128,0,0,0,53.392,17.355Z" transform="translate(4.629 1.35)"/><path d="M66.806,18.548l-4.28-5.707,1.931-6.765a3.925,3.925,0,0,0,.155-1.093A3.988,3.988,0,0,0,60.629,1h-3a3.973,3.973,0,0,0-3.539,2.194H51.263a4.2,4.2,0,0,0-2.969,7.167L51.1,13.168l-4.036,5.381A10.958,10.958,0,0,0,54,35.929L52.277,47.092a5.449,5.449,0,0,0-2.749.886L44.541,42.99a3.236,3.236,0,0,0,.33-1.409,3.286,3.286,0,0,0-2.194-3.089V6.484A5.49,5.49,0,0,0,37.194,1H6.484A5.49,5.49,0,0,0,1,6.484V63.516A5.49,5.49,0,0,0,6.484,69h30.71a5.49,5.49,0,0,0,5.484-5.484V44.669a3.268,3.268,0,0,0,.313-.127l4.988,4.988a5.487,5.487,0,1,0,6.468-2.107L56.189,36.1h1.844a10.968,10.968,0,0,0,8.774-17.548ZM49.258,7.392a2.007,2.007,0,0,1,2-2h2.382V7.581h2.194v-2.6a1.792,1.792,0,0,1,1.79-1.79h3A1.789,1.789,0,0,1,62.35,5.475l-1.856,6.493H53L49.845,8.81a2.019,2.019,0,0,1-.587-1.418Zm-30.71-.908V3.194h6.581v3.29a3.29,3.29,0,0,1-6.581,0Zm21.935,5.484V38.492a3.272,3.272,0,0,0-1.64,4.91l-4.393,5.856H32.806v2.194h2.742l4.935-6.582v8.775H3.194V11.968Zm0,29.613a1.1,1.1,0,1,1,1.1,1.1A1.1,1.1,0,0,1,40.484,41.581Zm0-35.1v3.29H26.2a5.427,5.427,0,0,0,1.125-3.29V3.194h9.871A3.294,3.294,0,0,1,40.484,6.484Zm-34-3.29h9.871v3.29a5.427,5.427,0,0,0,1.125,3.29H3.194V6.484a3.294,3.294,0,0,1,3.29-3.29Zm30.71,63.613H6.484a3.294,3.294,0,0,1-3.29-3.29V55.839h37.29v7.677A3.294,3.294,0,0,1,37.194,66.806ZM55.839,52.548a3.29,3.29,0,1,1-3.29-3.29A3.294,3.294,0,0,1,55.839,52.548ZM58.032,33.9H55.839a8.775,8.775,0,0,1-7.019-14.04l4.277-5.7h7.677l4.277,5.7A8.775,8.775,0,0,1,58.032,33.9Z" transform="translate(0 0)"/><path d="M23.784,53H17.2A2.2,2.2,0,0,0,15,55.2v2.2a2.2,2.2,0,0,0,2.2,2.2h6.588a2.2,2.2,0,0,0,2.2-2.2V55.2A2.2,2.2,0,0,0,23.784,53ZM17.2,57.392V55.2h6.588l0,2.2Z" transform="translate(1.352 5.021)"/><path d="M9.392,53H7.2A2.2,2.2,0,0,0,5,55.2v2.2a2.2,2.2,0,0,0,2.2,2.2h2.2a2.2,2.2,0,0,0,2.2-2.2V55.2A2.2,2.2,0,0,0,9.392,53ZM7.2,57.392V55.2h2.2l0,2.2Z" transform="translate(0.392 5.021)"/><path d="M33.392,53H31.2A2.2,2.2,0,0,0,29,55.2v2.2a2.2,2.2,0,0,0,2.2,2.2h2.2a2.2,2.2,0,0,0,2.2-2.2V55.2A2.2,2.2,0,0,0,33.392,53Zm-2.2,4.392V55.2h2.2l0,2.2Z" transform="translate(2.706 5.021)"/><ellipse cx="1" cy="1.5" rx="1" ry="1.5" transform="translate(21.014 5.036)"/><path d="M9.392,25.978V37.16a3.289,3.289,0,0,0-2.2,3.092v3.294H35.742V40.252a3.289,3.289,0,0,0-2.2-3.092V25.978h4.392V23.126L24.054,15.649a5.557,5.557,0,0,0-5.171,0L5,23.126v2.852Zm6.588,0V36.958H11.588V25.978Zm2.2,10.979V25.978h6.588V36.958Zm15.371,4.392H9.392v-1.1a1.1,1.1,0,0,1,1.1-1.1H32.448a1.1,1.1,0,0,1,1.1,1.1Zm-2.2-4.392H26.959V25.978h4.392ZM19.924,17.583a3.318,3.318,0,0,1,3.089,0l11.512,6.2H8.413Z" transform="translate(0.392 1.344)"/><path d="M22,45h2.2v2.2H22Z" transform="translate(2.031 4.256)"/><path d="M26,45h2.2v2.2H26Z" transform="translate(2.418 4.256)"/><path d="M18,45h2.2v2.2H18Z" transform="translate(1.645 4.256)"/></g></svg>