<svg xmlns="http://www.w3.org/2000/svg" width="61.186" height="68" viewBox="0 0 61.186 68"><path d="M81.231,0H31.261a5.614,5.614,0,0,0-5.608,5.607V62.393A5.614,5.614,0,0,0,31.26,68H81.231a5.614,5.614,0,0,0,5.607-5.607V5.607A5.614,5.614,0,0,0,81.231,0Zm3.478,62.393a3.482,3.482,0,0,1-3.478,3.478H31.261a3.482,3.482,0,0,1-3.478-3.478V5.607a3.482,3.482,0,0,1,3.478-3.478H81.231a3.482,3.482,0,0,1,3.478,3.478Z" transform="translate(-25.653)"/><g transform="translate(6.771 6.771)"><path d="M122.4,51.307H79.164a2.2,2.2,0,0,0-2.2,2.186V67.035a2.2,2.2,0,0,0,2.2,2.186H122.4a2.2,2.2,0,0,0,2.2-2.186V53.493A2.2,2.2,0,0,0,122.4,51.307Zm.071,15.728a.071.071,0,0,1-.071.07H79.164a.071.071,0,0,1-.071-.07V53.493a.071.071,0,0,1,.071-.07H122.4a.071.071,0,0,1,.071.07Z" transform="translate(-76.96 -51.307)"/></g><g transform="translate(6.771 29.557)"><path d="M84.789,222.33H79.146a2.189,2.189,0,0,0-2.186,2.186v4.514a2.189,2.189,0,0,0,2.186,2.186h5.642a2.189,2.189,0,0,0,2.186-2.186v-4.514A2.189,2.189,0,0,0,84.789,222.33Zm.07,6.7a.07.07,0,0,1-.07.07H79.146a.07.07,0,0,1-.07-.07v-4.514a.07.07,0,0,1,.07-.07h5.642a.07.07,0,0,1,.07.07Z" transform="translate(-76.96 -222.33)"/></g><g transform="translate(19.331 29.557)"><path d="M178.852,222.33h-5.642a2.189,2.189,0,0,0-2.186,2.186v4.514a2.189,2.189,0,0,0,2.186,2.186h5.642a2.189,2.189,0,0,0,2.186-2.186v-4.514A2.189,2.189,0,0,0,178.852,222.33Zm.07,6.7a.07.07,0,0,1-.07.07h-5.642a.07.07,0,0,1-.07-.07v-4.514a.07.07,0,0,1,.07-.07h5.642a.07.07,0,0,1,.07.07Z" transform="translate(-171.023 -222.33)"/></g><g transform="translate(31.84 29.557)"><path d="M272.914,222.33h-5.642a2.189,2.189,0,0,0-2.186,2.186v4.514a2.189,2.189,0,0,0,2.186,2.186h5.642a2.189,2.189,0,0,0,2.186-2.186v-4.514A2.189,2.189,0,0,0,272.914,222.33Zm.071,6.7a.07.07,0,0,1-.07.07h-5.642a.07.07,0,0,1-.07-.07v-4.514a.07.07,0,0,1,.07-.07h5.642a.07.07,0,0,1,.07.07Z" transform="translate(-265.085 -222.33)"/></g><g transform="translate(44.4 29.557)"><path d="M366.977,222.33h-5.642a2.189,2.189,0,0,0-2.186,2.186v4.514a2.189,2.189,0,0,0,2.186,2.186h5.642a2.189,2.189,0,0,0,2.186-2.186v-4.514A2.189,2.189,0,0,0,366.977,222.33Zm.07,6.7a.07.07,0,0,1-.07.07h-5.642a.07.07,0,0,1-.07-.07v-4.514a.07.07,0,0,1,.07-.07h5.642a.07.07,0,0,1,.07.07Z" transform="translate(-359.148 -222.33)"/></g><g transform="translate(6.771 40.925)"><path d="M84.789,307.841H79.146a2.189,2.189,0,0,0-2.186,2.186v4.514a2.189,2.189,0,0,0,2.186,2.186h5.642a2.189,2.189,0,0,0,2.186-2.186v-4.514A2.189,2.189,0,0,0,84.789,307.841Zm.07,6.7a.07.07,0,0,1-.07.07H79.146a.07.07,0,0,1-.07-.07v-4.514a.07.07,0,0,1,.07-.07h5.642a.07.07,0,0,1,.07.07Z" transform="translate(-76.96 -307.841)"/></g><g transform="translate(19.331 40.925)"><path d="M178.852,307.841h-5.642a2.189,2.189,0,0,0-2.186,2.186v4.514a2.189,2.189,0,0,0,2.186,2.186h5.642a2.189,2.189,0,0,0,2.186-2.186v-4.514A2.189,2.189,0,0,0,178.852,307.841Zm.07,6.7a.07.07,0,0,1-.07.07h-5.642a.07.07,0,0,1-.07-.07v-4.514a.07.07,0,0,1,.07-.07h5.642a.07.07,0,0,1,.07.07Z" transform="translate(-171.023 -307.841)"/></g><g transform="translate(31.84 40.925)"><path d="M272.914,307.841h-5.642a2.189,2.189,0,0,0-2.186,2.186v4.514a2.189,2.189,0,0,0,2.186,2.186h5.642a2.189,2.189,0,0,0,2.186-2.186v-4.514A2.189,2.189,0,0,0,272.914,307.841Zm.071,6.7a.07.07,0,0,1-.07.07h-5.642a.07.07,0,0,1-.07-.07v-4.514a.07.07,0,0,1,.07-.07h5.642a.07.07,0,0,1,.07.07Z" transform="translate(-265.085 -307.841)"/></g><g transform="translate(6.771 52.343)"><path d="M84.789,393.353H79.146a2.189,2.189,0,0,0-2.186,2.186v4.514a2.189,2.189,0,0,0,2.186,2.186h5.642a2.189,2.189,0,0,0,2.186-2.186v-4.514A2.189,2.189,0,0,0,84.789,393.353Zm.07,6.7a.07.07,0,0,1-.07.07H79.146a.07.07,0,0,1-.07-.07v-4.514a.07.07,0,0,1,.07-.07h5.642a.07.07,0,0,1,.07.07Z" transform="translate(-76.96 -393.353)"/></g><g transform="translate(19.331 52.343)"><path d="M178.852,393.353h-5.642a2.189,2.189,0,0,0-2.186,2.186v4.514a2.189,2.189,0,0,0,2.186,2.186h5.642a2.189,2.189,0,0,0,2.186-2.186v-4.514A2.189,2.189,0,0,0,178.852,393.353Zm.07,6.7a.07.07,0,0,1-.07.07h-5.642a.07.07,0,0,1-.07-.07v-4.514a.07.07,0,0,1,.07-.07h5.642a.07.07,0,0,1,.07.07Z" transform="translate(-171.023 -393.353)"/></g><g transform="translate(31.84 52.343)"><path d="M272.914,393.353h-5.642a2.189,2.189,0,0,0-2.186,2.186v4.514a2.189,2.189,0,0,0,2.186,2.186h5.642a2.189,2.189,0,0,0,2.186-2.186v-4.514A2.189,2.189,0,0,0,272.914,393.353Zm.071,6.7a.07.07,0,0,1-.07.07h-5.642a.07.07,0,0,1-.07-.07v-4.514a.07.07,0,0,1,.07-.07h5.642a.07.07,0,0,1,.07.07Z" transform="translate(-265.085 -393.353)"/></g><g transform="translate(44.4 41.058)"><path d="M366.977,307.841h-5.642a2.189,2.189,0,0,0-2.186,2.186v15.8a2.189,2.189,0,0,0,2.186,2.186h5.642a2.189,2.189,0,0,0,2.186-2.186v-15.8A2.189,2.189,0,0,0,366.977,307.841Zm.07,17.985a.07.07,0,0,1-.07.07h-5.642a.07.07,0,0,1-.07-.07v-15.8a.07.07,0,0,1,.07-.07h5.642a.07.07,0,0,1,.07.07Z" transform="translate(-359.148 -307.841)"/></g><g transform="translate(31.824 14.767)"><path d="M270.657,111.165h-4.514a1.058,1.058,0,0,0,0,2.116h4.514a1.058,1.058,0,1,0,0-2.116Z" transform="translate(-265.085 -111.165)"/></g><g transform="translate(40.917 14.767)"><path d="M339.066,111.165h-4.514a1.058,1.058,0,1,0,0,2.116h4.514a1.058,1.058,0,1,0,0-2.116Z" transform="translate(-333.494 -111.165)"/></g><g transform="translate(13.639 14.767)"><path d="M133.839,111.165h-4.514a1.058,1.058,0,1,0,0,2.116h4.514a1.058,1.058,0,1,0,0-2.116Z" transform="translate(-128.267 -111.165)"/></g><g transform="translate(22.732 14.767)"><path d="M202.248,111.165h-4.514a1.058,1.058,0,1,0,0,2.116h4.514a1.058,1.058,0,1,0,0-2.116Z" transform="translate(-196.676 -111.165)"/></g></svg>