<svg xmlns="http://www.w3.org/2000/svg" width="67.997" height="68" viewBox="0 0 67.997 68"><g transform="translate(-15.97 -15.952)"><path d="M74.9,56.755a8.857,8.857,0,0,0-1.484.124L57.253,30.418a9.066,9.066,0,1,0-14.564,0L26.523,56.878A9.066,9.066,0,1,0,33.442,69.22H54.5V66.954H34.032a7.911,7.911,0,0,0,0-2.266H47.7a1.133,1.133,0,0,0,1.133-1.133V60.081a8.787,8.787,0,0,0,2.266,0v3.473a1.133,1.133,0,0,0,1.133,1.133H54.5V62.421H53.37v-2.93a9.082,9.082,0,0,0,5.652-7.905l2.571-1.027,6.027,9.872A8.755,8.755,0,0,0,66.5,62.421H63.569V61.365a3.464,3.464,0,0,0-3.458-3.477,3.4,3.4,0,0,0-3.341,3.4V75.152L53.6,73.258a3.217,3.217,0,0,0-4.313.954h0a3.217,3.217,0,0,0,.795,4.425l7.158,5.1a1.133,1.133,0,0,0,.659.211H76.035a1.133,1.133,0,0,0,1.133-1.133V70.475A3.426,3.426,0,0,0,73.8,66.936a2.939,2.939,0,0,0-2.3.884,3.381,3.381,0,0,0-3.277-.71c-.08-.419-.425-3.774,1.639-5.837A6.869,6.869,0,0,1,74.9,59.021,6.8,6.8,0,0,1,78.788,71.4l1.293,1.861A9.066,9.066,0,0,0,74.9,56.755ZM49.971,18.225a6.8,6.8,0,1,1-6.8,6.8A6.8,6.8,0,0,1,49.971,18.225Zm6.837,26.92a9.047,9.047,0,0,0-13.674,0l-1.185-.471,6.538-10.707a8.979,8.979,0,0,0,2.967,0l6.538,10.707ZM44.315,32.1a9.08,9.08,0,0,0,1.932,1.185L39.314,44.64a1.133,1.133,0,0,0,.548,1.643l1.983.789a8.989,8.989,0,0,0-.746,2.145L38.3,48.1a1.133,1.133,0,0,0-1.388.462L30.694,58.742a9.079,9.079,0,0,0-1.931-1.184ZM25.04,72.62a6.8,6.8,0,1,1,6.8-6.8,6.8,6.8,0,0,1-6.8,6.8Zm21.531-10.2H33.442a9.059,9.059,0,0,0-1.12-1.993l6.026-9.869,2.571,1.027a9.082,9.082,0,0,0,5.652,7.905Zm3.4-4.533a6.8,6.8,0,1,1,6.8-6.8,6.8,6.8,0,0,1-6.8,6.8Zm15.936,6.8a18.5,18.5,0,0,0,0,2.266H63.569V64.688Zm4.462,5.666a1.133,1.133,0,0,0,1.168,1.133,1.16,1.16,0,0,0,1.1-1.153,1.117,1.117,0,0,1,1.1-1.078A1.16,1.16,0,0,1,74.9,70.475V81.686H58.266l-6.8-4.779a.984.984,0,0,1-.221-1.383h0a.984.984,0,0,1,1.314-.253l4.761,2.854a1.133,1.133,0,0,0,1.354-.142,1.173,1.173,0,0,0,.362-.865V61.328a1.16,1.16,0,0,1,1.056-1.171A1.135,1.135,0,0,1,61.3,61.288v9.025a1.16,1.16,0,0,0,1.075,1.172,1.133,1.133,0,0,0,1.192-1.092,1.178,1.178,0,0,1,1.015-1.167,1.135,1.135,0,0,1,1.252,1.094,1.17,1.17,0,0,0,1.013,1.16,1.133,1.133,0,0,0,1.253-1.1,1.166,1.166,0,0,1,1-1.153,1.134,1.134,0,0,1,1.268,1.125ZM69.243,58.737,63.029,48.56a1.133,1.133,0,0,0-1.388-.462l-2.8,1.119a8.989,8.989,0,0,0-.746-2.145l1.983-.789a1.133,1.133,0,0,0,.548-1.643L53.693,33.288A9.08,9.08,0,0,0,55.625,32.1l15.55,25.451a8.655,8.655,0,0,0-1.933,1.183Z" transform="translate(0 0)"/></g></svg>