<svg xmlns="http://www.w3.org/2000/svg" width="68" height="68" viewBox="0 0 68 68">
  <g id="customer" transform="translate(-1 -1)">
    <path id="Path_2143" data-name="Path 2143" d="M21.2,23H19a3.294,3.294,0,0,0,6.588,0h-2.2a1.1,1.1,0,0,1-2.2,0Z" transform="translate(1.74 2.128)"/>
    <path id="Path_2144" data-name="Path 2144" d="M66.806,17.966H36.1A2.2,2.2,0,0,0,33.9,20.16V53.393a3,3,0,0,0-1.476,1.724,3.92,3.92,0,0,1-1.98,2.283l-3.141.01a15.811,15.811,0,0,0-6.564-12.569V41.7l1.792-.162a7.64,7.64,0,0,0,6.982-7.645V31.805l2.194-1.1V30.03c0-3.592-1.925-7.634-2.858-9.386A7.67,7.67,0,0,0,24.032,7H18.914A17.911,17.911,0,0,0,8.165,39.24l1.609,1.207V44.4a5.494,5.494,0,0,0-4.387,5.372v9.87a8.784,8.784,0,0,0,8.774,8.773H66.806A2.2,2.2,0,0,0,69,66.219V20.16A2.2,2.2,0,0,0,66.806,17.966Zm0,2.193v6.58H36.1V20.16ZM25.114,57.417l-8.759.029V49.769a5.472,5.472,0,0,0-.114-1.112,5.026,5.026,0,0,0,3.679-1.723A13.64,13.64,0,0,1,25.114,57.417Zm4.377-28.052-2.168,1.083V33.32h-.838a2.855,2.855,0,0,1-2.568-1.587l-1.962.982a5.037,5.037,0,0,0,4.53,2.8h.574a5.435,5.435,0,0,1-4.723,3.838l-6.079.553.2,2.185,2.094-.191v3.163A2.84,2.84,0,0,1,16.1,46.479H15.23A5.474,5.474,0,0,0,11.968,44.4V32.771L8.605,30.249a2.558,2.558,0,0,1,1.534-4.606h1.521l.348-1.041a3.286,3.286,0,0,1,3.121-2.249h3.264a5.48,5.48,0,0,0,2.832-.8,5.422,5.422,0,0,0,2.807.8,7.637,7.637,0,0,0,2.932-.585,21.712,21.712,0,0,1,2.527,7.6ZM9.481,37.487A15.718,15.718,0,0,1,18.914,9.193h5.119a5.483,5.483,0,1,1,0,10.966,3.294,3.294,0,0,1-3.29-3.29,1.1,1.1,0,0,1,2.194,0v1.1h2.194v-1.1a3.29,3.29,0,0,0-6.581,0,5.446,5.446,0,0,0,.963,3.094,3.3,3.3,0,0,1-1.118.2H15.13A5.477,5.477,0,0,0,10.1,23.45,4.752,4.752,0,0,0,7.288,32l2.486,1.865v3.838Zm-1.9,22.152v-9.87a3.29,3.29,0,0,1,6.581,0v8.319L12.289,59.96l1.551,1.551,1.872-1.872h13.8v6.58H14.161A6.587,6.587,0,0,1,7.581,59.639Zm29.613,6.58H31.71V59.184a6.077,6.077,0,0,0,2.8-3.374.816.816,0,0,1,1.589.259v2.474l.035,1.089,1.088.008a3.29,3.29,0,0,1-.026,6.58Zm4.385,0A5.478,5.478,0,0,0,38.29,57.56V56.067a3.014,3.014,0,0,0-2.194-2.9V28.933h30.71V66.219Z" transform="translate(0 0.588)"/>
    <path id="Path_2145" data-name="Path 2145" d="M31.464,7.387l2.7,1.906-1.268,3.4a1.1,1.1,0,0,0,1.663,1.279l3.026-2.142,3.025,2.142a1.1,1.1,0,0,0,1.663-1.28l-1.268-3.4,2.07-1.458,2.069,1.459-1.268,3.4a1.1,1.1,0,0,0,1.663,1.279l3.026-2.142,3.025,2.142a1.1,1.1,0,0,0,1.663-1.28l-1.268-3.4,2.07-1.458,2.069,1.459-1.268,3.4a1.1,1.1,0,0,0,1.663,1.279l3.026-2.142,3.025,2.142a1.1,1.1,0,0,0,1.663-1.28l-1.268-3.4,2.7-1.906a1.1,1.1,0,0,0-.632-1.994H61.663L60.6,1.787a1.1,1.1,0,0,0-2.106,0l-1.064,3.6H50.684l-1.064-3.6a1.1,1.1,0,0,0-2.106,0l-1.064,3.6H39.7l-1.064-3.6a1.1,1.1,0,0,0-2.106,0l-1.064,3.6H32.1a1.1,1.1,0,0,0-.634,1.995Zm26.787.2A1.1,1.1,0,0,0,59.3,6.8l.243-.822.243.823a1.1,1.1,0,0,0,1.053.786h.732l-.565.4a1.1,1.1,0,0,0-.4,1.28l.318.855-.752-.533a1.1,1.1,0,0,0-1.268,0l-.752.533.318-.855a1.1,1.1,0,0,0-.4-1.28l-.565-.4Zm-10.979,0A1.1,1.1,0,0,0,48.325,6.8l.243-.822.243.823a1.1,1.1,0,0,0,1.053.786H50.6l-.565.4a1.1,1.1,0,0,0-.4,1.28l.318.855L49.2,9.589a1.1,1.1,0,0,0-1.268,0l-.752.533.318-.855a1.1,1.1,0,0,0-.4-1.28l-.565-.4Zm-10.979,0A1.1,1.1,0,0,0,37.345,6.8l.243-.822.243.823a1.1,1.1,0,0,0,1.053.786h.732l-.565.4a1.1,1.1,0,0,0-.4,1.28l.318.855-.752-.533a1.1,1.1,0,0,0-1.268,0l-.752.533.318-.855a1.1,1.1,0,0,0-.4-1.28l-.565-.4Z" transform="translate(2.866 0)"/>
    <path id="Path_2146" data-name="Path 2146" d="M58.612,43.375l-1.426,1.784H43V60.53H58.371V47.191l1.955-2.444Zm-2.436,14.96H45.2V47.355H55.429L50.594,53.4l-2.426-2.426-1.552,1.552,4.161,4.161,5.4-6.748Z" transform="translate(4.041 4.078)"/>
    <path id="Path_2147" data-name="Path 2147" d="M35,21h2.2v2.2H35Z" transform="translate(3.289 1.935)"/>
    <path id="Path_2148" data-name="Path 2148" d="M39,21h2.2v2.2H39Z" transform="translate(3.676 1.935)"/>
    <path id="Path_2149" data-name="Path 2149" d="M43,21h2.2v2.2H43Z" transform="translate(4.063 1.935)"/>
    <path id="Path_2150" data-name="Path 2150" d="M35,29h6.588v2.2H35Z" transform="translate(3.286 2.709)"/>
    <path id="Path_2151" data-name="Path 2151" d="M43,29H60.567v2.2H43Z" transform="translate(4.041 2.709)"/>
    <path id="Path_2152" data-name="Path 2152" d="M35,33h6.588v2.2H35Z" transform="translate(3.286 3.096)"/>
    <path id="Path_2153" data-name="Path 2153" d="M43,33H60.567v2.2H43Z" transform="translate(4.041 3.096)"/>
    <path id="Path_2154" data-name="Path 2154" d="M35,37H56.959v2.2H35Z" transform="translate(3.257 3.482)"/>
    <path id="Path_2155" data-name="Path 2155" d="M57,37h2.2v2.2H57Z" transform="translate(5.412 3.482)"/>
    <path id="Path_2156" data-name="Path 2156" d="M35,41H48.175v2.2H35Z" transform="translate(3.281 3.869)"/>
    <path id="Path_2157" data-name="Path 2157" d="M35,45h2.2v2.2H35Z" transform="translate(3.289 4.256)"/>
    <path id="Path_2158" data-name="Path 2158" d="M39,45h2.2v2.2H39Z" transform="translate(3.676 4.256)"/>
  </g>
</svg>
