<svg xmlns="http://www.w3.org/2000/svg" width="67.987" height="68" viewBox="0 0 67.987 68"><path d="M60.905,0H7.082A7.091,7.091,0,0,0,0,7.083V60.917A7.091,7.091,0,0,0,7.082,68H39.659V65.167H7.082a4.25,4.25,0,0,1-4.249-4.25V7.083a4.25,4.25,0,0,1,4.249-4.25H60.9a4.25,4.25,0,0,1,4.249,4.25v25.5h2.833V7.083A7.091,7.091,0,0,0,60.905,0Z"/><g transform="translate(5.666 11.333)"><rect width="56.656" height="2.833"/></g><g transform="translate(7.082 5.666)"><rect width="2.833" height="2.833"/></g><g transform="translate(12.748 5.666)"><rect width="2.833" height="2.833"/></g><g transform="translate(58.072 5.666)"><rect width="2.833" height="2.833"/></g><g transform="translate(53.823 38.251)"><rect width="2.833" height="9.915"/></g><g transform="translate(42.492 36.839)"><path d="M338.414,277.333H327.083A7.09,7.09,0,0,0,320,284.415v17a7.09,7.09,0,0,0,7.082,7.082h11.331a7.09,7.09,0,0,0,7.082-7.082v-17A7.091,7.091,0,0,0,338.414,277.333Zm4.249,24.079a4.249,4.249,0,0,1-4.249,4.249H327.083a4.249,4.249,0,0,1-4.249-4.249v-17a4.249,4.249,0,0,1,4.249-4.249h11.331a4.249,4.249,0,0,1,4.249,4.249Z" transform="translate(-320.001 -277.333)"/></g><g transform="translate(49.574 46.75)"><rect width="11.331" height="2.833"/></g><g transform="translate(8.498 22.668)"><path d="M75.331,176.332V173.5a2.833,2.833,0,0,0-2.833-2.833H66.833A2.833,2.833,0,0,0,64,173.5v14.164a2.833,2.833,0,0,0,2.833,2.833H72.5a2.833,2.833,0,0,0,2.833-2.833v-2.833H72.5v2.833H66.833V173.5H72.5v2.833Z" transform="translate(-64 -170.667)"/></g><g transform="translate(16.997 22.667)"><path d="M164.826,170.663H150.545a2.775,2.775,0,0,0-2.715,2.833v5.666H128v2.833h19.947a2.775,2.775,0,0,0,2.715-2.833V173.5h14.164v8.5h2.833v-8.5c0-.039,0-.078,0-.117A2.775,2.775,0,0,0,164.826,170.663Z" transform="translate(-128 -170.662)"/></g><g transform="translate(8.498 46.754)"><path d="M73.915,352h-8.5A1.417,1.417,0,0,0,64,353.416v8.5a1.416,1.416,0,0,0,1.416,1.416h8.5a1.416,1.416,0,0,0,1.416-1.416v-8.5A1.417,1.417,0,0,0,73.915,352ZM72.5,360.5H66.833v-5.666H72.5Z" transform="translate(-64 -352)"/></g><g transform="translate(24.079 46.754)"><path d="M191.248,352h-8.5a1.417,1.417,0,0,0-1.416,1.416v8.5a1.416,1.416,0,0,0,1.416,1.416h8.5a1.416,1.416,0,0,0,1.416-1.416v-8.5A1.417,1.417,0,0,0,191.248,352Zm-1.416,8.5h-5.666v-5.666h5.666Z" transform="translate(-181.333 -352)"/></g><g transform="translate(22.662 36.834)"><rect width="2.833" height="2.833"/></g><g transform="translate(22.662 25.5)"><rect width="2.833" height="2.833"/></g></svg>