<svg xmlns="http://www.w3.org/2000/svg" width="49.865" height="68.001" viewBox="0 0 49.865 68.001"><g transform="translate(-10 -1.999)"><path d="M47.934,48.213a24.966,24.966,0,0,0,11.9-22.539h0A24.933,24.933,0,0,0,10,26.933,24.767,24.767,0,0,0,21.954,48.225,5.688,5.688,0,0,1,24.733,53a3.4,3.4,0,0,0-3.4,3.4v4.533a3.4,3.4,0,0,0,3.4,3.4H27V66.6A3.4,3.4,0,0,0,30.4,70h9.067a3.4,3.4,0,0,0,3.4-3.4V64.333h2.267a3.4,3.4,0,0,0,3.4-3.4V56.4A3.4,3.4,0,0,0,45.139,53a5.715,5.715,0,0,1,2.795-4.787Zm9.633-22.427h0c.018.384.017.765.017,1.147H49.927a1.133,1.133,0,0,0-.84,1.894,2.243,2.243,0,0,1,.579,1.507,2.267,2.267,0,1,1-4.533,0,2.243,2.243,0,0,1,.579-1.506,1.133,1.133,0,0,0-.84-1.894H36.067V19.989a4.533,4.533,0,1,0,0-8.779V4.3h.148A22.856,22.856,0,0,1,57.572,25.785ZM19.353,10.468A22.451,22.451,0,0,1,33.8,4.3v8.774a1.133,1.133,0,0,0,1.894.84,2.244,2.244,0,0,1,1.506-.579,2.267,2.267,0,0,1,0,4.533,2.244,2.244,0,0,1-1.506-.579,1.133,1.133,0,0,0-1.894.84v8.806H26.856a4.533,4.533,0,1,0-8.779,0H12.267a22.463,22.463,0,0,1,7.087-16.465ZM12.389,29.2h7.55a1.133,1.133,0,0,0,.84-1.894A2.243,2.243,0,0,1,20.2,25.8a2.267,2.267,0,1,1,4.533,0,2.243,2.243,0,0,1-.579,1.506,1.133,1.133,0,0,0,.84,1.894H33.8v6.944a4.533,4.533,0,1,0,0,8.779V53H27a7.933,7.933,0,0,0-3.866-6.709A22.49,22.49,0,0,1,12.389,29.2ZM40.6,66.6a1.133,1.133,0,0,1-1.133,1.133H30.4A1.133,1.133,0,0,1,29.267,66.6V64.333H40.6Zm5.667-10.2v4.533a1.133,1.133,0,0,1-1.133,1.133h-20.4A1.133,1.133,0,0,1,23.6,60.933V56.4a1.133,1.133,0,0,1,1.133-1.133h20.4A1.133,1.133,0,0,1,46.267,56.4Zm-3.4-3.4h-6.8V43.061a1.133,1.133,0,0,0-1.894-.84,2.244,2.244,0,0,1-1.506.579,2.267,2.267,0,0,1,0-4.533,2.244,2.244,0,0,1,1.506.579,1.133,1.133,0,0,0,1.894-.84V29.2h6.944a4.533,4.533,0,1,0,8.779,0h5.686A22.682,22.682,0,0,1,46.752,46.279,7.967,7.967,0,0,0,42.867,53Z" transform="translate(0)"/></g></svg>