<svg xmlns="http://www.w3.org/2000/svg" width="13.5" height="18" viewBox="0 0 13.5 18"><defs><style>.a{fill:#f79421;}</style></defs><g transform="translate(-3)"><path class="a" d="M14.812,20.25H4.687A1.69,1.69,0,0,1,3,18.562V10.687A1.69,1.69,0,0,1,4.687,9H14.812A1.69,1.69,0,0,1,16.5,10.687v7.875A1.69,1.69,0,0,1,14.812,20.25ZM4.687,10.125a.563.563,0,0,0-.562.562v7.875a.563.563,0,0,0,.562.562H14.812a.563.563,0,0,0,.562-.562V10.687a.563.563,0,0,0-.562-.562Z" transform="translate(0 -2.25)"/><path class="a" d="M14.437,7.875a.563.563,0,0,1-.562-.562V4.5a3.375,3.375,0,0,0-6.75,0V7.312A.562.562,0,0,1,6,7.312V4.5a4.5,4.5,0,1,1,9,0V7.312A.563.563,0,0,1,14.437,7.875Z" transform="translate(-0.75)"/><path class="a" d="M11.5,16A1.5,1.5,0,1,1,13,14.5,1.5,1.5,0,0,1,11.5,16Zm0-1.875a.375.375,0,1,0,.375.375A.376.376,0,0,0,11.5,14.125Z" transform="translate(-1.75 -3.25)"/><path class="a" d="M11.812,18.937a.563.563,0,0,1-.562-.562V16.312a.562.562,0,0,1,1.125,0v2.062A.563.563,0,0,1,11.812,18.937Z" transform="translate(-2.063 -3.938)"/></g></svg>