<svg xmlns="http://www.w3.org/2000/svg" width="68.196" height="68" viewBox="0 0 68.196 68"><g transform="translate(-1 -1)"><path d="M47.584,14.292a3.292,3.292,0,1,0-3.292,3.292A3.3,3.3,0,0,0,47.584,14.292Zm-4.389,0a1.1,1.1,0,1,1,1.1,1.1A1.1,1.1,0,0,1,43.195,14.292Z" transform="translate(3.869 0.967)"/><path d="M62.419,66.806H60.226V47.065H53.645V66.806H51.452V51.452H44.871V66.806H42.677V55.839H36.1V66.806H30.613a4.36,4.36,0,0,0-1.164-2.953l-.366-3.838L45.968,43.131l4.387,4.387L63.516,34.357l4.066,4.066,1.614-11.3L57.9,28.741l4.066,4.066-11.61,11.61L45.968,40.03,28.812,57.186l-1.489-15.6V32.974l6.106.872A5.612,5.612,0,0,0,38.2,32.258l6.4-6.4a1.228,1.228,0,0,1,.276.761v2.9h6.581V26.622a1.481,1.481,0,0,1,2.423-1l2.039,2.048,4.659-4.659-2.048-2.038a1.383,1.383,0,0,1-.217-1.546,1.333,1.333,0,0,1,1.217-.877h2.894V11.968H59.525a1.36,1.36,0,0,1-1.237-.923,1.356,1.356,0,0,1,.237-1.5l2.048-2.039L55.913,2.847,53.875,4.895a1.385,1.385,0,0,1-1.546.217,1.333,1.333,0,0,1-.877-1.217V1H44.871V3.894a1.36,1.36,0,0,1-.923,1.237,1.36,1.36,0,0,1-1.5-.237L40.409,2.847,35.75,7.506,37.8,9.544a1.383,1.383,0,0,1,.217,1.546,1.333,1.333,0,0,1-1.217.877H33.9v6.581H36.8a1.357,1.357,0,0,1,1.236.923,1.437,1.437,0,0,1,.029,1.043L33.59,24.988l-9.743-2.923-.568-2.274a5.488,5.488,0,0,0,2.947-4.839v-6.3A5.458,5.458,0,0,0,28.419,4.29,3.294,3.294,0,0,0,25.129,1H18.347a9.67,9.67,0,0,0-5.363,17.715l2.275,1.517v1.824l-3,.667a8.721,8.721,0,0,0-6.871,8.565V44.871A4.342,4.342,0,0,0,6,47.065h-2.8A2.2,2.2,0,0,0,1,49.258v8.774a2.2,2.2,0,0,0,2.194,2.194h5.45L7.774,63.7a4.375,4.375,0,0,0-1.29,3.1A2.2,2.2,0,0,0,8.677,69h6.581a2.2,2.2,0,0,0,2.194-2.194,4.344,4.344,0,0,0-.941-2.682l1.068-4.273a2.193,2.193,0,0,0,.97-1.82V55.975l.247-.987,1.821,9.1a4.34,4.34,0,0,0-.971,2.717A2.2,2.2,0,0,0,21.839,69H69V42.677H62.419ZM66.61,29.712l-.579,4.058-3.479-3.479ZM43.186,24.166l-.509.509-2.836-2.836.509-.509a2.006,2.006,0,1,1,2.836,2.836Zm-.509-8.908a5.484,5.484,0,1,1,5.484,5.484A5.49,5.49,0,0,1,42.677,15.258Zm-5.88,1.1h-.7V14.161h.7a3.551,3.551,0,0,0,3.26-2.268,3.542,3.542,0,0,0-.711-3.9L38.857,7.5l1.55-1.55.487.489a3.555,3.555,0,0,0,3.94.7,3.53,3.53,0,0,0,2.231-3.242v-.7h2.194v.7a3.551,3.551,0,0,0,2.268,3.26,3.541,3.541,0,0,0,3.9-.711l.487-.489,1.55,1.55-.489.487a3.554,3.554,0,0,0-.7,3.94,3.53,3.53,0,0,0,3.242,2.231h.7v2.194h-.7a3.67,3.67,0,0,0-2.549,6.173l.489.487-1.55,1.55-.487-.489a3.668,3.668,0,0,0-6.17,2.547v.7H47.065v-.7a3.468,3.468,0,0,0-1.29-2.678,4.163,4.163,0,0,0,.193-1.2c0-.047-.012-.092-.014-.139A7.717,7.717,0,1,0,41.259,18.6a4.183,4.183,0,0,0-1.126.283c-.033-.1-.05-.2-.091-.294A3.535,3.535,0,0,0,36.8,16.355ZM18.891,25.43l-1.348,1.348-2.026-2.532.7-.155Zm4.357-1.256.985.3-.625,1.251-1.144-.762Zm.784-9.222a3.3,3.3,0,0,1-2.645,3.227l-1.958.392.431,2.151,1.324-.265L21.72,22.6l-1.2,1.2-3.073-1.538V10.871a1.1,1.1,0,0,1,1.1-1.1h4.387a5.479,5.479,0,0,0,1.1-.111ZM14.2,16.89a7.476,7.476,0,0,1,4.146-13.7h6.782a1.1,1.1,0,0,1,1.1,1.1,3.294,3.294,0,0,1-3.29,3.29H18.548a3.294,3.294,0,0,0-3.29,3.29V17.6Zm-1.467,7.974.4-.089,4.229,5.286,3.521-3.521,3.575,2.384,1.908-3.815,7.85,2.355L38.29,23.39l2.836,2.836-4.481,4.481a3.407,3.407,0,0,1-2.9.968l-6.418-.917V29.516H25.129l0,10.968H14.161V31.71H11.968V42.677H7.581V31.287a6.541,6.541,0,0,1,5.153-6.424ZM7.581,44.871h4.387a2.194,2.194,0,0,1-4.387,0ZM3.194,49.258H16.355v8.774H3.194ZM10.9,60.226h4.319L14.6,62.712a4.345,4.345,0,0,0-1.538-.293H10.871a4.172,4.172,0,0,0-.528.054ZM8.677,66.806a2.2,2.2,0,0,1,2.194-2.194h2.194a2.2,2.2,0,0,1,2.195,2.194Zm12.671-21.82a6.42,6.42,0,0,0-3.05,3.276,2.187,2.187,0,0,0-1.943-1.2h-2.8a4.342,4.342,0,0,0,.61-2.194V42.677H25.229l1.889,19.834a4.345,4.345,0,0,0-.892-.092H24.032a4.33,4.33,0,0,0-1.46.269L20.038,50.016l.077-.306a4.233,4.233,0,0,1,2.215-2.762Zm.49,21.82a2.2,2.2,0,0,1,2.194-2.194h2.194a2.2,2.2,0,0,1,2.194,2.194Zm34-17.548h2.194V66.806H55.839Zm-8.774,4.387h2.194V66.806H47.065ZM38.29,58.032h2.194v8.774H38.29ZM64.613,44.871h2.194V66.806H64.613Z" transform="translate(0 0)"/><path d="M41,29h2.195v2.195H41Z" transform="translate(3.87 2.709)"/><path d="M45,29h2.195v2.195H45Z" transform="translate(4.257 2.709)"/><path d="M49,29h2.195v2.195H49Z" transform="translate(4.644 2.709)"/><path d="M37,29h2.195v2.195H37Z" transform="translate(3.483 2.709)"/></g></svg>