<svg xmlns="http://www.w3.org/2000/svg" width="64.278" height="68.4" viewBox="0 0 64.278 68.4"><defs><style>.a{stroke:#fff;stroke-width:0.4px;}</style></defs><g transform="translate(0.2 0.2)"><g transform="translate(0 0)"><path class="a" d="M55.408,57.136a1.362,1.362,0,0,0-1.365,1.36v1.91H19.649v-5.99H38.893v.816a1.365,1.365,0,0,0,2.73,0V20.416a1.365,1.365,0,0,0-2.73,0v.816H19.649v-4.9H54.043v.686a1.365,1.365,0,0,0,2.73,0V9.536A3.546,3.546,0,0,0,53.224,6H20.467a3.546,3.546,0,0,0-3.549,3.536v11.7H9.549A3.546,3.546,0,0,0,6,24.768V50.88a3.546,3.546,0,0,0,3.549,3.536h7.37V70.464A3.546,3.546,0,0,0,20.467,74H53.224a3.546,3.546,0,0,0,3.549-3.536V58.5A1.362,1.362,0,0,0,55.408,57.136ZM19.649,9.536a.818.818,0,0,1,.819-.816H53.224a.818.818,0,0,1,.819.816V13.61H19.649ZM8.73,29.392H38.893V31.16H8.73Zm.819-5.44H38.893v2.72H8.73v-1.9A.818.818,0,0,1,9.549,23.952ZM8.73,50.88v-17H38.893V51.7H9.549A.818.818,0,0,1,8.73,50.88ZM54.043,70.464a.818.818,0,0,1-.819.816H20.467a.818.818,0,0,1-.819-.816V63.126H54.043Z" transform="translate(-6 -6)"/><path class="a" d="M198.428,448.7h6.835a1.341,1.341,0,1,0,0-2.683h-6.835a1.341,1.341,0,1,0,0,2.683Z" transform="translate(-171.036 -386.067)"/><path class="a" d="M39.341,236.975H54.634a1.341,1.341,0,0,0,1.341-1.341v-4.293A1.341,1.341,0,0,0,54.634,230H39.341A1.341,1.341,0,0,0,38,231.341v4.293A1.341,1.341,0,0,0,39.341,236.975Zm1.341-4.293H53.292v1.61H40.683Z" transform="translate(-33.707 -199.488)"/><path class="a" d="M52.548,302.341A1.341,1.341,0,0,0,51.207,301H40.341a1.341,1.341,0,1,0,0,2.683H51.207A1.341,1.341,0,0,0,52.548,302.341Z" transform="translate(-34.573 -260.857)"/><path class="a" d="M315.185,185.4a1.341,1.341,0,0,0,1.341-1.341v-.813a4.566,4.566,0,0,0,4.293-4.552v-.134A4.566,4.566,0,0,0,316.258,174h-2.28a1.878,1.878,0,0,1,0-3.756h3.328a.739.739,0,0,1,.738.771,1.341,1.341,0,1,0,2.68.115,3.421,3.421,0,0,0-3.418-3.568h-.78v-.8a1.341,1.341,0,0,0-2.683,0v.808a4.56,4.56,0,1,0,.134,9.119h2.28a1.88,1.88,0,0,1,1.878,1.878v.134a1.88,1.88,0,0,1-1.878,1.878h-3.382a.739.739,0,0,1-.739-.751l0-.139a1.342,1.342,0,0,0-2.683-.049l0,.14a3.422,3.422,0,0,0,3.421,3.484h.967v.8A1.341,1.341,0,0,0,315.185,185.4Z" transform="translate(-267.969 -143.61)"/><path class="a" d="M370.307,91.053h-9.639a1.341,1.341,0,0,0,0,2.683h9.639l-2,2a1.342,1.342,0,0,0,1.9,1.9l4.293-4.293a1.341,1.341,0,0,0,0-1.9L370.2,87.153a1.341,1.341,0,0,0-1.9,1.9Z" transform="translate(-311.058 -75.747)"/><path class="a" d="M313.741,121.444a1.341,1.341,0,1,0,0-2.683h-1.073a1.341,1.341,0,0,0,0,2.683Z" transform="translate(-269.766 -103.417)"/><path class="a" d="M369.875,310.393a1.341,1.341,0,1,0-1.9,1.9l2,2h-9.639a1.341,1.341,0,1,0,0,2.683h9.639l-2,2a1.341,1.341,0,0,0,1.9,1.9l4.293-4.293a1.341,1.341,0,0,0,0-1.9Z" transform="translate(-310.776 -268.542)"/><path class="a" d="M312.341,342a1.341,1.341,0,0,0,0,2.683h1.073a1.341,1.341,0,1,0,0-2.683Z" transform="translate(-269.484 -296.278)"/></g></g></svg>