<svg xmlns="http://www.w3.org/2000/svg" width="68.548" height="68" viewBox="0 0 68.548 68"><g transform="translate(0 -0.437)"><path d="M213.271,239.238c0-3.75-2.542-6.8-5.667-6.8s-5.667,3.05-5.667,6.8,2.542,6.8,5.667,6.8S213.271,242.988,213.271,239.238Zm-5.667,4.533c-1.875,0-3.4-2.033-3.4-4.533s1.525-4.533,3.4-4.533,3.4,2.033,3.4,4.533S209.479,243.771,207.6,243.771Zm0,0" transform="translate(-173.33 -199.134)"/><path d="M221.338,47.238a3.4,3.4,0,1,0-3.4-3.4A3.4,3.4,0,0,0,221.338,47.238Zm0-4.533a1.133,1.133,0,1,1-1.133,1.133A1.133,1.133,0,0,1,221.338,42.7Zm0,0" transform="translate(-187.063 -34.333)"/><path d="M178.563,11.657l1.474.737-.514,1.559a1.134,1.134,0,0,0,.273,1.16l1.6,1.6a1.134,1.134,0,0,0,1.159.273l1.566-.52.737,1.473a1.134,1.134,0,0,0,1.009.628h2.267a1.134,1.134,0,0,0,1.02-.627l.737-1.473,1.565.52a1.133,1.133,0,0,0,1.159-.273l1.6-1.6a1.133,1.133,0,0,0,.273-1.16l-.52-1.564,1.473-.738a1.135,1.135,0,0,0,.623-1.015V8.371a1.134,1.134,0,0,0-.627-1.014l-1.473-.737.513-1.565a1.133,1.133,0,0,0-.273-1.16l-1.6-1.6a1.133,1.133,0,0,0-1.159-.267l-1.565.52-.737-1.474a1.133,1.133,0,0,0-1.014-.633H185.87a1.132,1.132,0,0,0-1.014.626l-.737,1.474-1.565-.514a1.134,1.134,0,0,0-1.159.273l-1.6,1.6a1.133,1.133,0,0,0-.267,1.16l.52,1.565-1.474.737a1.133,1.133,0,0,0-.633,1.014v2.267a1.132,1.132,0,0,0,.626,1.02Zm1.64-2.587,1.473-.737a1.131,1.131,0,0,0,.553-.614c.042-.113.087-.227.136-.332a1.125,1.125,0,0,0,.042-.824L181.888,5l.612-.612,1.563.521a1.132,1.132,0,0,0,.831-.044c.1-.049.212-.092.322-.132a1.135,1.135,0,0,0,.618-.556l.737-1.473h.866l.737,1.473a1.137,1.137,0,0,0,.618.556c.113.04.217.084.322.132a1.149,1.149,0,0,0,.831.044l1.563-.521.612.612-.52,1.563a1.134,1.134,0,0,0,.044.83c.049.113.092.216.134.326a1.131,1.131,0,0,0,.553.614l1.474.737v.866l-1.474.738a1.133,1.133,0,0,0-.553.612c-.042.113-.087.227-.136.333a1.125,1.125,0,0,0-.042.824l.52,1.563-.612.612-1.563-.521a1.149,1.149,0,0,0-.831.044c-.1.049-.212.092-.322.133a1.133,1.133,0,0,0-.618.555l-.737,1.474h-.866l-.737-1.474a1.132,1.132,0,0,0-.618-.555c-.113-.041-.217-.084-.322-.133a1.135,1.135,0,0,0-.831-.044l-1.563.521-.612-.613.52-1.562a1.132,1.132,0,0,0-.045-.834c-.049-.1-.092-.213-.133-.322a1.133,1.133,0,0,0-.553-.614L180.2,9.937Zm0,0" transform="translate(-152.729 0)"/><path d="M45.337,135.238a3.4,3.4,0,1,0-3.4-3.4A3.4,3.4,0,0,0,45.337,135.238Zm0-4.533a1.133,1.133,0,1,1-1.133,1.133A1.133,1.133,0,0,1,45.337,130.7Zm0,0" transform="translate(-35.996 -109.867)"/><path d="M2.564,99.658l1.474.737-.514,1.559a1.134,1.134,0,0,0,.273,1.16l1.6,1.6a1.134,1.134,0,0,0,1.159.273l1.566-.52.737,1.473a1.134,1.134,0,0,0,1.009.628h2.267a1.135,1.135,0,0,0,1.014-.627l.737-1.473,1.565.52a1.133,1.133,0,0,0,1.159-.273l1.6-1.6a1.133,1.133,0,0,0,.273-1.16l-.52-1.564,1.473-.738a1.135,1.135,0,0,0,.628-1.015V96.371a1.134,1.134,0,0,0-.627-1.014l-1.473-.737.52-1.565a1.133,1.133,0,0,0-.273-1.16l-1.6-1.6a1.132,1.132,0,0,0-1.159-.273l-1.565.52-.737-1.474a1.133,1.133,0,0,0-1.015-.628H9.871a1.132,1.132,0,0,0-1.014.626l-.737,1.474-1.565-.514a1.134,1.134,0,0,0-1.159.273l-1.6,1.6a1.133,1.133,0,0,0-.267,1.16l.52,1.565-1.474.737a1.133,1.133,0,0,0-.633,1.014v2.267a1.132,1.132,0,0,0,.626,1.02ZM4.2,97.071l1.473-.737a1.131,1.131,0,0,0,.553-.614c.042-.113.087-.227.136-.332a1.125,1.125,0,0,0,.042-.824L5.888,93l.612-.612,1.563.521a1.132,1.132,0,0,0,.831-.044c.1-.049.212-.092.322-.132a1.135,1.135,0,0,0,.618-.556l.737-1.473h.866l.737,1.473a1.137,1.137,0,0,0,.618.556c.113.04.217.084.322.132a1.149,1.149,0,0,0,.831.044l1.563-.521.612.612-.52,1.563a1.134,1.134,0,0,0,.044.83c.049.108.092.216.134.326a1.131,1.131,0,0,0,.553.614l1.474.737v.866l-1.474.738a1.133,1.133,0,0,0-.553.612c-.042.113-.087.227-.136.333a1.125,1.125,0,0,0-.042.824l.52,1.563-.612.612-1.563-.521a1.149,1.149,0,0,0-.831.044c-.1.049-.212.092-.322.133a1.133,1.133,0,0,0-.618.555l-.737,1.474h-.865l-.737-1.474a1.132,1.132,0,0,0-.618-.555c-.113-.041-.217-.084-.322-.133a1.135,1.135,0,0,0-.831-.044l-1.563.521-.612-.613.52-1.562a1.132,1.132,0,0,0-.045-.834c-.049-.1-.092-.213-.133-.322a1.133,1.133,0,0,0-.553-.614L4.2,97.937Zm0,0" transform="translate(-1.663 -75.534)"/><path d="M393.938,131.838a3.4,3.4,0,1,0,3.4-3.4A3.4,3.4,0,0,0,393.938,131.838Zm4.533,0a1.133,1.133,0,1,1-1.133-1.133A1.133,1.133,0,0,1,398.471,131.838Zm0,0" transform="translate(-338.13 -109.867)"/><path d="M361.871,88.437a1.133,1.133,0,0,0-1.02.626l-.737,1.474-1.559-.514a1.134,1.134,0,0,0-1.159.273l-1.6,1.6a1.133,1.133,0,0,0-.273,1.16l.52,1.565-1.474.737a1.133,1.133,0,0,0-.628,1.014v2.267a1.133,1.133,0,0,0,.626,1.014l1.474.738-.52,1.564a1.132,1.132,0,0,0,.273,1.16l1.6,1.6a1.134,1.134,0,0,0,1.159.273l1.565-.52.737,1.473a1.133,1.133,0,0,0,1.016.628h2.267a1.134,1.134,0,0,0,1.02-.627l.737-1.473,1.565.52a1.133,1.133,0,0,0,1.159-.273l1.6-1.6a1.133,1.133,0,0,0,.273-1.16l-.52-1.564,1.473-.738a1.135,1.135,0,0,0,.623-1.015V96.371a1.134,1.134,0,0,0-.627-1.014l-1.473-.737.52-1.565a1.133,1.133,0,0,0-.273-1.16l-1.6-1.6a1.132,1.132,0,0,0-1.159-.273l-1.565.52-.737-1.474a1.133,1.133,0,0,0-1.015-.628Zm2.92,4.3c.113.04.218.084.322.132a1.149,1.149,0,0,0,.831.044l1.563-.521.612.612-.52,1.563a1.134,1.134,0,0,0,.044.83c.049.108.092.216.134.326a1.131,1.131,0,0,0,.553.614l1.474.737v.866l-1.474.738a1.133,1.133,0,0,0-.553.612c-.041.113-.084.219-.133.325a1.124,1.124,0,0,0-.045.832l.52,1.563-.612.612-1.563-.521a1.149,1.149,0,0,0-.831.044c-.1.049-.212.092-.322.133a1.134,1.134,0,0,0-.618.555l-.737,1.474h-.866l-.737-1.474a1.132,1.132,0,0,0-.618-.555c-.113-.041-.217-.084-.322-.133a1.135,1.135,0,0,0-.831-.044l-1.563.521-.612-.612.52-1.563a1.125,1.125,0,0,0-.042-.824c-.049-.113-.094-.226-.136-.333a1.133,1.133,0,0,0-.553-.612l-1.474-.738v-.866l1.473-.737a1.131,1.131,0,0,0,.553-.614c.043-.113.089-.227.137-.333a1.133,1.133,0,0,0,.041-.823L357.889,93l.612-.612,1.563.521a1.132,1.132,0,0,0,.831-.044c.1-.049.212-.092.322-.132a1.135,1.135,0,0,0,.618-.556l.737-1.473h.866l.737,1.473A1.135,1.135,0,0,0,364.792,92.734Zm0,0" transform="translate(-303.797 -75.533)"/><path d="M121.338,302.572l-10.13,3.485H93.453L83.391,302.6a2.984,2.984,0,0,0-3.853,1.511,2.852,2.852,0,0,0-.249,1.146,2.894,2.894,0,0,0,1.805,2.658l10.722,4.437.32.453v13.654a1.133,1.133,0,0,0,1.133,1.133H111.4a1.133,1.133,0,0,0,1.133-1.133V312.8l.319-.453,10.725-4.438a2.9,2.9,0,0,0,1.6-1.611,2.812,2.812,0,0,0-.048-2.2,2.963,2.963,0,0,0-3.787-1.528Zm1.733,2.893a.657.657,0,0,1-.361.355l-11.026,4.563a1.143,1.143,0,0,0-.493.394l-.715,1.02a1.121,1.121,0,0,0-.208.652v12.875H94.4v-12.88a1.132,1.132,0,0,0-.208-.653l-.715-1.02a1.146,1.146,0,0,0-.493-.394L81.96,305.816a.624.624,0,0,1-.411-.567.585.585,0,0,1,.056-.226.726.726,0,0,1,.981-.31L92.9,308.26a1.167,1.167,0,0,0,.364.064H111.4a1.156,1.156,0,0,0,.368-.061l10.376-3.573a.7.7,0,0,1,.914.34.559.559,0,0,1,.015.436Zm0,0" transform="translate(-68.056 -259.153)"/><path d="M273.938,440.438H276.2V442.7h-2.267Zm0,0" transform="translate(-235.13 -377.667)"/><path d="M249.938,440.438H252.2V442.7h-2.267Zm0,0" transform="translate(-214.53 -377.667)"/><path d="M273.938,416.438H276.2V418.7h-2.267Zm0,0" transform="translate(-235.13 -357.067)"/><path d="M10.425,227.771a6.017,6.017,0,0,1-5.688-3.8,5.79,5.79,0,0,1,.158-4.23L6.132,221.6l1.886-1.258-2.267-3.4a1.133,1.133,0,0,0-.9-.5,1.167,1.167,0,0,0-.309.064l-.007-.03L0,217.605l.548,2.2,2.106-.526a7.9,7.9,0,0,0-.039,5.488,8.291,8.291,0,0,0,7.81,5.272h.058l-.016-2.267Zm0,0" transform="translate(0 -185.4)"/><path d="M420.361,217.6l-4.533-1.133-.008.03a1.176,1.176,0,0,0-.308-.064,1.133,1.133,0,0,0-.907.5l-2.267,3.4,1.886,1.258,1.237-1.855a5.793,5.793,0,0,1,.158,4.231,6.018,6.018,0,0,1-5.682,3.8h-.042l-.016,2.267h.058a8.292,8.292,0,0,0,7.812-5.27,7.908,7.908,0,0,0-.04-5.49l2.1.526Zm0,0" transform="translate(-351.813 -185.4)"/><path d="M60.2,58.7H73.8V56.438H59.071a1.133,1.133,0,0,0-1.133,1.133v2.267H60.2Zm0,0" transform="translate(-49.73 -48.067)"/><path d="M327.538,59.837H329.8V57.571a1.133,1.133,0,0,0-1.133-1.133H313.938V58.7h13.6Zm0,0" transform="translate(-269.463 -48.067)"/></g></svg>