<svg xmlns="http://www.w3.org/2000/svg" width="40.743" height="68" viewBox="0 0 40.743 68"><path d="M140.021,4.543H124.05V1.065a1.065,1.065,0,0,0-2.13,0V4.543H105.95a3.34,3.34,0,0,0-3.336,3.336V48.764A3.34,3.34,0,0,0,105.95,52.1h5.2l-6.178,14.415a1.065,1.065,0,1,0,1.957.839l3.617-8.44h24.879l3.617,8.44A1.065,1.065,0,0,0,141,66.516L134.821,52.1h5.2a3.34,3.34,0,0,0,3.336-3.336V7.879A3.339,3.339,0,0,0,140.021,4.543ZM111.459,56.785l2.008-4.685H132.5l2.008,4.685Zm29.769-8.021a1.208,1.208,0,0,1-1.207,1.207H105.95a1.208,1.208,0,0,1-1.207-1.207V7.879a1.208,1.208,0,0,1,1.207-1.207h34.071a1.208,1.208,0,0,1,1.207,1.207Z" transform="translate(-102.614)"/><g transform="translate(4.514 15.95)"><path d="M168.531,120.668c0-.015,0-.03-.006-.044s-.005-.039-.009-.058-.008-.034-.012-.051-.008-.033-.013-.049-.011-.033-.017-.049-.011-.033-.018-.049-.014-.03-.021-.045-.015-.033-.024-.049-.017-.028-.025-.042-.018-.031-.028-.046-.022-.031-.034-.046-.018-.025-.028-.037a1.065,1.065,0,0,0-.149-.148c-.012-.01-.024-.018-.037-.027s-.031-.024-.047-.034l-.045-.027-.045-.026-.047-.022-.048-.022-.046-.017-.052-.018-.046-.012-.055-.013-.052-.008-.051-.007c-.031,0-.061,0-.092,0h-5.7a1.058,1.058,0,1,0,0,2.116h3.114L153.131,133.5a.072.072,0,0,1-.1,0l-2.942-2.918a2.217,2.217,0,0,0-3.118,0l-9.838,9.757a1.052,1.052,0,0,0,0,1.5,1.073,1.073,0,0,0,1.508,0l9.838-9.757a.072.072,0,0,1,.1,0l2.942,2.918a2.22,2.22,0,0,0,3.118,0L166.4,123.326v3.088a1.067,1.067,0,0,0,2.133,0v-5.642C168.536,120.737,168.534,120.7,168.531,120.668Z" transform="translate(-136.821 -119.714)"/></g><g transform="translate(19.314 35.246)"><path d="M249.041,265.084a1.058,1.058,0,0,0-1.058,1.058v7.9a1.058,1.058,0,1,0,2.116,0v-7.9A1.058,1.058,0,0,0,249.041,265.084Z" transform="translate(-247.983 -265.084)"/></g><g transform="translate(14.769 32.982)"><path d="M214.837,247.982a1.058,1.058,0,0,0-1.058,1.058V259.2a1.058,1.058,0,1,0,2.116,0V249.04A1.058,1.058,0,0,0,214.837,247.982Z" transform="translate(-213.779 -247.982)"/></g><g transform="translate(23.858 32.982)"><path d="M283.245,247.982a1.058,1.058,0,0,0-1.058,1.058V259.2a1.058,1.058,0,1,0,2.116,0V249.04A1.058,1.058,0,0,0,283.245,247.982Z" transform="translate(-282.187 -247.982)"/></g><g transform="translate(28.402 28.452)"><path d="M317.45,213.778a1.058,1.058,0,0,0-1.058,1.058v14.67a1.058,1.058,0,0,0,2.116,0v-14.67A1.058,1.058,0,0,0,317.45,213.778Z" transform="translate(-316.392 -213.778)"/></g><g transform="translate(32.985 26.186)"><path d="M351.654,196.676a1.058,1.058,0,0,0-1.058,1.058v16.927a1.058,1.058,0,1,0,2.116,0V197.734A1.058,1.058,0,0,0,351.654,196.676Z" transform="translate(-350.596 -196.676)"/></g><g transform="translate(10.225 37.509)"><path d="M180.632,282.187a1.058,1.058,0,0,0-1.058,1.058v5.642a1.058,1.058,0,0,0,2.116,0v-5.642A1.058,1.058,0,0,0,180.632,282.187Z" transform="translate(-179.574 -282.187)"/></g><g transform="translate(5.642 40.903)"><path d="M146.428,307.84a1.058,1.058,0,0,0-1.058,1.058v2.257a1.058,1.058,0,0,0,2.116,0V308.9A1.058,1.058,0,0,0,146.428,307.84Z" transform="translate(-145.37 -307.84)"/></g><g transform="translate(9.158 11.284)"><path d="M192.393,85.511H172.081a1.058,1.058,0,0,0,0,2.116h20.312a1.058,1.058,0,0,0,0-2.116Z" transform="translate(-171.023 -85.511)"/></g><g transform="translate(14.8 15.903)"><path d="M223.863,119.716h-9.028a1.058,1.058,0,0,0,0,2.116h9.028a1.058,1.058,0,1,0,0-2.116Z" transform="translate(-213.778 -119.716)"/></g></svg>