<svg xmlns="http://www.w3.org/2000/svg" width="68.006" height="68" viewBox="0 0 68.006 68"><defs><style>.a{fill-rule:evenodd;}</style></defs><g transform="translate(0 0)"><path class="a" d="M236.826,195.217l18.989,28.029H217.831c.125-.467,2.97-4.52,3.48-5.286.417-.629.784-1.114,1.2-1.725ZM234.865,157.5h4.016a32.626,32.626,0,0,1,7.054,1.114,34.352,34.352,0,0,1,10.908,5.3l6.238,5.846a35.232,35.232,0,0,1,3.269,4.7,24.279,24.279,0,0,1,1.363,2.621c1.743,4.19,3.113,8.063,3.113,12.956v.38a1.922,1.922,0,0,1-.822,1.725,2.3,2.3,0,0,1-1.569.554c-2.36,0-4.508.436-5.392-1.382-.311-.654-.224-4.651-1.725-8.635a26.161,26.161,0,0,0-10.908-13.4c-.785-.473-1.413-.778-2.254-1.2-8.436-4.24-19.823-3.219-27.183,2.8l-1.855,1.594a22.32,22.32,0,0,0-3.711,4.265,29.045,29.045,0,0,0-1.693,2.814c.685.019,10.292,2.87,11.213,3.132,1.93.548,3.667,1.058,5.578,1.594,6.064,1.712,2.783.455,5.653.455h1.326c2.932,0,6.114,3.188,6.114,6.108v1.332a6.755,6.755,0,0,1-2.658,4.782c.554,1.046,12.346,18.18,14.37,21.224.722,1.077,3.032,3.941,3.032,5.074,0,1.326-.691,2.254-1.992,2.254H217.3a1.944,1.944,0,0,1-1.992-1.992,3.273,3.273,0,0,1,.928-2.254c.374-.529.71-1,1.09-1.569.392-.591.71-1.065,1.114-1.675.392-.591.7-.984,1.09-1.563s.722-1.09,1.114-1.675l11-16.231a13.886,13.886,0,0,0,1.058-1.594,6.991,6.991,0,0,1-1.949-2.3c-.716-1.339.081-.977-1.413-1.774l-8.984-4.825c-1.2-.623-7.745-4.234-8.374-4.383-.2.872-.473,1.65-.654,2.534a23.814,23.814,0,0,0-.411,2.777,5.668,5.668,0,0,1-.523,2.671,2.418,2.418,0,0,1-2,1.052c-1.806,0-3.86.3-4.819-.623a1.9,1.9,0,0,1-.76-1.407v-.89a33.51,33.51,0,0,1,3.194-12.882,35.646,35.646,0,0,1,4.738-7.353c.654-.816,1.332-1.326,1.918-2.061a17.012,17.012,0,0,1,2.123-1.992l2.241-1.75c.76-.535,1.575-1.114,2.4-1.588a35.674,35.674,0,0,1,8.386-3.561,33.422,33.422,0,0,1,7.048-1.09Zm-2.559,34c0-3.748,4.707-6.114,7.608-3.225,2.82,2.814.741,6.363-.436,6.68-.112-.417-1.264-2.391-2.652-2.391-1.283,0-1.768,1.033-2.167,1.556a2.023,2.023,0,0,0-.492.834C233.1,194.669,232.306,192.558,232.306,191.5Zm-17.794-9.3a10.706,10.706,0,0,1,2.123.529l6.407,1.83c1.444.411,2.845.8,4.234,1.208.741.218,1.407.386,2.16.629a14.926,14.926,0,0,0,2.21.585,7.456,7.456,0,0,0-1.594,3.586,14.647,14.647,0,0,1-1.936-.99Zm0,0-.286-.075Zm43.3-9.961,2.229-2.291a20.818,20.818,0,0,1,3.138,3.829,34.9,34.9,0,0,1,2.515,4.526,29.373,29.373,0,0,1,2.746,12h-3.318a26.476,26.476,0,0,0-2.434-10.584c-2.235-4.794-4.377-6.543-4.875-7.477Zm-48.077,8.5c0,2.241.548.517-.05,2.478-.218.7-.367,1.251-.535,1.986a19.075,19.075,0,0,0-.61,5.1H205.08c.268-1.152.218-3.567.9-6.27a31.283,31.283,0,0,1,4.327-10.011,23.442,23.442,0,0,1,3.269-4.041l2.36,2.291a45.8,45.8,0,0,0-3.81,5.286c-.7,1.208-.324,1.251-1.183,1.613A1.767,1.767,0,0,0,209.731,180.742Zm28.291-20.851a31.341,31.341,0,0,1,18.429,6.668,9.6,9.6,0,0,1,1.893,1.7l-2.229,2.291-3.511-2.665a24.95,24.95,0,0,0-4.016-2.229,26.676,26.676,0,0,0-10.566-2.447Zm-20.459,10.758-2.285-2.36c1.1-1.606,6.512-4.862,8.355-5.647a30.263,30.263,0,0,1,12-2.752v3.318a27.7,27.7,0,0,0-14.457,4.676c-.685.461-1.214.809-1.855,1.332Z" transform="translate(-202.82 -157.5)"/><path class="a" d="M255.52,228.07v12.056a1.193,1.193,0,1,0,2.384,0V227.809C257.9,226.362,255.52,225.977,255.52,228.07Z" transform="translate(-222.706 -183.61)"/><path class="a" d="M255.519,255.379c0,.658-.112,1.987,1.192,1.987,1.695,0,1.614-3.446,0-3.446C255.9,253.92,255.519,254.553,255.519,255.379Z" transform="translate(-222.704 -193.866)"/></g></svg>