<svg xmlns="http://www.w3.org/2000/svg" width="68" height="68" viewBox="0 0 68 68"><path d="M67.611,37.137a1.328,1.328,0,0,0-1.2-.363l-6.379,1.284V15.141a3.989,3.989,0,0,0-3.984-3.984H49.8V6.176a3.524,3.524,0,0,0-3.52-3.52H44.4A3.991,3.991,0,0,0,40.641,0H19.391a3.991,3.991,0,0,0-3.756,2.656H13.746a3.524,3.524,0,0,0-3.52,3.52v4.98H3.984A3.989,3.989,0,0,0,0,15.141v38.25a3.989,3.989,0,0,0,3.984,3.984H8.5a1.328,1.328,0,1,0,0-2.656H3.984a1.33,1.33,0,0,1-1.328-1.328v-21.9a5.788,5.788,0,0,0,2.428.894l15.635,2v1.487A1.328,1.328,0,0,0,22.047,37.2h1.328v2.523a6.641,6.641,0,0,0,13.281,0V37.2h1.328a1.328,1.328,0,0,0,1.328-1.328V34.389l15.635-2a5.787,5.787,0,0,0,2.428-.894v7.1l-2.411.485a1.328,1.328,0,0,0-.677,2.241l1.549,1.549-6.078,6.078L45.052,44.24a1.328,1.328,0,0,0-1.878,0L32.7,54.719H19.125a1.328,1.328,0,1,0,0,2.656H30.039L27.68,59.734l-2.189,2.19a1.328,1.328,0,0,0,0,1.878L29.3,67.611a1.328,1.328,0,0,0,1.878,0L34.3,64.494l7.119-7.119h5.4l2.006,2.006a1.328,1.328,0,0,0,1.878,0L52.7,57.375h3.344a3.989,3.989,0,0,0,3.984-3.984V50.047l1.491-1.492,1.906,1.906a1.328,1.328,0,0,0,2.241-.677l2.3-11.446A1.328,1.328,0,0,0,67.611,37.137ZM19.391,2.656h21.25a1.328,1.328,0,0,1,0,2.656H19.391a1.328,1.328,0,0,1,0-2.656Zm-6.508,3.52a.864.864,0,0,1,.863-.863h1.889a3.991,3.991,0,0,0,3.756,2.656h21.25A3.991,3.991,0,0,0,44.4,5.313h1.889a.864.864,0,0,1,.863.863v4.98H12.883ZM34,39.728a3.984,3.984,0,1,1-7.969,0V37.2H34Zm2.656-5.18H23.375V31.892H36.656Zm17.953-4.8-15.3,1.961V30.564a1.328,1.328,0,0,0-1.328-1.328H22.047a1.328,1.328,0,0,0-1.328,1.328v1.147L5.422,29.75a3.175,3.175,0,0,1-2.766-3.143V19.125H12.02a1.328,1.328,0,0,0,0-2.656H2.656V15.141a1.33,1.33,0,0,1,1.328-1.328H56.047a1.33,1.33,0,0,1,1.328,1.328V26.607A3.175,3.175,0,0,1,54.609,29.75ZM44.071,54.719l.042-.042.042.042Zm13.3-1.328a1.33,1.33,0,0,1-1.328,1.328h-.688L57.375,52.7Zm6.18-6.56-1.093-1.093a1.328,1.328,0,0,0-1.878,0L49.757,56.564l-4.705-4.705a1.328,1.328,0,0,0-1.878,0L32.417,62.616l-2.178,2.178-1.931-1.931,1.25-1.25L44.113,47.057l4.705,4.705a1.328,1.328,0,0,0,1.878,0l7.956-7.956a1.328,1.328,0,0,0,0-1.878l-.736-.736,1.048-.211.011,0,6-1.208Z"/><path d="M95.332,412a1.332,1.332,0,1,0,.941.39A1.342,1.342,0,0,0,95.332,412Z" transform="translate(-81.517 -357.315)"/><path d="M121.832,124a1.332,1.332,0,1,0,.941.39A1.342,1.342,0,0,0,121.832,124Z" transform="translate(-104.498 -107.533)"/></svg>