<svg xmlns="http://www.w3.org/2000/svg" width="68" height="68" viewBox="0 0 68 68"><g transform="translate(-2 -2)"><path d="M43.618,19.15,28.293,34.476,19.421,25.6l-1.613,1.613L27.487,36.9a1.141,1.141,0,0,0,1.613,0L45.231,20.763Z" transform="translate(2.03 2.242)"/><path d="M62.067,45.067h-.823A9.055,9.055,0,0,0,64.255,39.4h.078a3.39,3.39,0,0,0,2.017-6.12,1.108,1.108,0,0,0,.249-.68V31.467a11.353,11.353,0,0,0-7.933-10.811V11.067a1.133,1.133,0,0,0-.816-1.088l-27.2-7.933a1.14,1.14,0,0,0-.635,0L2.816,9.979A1.133,1.133,0,0,0,2,11.067v20.4a25.7,25.7,0,0,0,7.584,18.22L29.531,69.667a1.133,1.133,0,0,0,1.6,0l9.4-9.414v8.613A1.133,1.133,0,0,0,41.667,70h27.2A1.133,1.133,0,0,0,70,68.867V53a7.942,7.942,0,0,0-7.933-7.933Zm-7.933,7.341,1.133-.453,1.133.453V61.6l-1.133,1.133L54.134,61.6Zm1.555-2.727a1.141,1.141,0,0,0-.843,0l-.712.286V47.333H56.4v2.633ZM41.1,50.069,30.333,60.849,14.4,44.88A18.937,18.937,0,0,1,8.8,31.467V15.317L30.333,9.04l21.533,6.276v5.339a11.353,11.353,0,0,0-7.933,10.811V32.6a1.108,1.108,0,0,0,.249.68A3.39,3.39,0,0,0,46.2,39.4h.078a9.055,9.055,0,0,0,3.011,5.667h-.823a7.941,7.941,0,0,0-7.367,5Zm5.1-12.936a1.133,1.133,0,0,1,0-2.267Zm4.533,10.2h1.133v3.539l-1.133.453Zm7.933,0H59.8v3.993l-1.133-.453Zm3.4-9.067a6.8,6.8,0,1,1-13.6,0V33.336l8.9-3.953,4.7,3.762Zm2.267-1.133V34.867a1.133,1.133,0,0,1,0,2.267Zm0-5.667H63.6l-5.356-4.285a1.133,1.133,0,0,0-1.168-.151l-9.981,4.436H46.2a9.067,9.067,0,1,1,18.133,0Zm-34,35.8L11.19,48.087a23.444,23.444,0,0,1-6.924-16.62V11.917l26.067-7.6,26.067,7.6V20.19a11.139,11.139,0,0,0-2.267,0V14.467a1.133,1.133,0,0,0-.816-1.088L30.651,6.771a1.14,1.14,0,0,0-.635,0L7.349,13.379a1.133,1.133,0,0,0-.816,1.088v17a21.193,21.193,0,0,0,6.258,15.012L29.531,63.252a1.133,1.133,0,0,0,.8.333h0a1.14,1.14,0,0,0,.8-.332l9.4-9.408v3.2Zm37.4.47H65.467V55.267H63.2V67.734H47.334V55.267H45.067V67.734H42.8V53a5.673,5.673,0,0,1,5.667-5.667V53a1.133,1.133,0,0,0,1.555,1.053l1.845-.739v8.753a1.133,1.133,0,0,0,.332.8l2.267,2.267a1.133,1.133,0,0,0,1.6,0l2.267-2.267a1.133,1.133,0,0,0,.332-.8V53.314l1.845.739A1.133,1.133,0,0,0,62.067,53V47.333A5.673,5.673,0,0,1,67.734,53Z" transform="translate(0 0)"/></g></svg>