<svg xmlns="http://www.w3.org/2000/svg" width="68" height="68" viewBox="0 0 68 68"><defs><style>.a{fill-rule:evenodd;}</style></defs><g transform="translate(-203.665 -200.665)"><g transform="translate(203.665 200.665)"><path class="a" d="M252.938,252.063l2.093-2.157c.438.14,3.974,2.955,4.453,3.315,1.5,1.127,2.875,2.222,4.364,3.339l2.181,1.671c1.486,1.121,3.344,2.2,3.345,4.323a3.739,3.739,0,0,1-6.443,2.627Zm-22.109-51.4h4.711c4.97,0,11.322,2.828,15.312,5.805a24.235,24.235,0,0,1,3.647,3.259c7.9,7.874,10.093,20.426,6.257,30.76-1.424,3.836-2.279,4.674-4.231,7.589.712.377,8.239,6.243,9.372,7.1l3.095,2.351a6.023,6.023,0,0,1,2.674,5.56c0,2.982-2.687,5.365-5.671,5.578h-.852a6.229,6.229,0,0,1-4.616-2.674c-.545-.735-1.073-1.4-1.613-2.106-.52-.68-1.024-1.32-1.555-2.031l-6.28-8.33c-2.808,1.88-4.041,2.958-7.686,4.267a29.532,29.532,0,0,1-22.216-.662,26.755,26.755,0,0,1-4.55-2.489c-.777-.517-1.354-.978-2.054-1.532a31.054,31.054,0,0,1-5.161-5.332,29.119,29.119,0,0,1-2.693-4.346,32.212,32.212,0,0,1-2.009-5.03,21.968,21.968,0,0,1-1.045-6.254v-4.521a24.365,24.365,0,0,1,1.014-5.76A29.408,29.408,0,0,1,206.587,217a28.827,28.827,0,0,1,5.611-7.8,29.575,29.575,0,0,1,12.771-7.549,22.992,22.992,0,0,1,5.859-.984Zm29.414,28.156c0,5.226-.392,8.281-2.567,12.972a27.473,27.473,0,0,1-8.875,10.516,26.806,26.806,0,0,1-14.589,4.934c-5.619,0-9.179-.707-13.947-3.186a29.026,29.026,0,0,1-4.422-3.015c-.291-.245-.368-.256-.659-.537-.252-.244-.4-.436-.667-.661a5.083,5.083,0,0,1-.66-.536l-2.887-3.488c-.328-.464-.7-.993-1.008-1.515a27.169,27.169,0,0,1,3.9-33.315c7.968-7.966,19.141-10.109,29.841-5.868a27.5,27.5,0,0,1,8.943,6.065,5.7,5.7,0,0,1,.542.653c1.93,2.411,1.66,1.571,3.733,5.166a27.659,27.659,0,0,1,3.326,11.815Z" transform="translate(-203.665 -200.665)"/><path class="a" d="M261.033,235.718c0,1.744,2.336,1.234,4.326,1.472a23.031,23.031,0,0,1,4.719,1.211,22.336,22.336,0,0,1,3.9,1.9,23.022,23.022,0,0,1,7.313,7.315c.407.684.688,1.267,1.068,1.963,3.07,5.619,2.844,13.344.289,19.079-1.454,3.263-2.193,3.675-3.82,5.8a6.307,6.307,0,0,1-.692.758,22.464,22.464,0,0,1-25.143,4.651,21.368,21.368,0,0,1-6.353-4.321,21.131,21.131,0,0,1-6-9.944,21.931,21.931,0,0,1-.83-6.959,21.4,21.4,0,0,1,2.917-10.4,24.117,24.117,0,0,1,2.215-3.188c.23-.283.38-.382.623-.7a20.341,20.341,0,0,1,3.461-3.128,22.691,22.691,0,0,1,5.236-2.8c2.146-.821,3.482-.685,3.482-1.92,0-2.3-3.939-.475-5.1.044a30.39,30.39,0,0,0-3.478,1.793l-3.054,2.217c-.494.441-.917.78-1.386,1.249-.5.5-.766.883-1.253,1.383a25.424,25.424,0,0,0-4.055,6.488,24.89,24.89,0,0,0,3.864,25.794l2.233,2.247c.316.281.423.433.758.692a24.6,24.6,0,0,0,7.726,4.4c6.057,2,12.867,1.982,18.589-.883a26.834,26.834,0,0,0,6.4-4.272c.3-.3.493-.5.789-.793a24.747,24.747,0,0,0,2.285-32.265l-2.219-2.526a16.317,16.317,0,0,0-1.548-1.483l-1.693-1.338a24.89,24.89,0,0,0-14.385-4.592A1.221,1.221,0,0,0,261.033,235.718Z" transform="translate(-232.964 -230.184)"/><path class="a" d="M333.734,320.493H309.355c-2.38,0-.913-2.129-.583-2.691.31-.527.511-.905.806-1.435l9.9-16.985c1.709-2.85,1.913-3.8,3.98.026l4.952,8.49c.655,1.108,6.513,11.09,6.513,11.409A1.114,1.114,0,0,1,333.734,320.493Zm-28.069-1.186c0,2.564,1.9,3.558,4.349,3.558h22.8c2.049,0,3.333-.506,4.047-1.884.946-1.827.007-3.195-.745-4.449l-11.051-19c-1.353-2.256-1.57-2.873-3.98-2.873-1.387,0-2.293,1.233-2.813,2.195-1.575,2.912-3.924,6.539-5.535,9.488l-2.763,4.749c-.333.6-.6,1-.923,1.581C308.279,314.064,305.665,317.944,305.665,319.307Z" transform="translate(-292.025 -282.11)"/><path class="a" d="M416.665,355.065v7.907a1.188,1.188,0,1,0,2.372-.132V355.2A1.188,1.188,0,1,0,416.665,355.065Z" transform="translate(-388.368 -333.53)"/><path class="a" d="M655.665,653.718a3.377,3.377,0,0,0,2.24,2.372,1.191,1.191,0,0,0,1.186-1.186,3.375,3.375,0,0,0-2.372-2.24A1.262,1.262,0,0,0,655.665,653.718Z" transform="translate(-595.572 -592.571)"/><path class="a" d="M416.656,448.941c0,1.48-.1,2.24,1.45,2.24,1,0,1.194-2.291.607-2.979A1.158,1.158,0,0,0,416.656,448.941Z" transform="translate(-388.359 -414.937)"/></g></g></svg>