<svg xmlns="http://www.w3.org/2000/svg" width="68.028" height="68" viewBox="0 0 68.028 68"><defs><style>.a{fill-rule:evenodd;}</style></defs><g transform="translate(0 0)"><path class="a" d="M227.883,214.109a12.722,12.722,0,0,1,2.247-7.048,12.382,12.382,0,0,1,12.944-5.078,12.2,12.2,0,0,1,4.324,1.907l1.763,1.408a2.766,2.766,0,0,1,.3.377,13.8,13.8,0,0,1,1.062,1.317,15.673,15.673,0,0,1,1.158,2.018,12.482,12.482,0,0,1-1.79,13.056c-3.144,3.506-7.569,5.3-12.27,4.17a12.12,12.12,0,0,1-4.324-1.907A12.489,12.489,0,0,1,227.883,214.109ZM198.536,170.6c.25-.165.536-.441.807-.664.3-.244.552-.467.866-.722a28.513,28.513,0,0,1,8.026-4.435,23.206,23.206,0,0,1,2.433-.744,22.64,22.64,0,0,1,5.885-.8v3.4a1.14,1.14,0,0,0,2.268,0v-3.4a27.734,27.734,0,0,1,16.28,5.928l1.737,1.439c-.489.728-2.719,2.348-2.719,3.171a1.311,1.311,0,0,0,1.131,1.248c1.025,0,2.465-2.172,3.288-2.719.462.69,1.652,1.907,2.719,3.511a27.369,27.369,0,0,1,4.642,14.506h-3.4a1.14,1.14,0,0,0,0,2.268h3.4a23.641,23.641,0,0,1-1.243,7.362c-.574-.048-1.121-.276-1.763-.388a15.256,15.256,0,0,0-8.775,1.184,14.919,14.919,0,0,0-3.261,2.066,6.044,6.044,0,0,1-.462.441c-1,.8-.473.473-1.3,1.312a14.356,14.356,0,0,0-2.082,3.24,15.259,15.259,0,0,0-1.222,8.854c.112.643.34,1.19.388,1.763a23.641,23.641,0,0,1-7.362,1.243v-3.4a1.14,1.14,0,0,0-2.268,0v3.4a27.369,27.369,0,0,1-14.506-4.642l-2.64-2.008c-.266-.223-.637-.558-.871-.712.489-.728,2.719-2.353,2.719-3.176a1.31,1.31,0,0,0-1.131-1.243c-1.03,0-2.465,2.167-3.288,2.719l-1.386-1.673a29.744,29.744,0,0,1-3.564-5.843,26.608,26.608,0,0,1-2.417-10.5h3.4a1.14,1.14,0,0,0,0-2.268h-3.4a26.451,26.451,0,0,1,1.514-8.233l.9-2.268a27.489,27.489,0,0,1,4.233-6.645c.228-.266.558-.637.717-.871.728.489,2.348,2.719,3.171,2.719a1.316,1.316,0,0,0,1.248-1.131c0-1.03-2.172-2.465-2.719-3.288ZM187.09,190.313v2.268c0,6.416,3.383,14.925,8.02,19.515l4.918,4.371c4.621,3.134,10.48,5.572,16.524,5.572a29.2,29.2,0,0,0,6.671-.467,19.97,19.97,0,0,0,3.867-1c.149.276.25.531.414.829a9.524,9.524,0,0,0,.536.823,12.071,12.071,0,0,0,2.417,2.8,13.733,13.733,0,0,0,4.86,2.959,14.731,14.731,0,0,0,14.516-2.571c.2-.17.271-.276.467-.436a2.708,2.708,0,0,0,.86-.845,14.746,14.746,0,0,0,1.222-1.493l1.3-2.215a14.719,14.719,0,0,0-1.254-14.766c-.191-.287-.335-.483-.521-.722a15.494,15.494,0,0,0-4.2-3.622c-.292-.17-.605-.3-.9-.457.791-1.647,1.471-6.3,1.471-8.27v-2.268c0-6.039-2.438-11.9-5.572-16.524l-2.443-3c-.175-.17-.292-.276-.457-.451-.228-.25-.234-.345-.451-.563l-.961-.855c-4.626-4.669-13.082-8.074-19.573-8.074h-2.268c-6.379,0-14.957,3.389-19.52,8.02a6.034,6.034,0,0,1-.457.446c-.728.611-.3.122-.972.956a35.934,35.934,0,0,0-2.937,3.516c-3.144,4.637-5.577,10.442-5.577,16.524Z" transform="translate(-187.09 -160.85)"/><path class="a" d="M284.427,257.312v-3.823a2.185,2.185,0,0,1,0,3.823Zm-3.37-8.652a2.415,2.415,0,0,1,1.127-1.911v3.823A2.415,2.415,0,0,1,281.057,248.66Zm1.127-4.381a4.5,4.5,0,0,0-3.37,4.044V249a4.5,4.5,0,0,0,3.37,4.044v4.27c-1.927-1.29-.3-3.033-2.359-3.033-2,0-1.027,4.713,2.359,5.5,0,1.6-.137,2.359,1.232,2.359,1.174,0,1.011-1.19,1.011-2.359a4.5,4.5,0,0,0,3.37-4.044v-.674a4.5,4.5,0,0,0-3.37-4.044v-4.271a2.265,2.265,0,0,1,1.064,1.527c.121.621-.058,1.506,1.3,1.506,2,0,1.027-4.713-2.359-5.5,0-1.6.137-2.359-1.232-2.359C282.02,241.92,282.183,243.11,282.183,244.279Z" transform="translate(-230.021 -198.644)"/><path class="a" d="M242.56,191.724v13.707a1.018,1.018,0,0,0,1.011,1.011h13.707a1.13,1.13,0,0,0,0-2.248H244.808V191.724A1.13,1.13,0,0,0,242.56,191.724Z" transform="translate(-213.019 -174.806)"/></g></svg>