<svg xmlns="http://www.w3.org/2000/svg" width="68" height="68" viewBox="0 0 68 68"><g transform="translate(0)"><path d="M62.516,64.183H30.709v.04A18.885,18.885,0,0,0,26.8,61.672l-.962,1.971a16.436,16.436,0,0,1-6.1,31.185V72.955H17.548V77.34H2.232a16.331,16.331,0,0,1,9.217-13.7l-.962-1.971a18.616,18.616,0,0,0-6.1,28.751v18.713a5.489,5.489,0,0,0,5.484,5.482H23.032V119H18.645V121.2h35.1V119H49.355v-4.386H62.516A5.489,5.489,0,0,0,68,109.136V69.665a5.489,5.489,0,0,0-5.484-5.482ZM17.548,94.827a16.446,16.446,0,0,1-15.3-15.294h15.3ZM47.161,119H25.226v-4.386H47.161Zm18.645-9.868a3.294,3.294,0,0,1-3.29,3.289H9.871a3.294,3.294,0,0,1-3.29-3.289v-1.1H65.806ZM6.58,105.847V92.622a18.642,18.642,0,0,0,26.3-26.246H62.516a3.294,3.294,0,0,1,3.29,3.289v36.182Zm0,0" transform="translate(0 -53.197)"/><path d="M160,176h2.2v2.2H160Zm0,0" transform="translate(-138.066 -151.873)"/><path d="M192,176h2.2v2.2H192Zm0,0" transform="translate(-165.68 -151.873)"/><path d="M224,176h2.2v2.2H224Zm0,0" transform="translate(-193.293 -151.873)"/><path d="M274.384,202.266a3.29,3.29,0,0,0-2.37,5.581l-2.727,5.453a2.953,2.953,0,0,0-2.366.626l-4.74-3.161a3.294,3.294,0,1,0-5.888,1.081l-4.257,6.689a3.34,3.34,0,1,0,1.849,1.188l4.2-6.606a3.224,3.224,0,0,0,.9.142,3.26,3.26,0,0,0,1.967-.667l4.74,3.161a3.236,3.236,0,0,0-.111.8,3.3,3.3,0,1,0,5.668-2.283l2.727-5.453a3.158,3.158,0,0,0,.4.041,3.3,3.3,0,1,0,0-6.6ZM251.3,222.842a1.1,1.1,0,1,1,1.1-1.1A1.1,1.1,0,0,1,251.3,222.842Zm7.7-11.781a1.1,1.1,0,1,1,1.1-1.1A1.1,1.1,0,0,1,258.993,211.061Zm9.894,6.6a1.1,1.1,0,1,1,1.1-1.1A1.1,1.1,0,0,1,268.887,217.657Zm5.5-10.993a1.1,1.1,0,1,1,1.1-1.1A1.1,1.1,0,0,1,274.384,206.663Zm0,0" transform="translate(-214.08 -174.569)"/><path d="M288,128h24.186v2.2H288Zm0,0" transform="translate(-248.583 -110.453)"/><path d="M288,160h24.186v2.2H288Zm0,0" transform="translate(-248.583 -138.066)"/><path d="M160,336h9.894v2.2H160Zm0,0" transform="translate(-138.073 -289.939)"/><path d="M64,336H74.993v2.2H64Zm0,0" transform="translate(-55.205 -289.939)"/><path d="M99.848,15.391h.55v2.2h2.2v-2.2h.55a3.848,3.848,0,0,0,0-7.7h-3.3a1.649,1.649,0,0,1,0-3.3h3.3a1.651,1.651,0,0,1,1.649,1.649V6.6h2.2v-.55A3.852,3.852,0,0,0,103.146,2.2h-.55V0h-2.2V2.2h-.55a3.848,3.848,0,0,0,0,7.7h3.3a1.649,1.649,0,0,1,0,3.3h-3.3A1.651,1.651,0,0,1,98.2,11.543v-.55H96v.55A3.852,3.852,0,0,0,99.848,15.391Zm0,0" transform="translate(-82.845)"/></g></svg>