<svg xmlns="http://www.w3.org/2000/svg" width="20" height="22.667" viewBox="0 0 20 22.667"><defs><style>.a{fill:#fff;}</style></defs><path class="a" d="M30.11,17.328h4.071V10.465H31.438V10a8.636,8.636,0,0,1,.44-2.729h2.6l.191-.338a6.246,6.246,0,0,1,10.882,0l.191.338h2.6A8.637,8.637,0,0,1,48.781,10v.465H46.039v6.863H47.41v2.724H41.944a1.95,1.95,0,1,0,0,1.328h6.8V17.328H50.11V10a10,10,0,0,0-20,0v7.328ZM32.853,16H31.438V11.793h1.414Zm7.257,5.339a.622.622,0,1,1,.622-.622A.622.622,0,0,1,40.11,21.338ZM48.781,16H47.367V11.793h1.414ZM46.505,5.942a7.574,7.574,0,0,0-12.79,0H32.448a8.668,8.668,0,0,1,15.323,0Z" transform="translate(-30.11 0)"/><path class="a" d="M164.94,243.557l1.307-1.39h2.915v-5.783h-8.447v5.783h2.911Zm-2.894-5.843h5.786v3.122h-2.16l-.734.781-.738-.781h-2.154Z" transform="translate(-154.938 -225.924)"/></svg>