<svg xmlns="http://www.w3.org/2000/svg" width="20" height="20" viewBox="0 0 20 20"><defs><style>.a{fill:#fff;}</style></defs><path class="a" d="M7.694,6.655H1.456A1.457,1.457,0,0,1,0,5.2V1.456A1.457,1.457,0,0,1,1.456,0H7.694A1.457,1.457,0,0,1,9.15,1.456V5.2A1.457,1.457,0,0,1,7.694,6.655ZM1.456,1.248a.208.208,0,0,0-.208.208V5.2a.208.208,0,0,0,.208.208H7.694A.208.208,0,0,0,7.9,5.2V1.456a.208.208,0,0,0-.208-.208Zm0,0" transform="translate(0 0)"/><path class="a" d="M7.694,224.978H1.456A1.457,1.457,0,0,1,0,223.522v-8.734a1.457,1.457,0,0,1,1.456-1.456H7.694a1.457,1.457,0,0,1,1.456,1.456v8.734A1.457,1.457,0,0,1,7.694,224.978Zm-6.239-10.4a.208.208,0,0,0-.208.208v8.734a.208.208,0,0,0,.208.208H7.694a.208.208,0,0,0,.208-.208v-8.734a.208.208,0,0,0-.208-.208Zm0,0" transform="translate(0 -204.978)"/><path class="a" d="M285.027,347.987h-6.239a1.457,1.457,0,0,1-1.456-1.456v-3.743a1.457,1.457,0,0,1,1.456-1.456h6.239a1.457,1.457,0,0,1,1.456,1.456v3.743A1.457,1.457,0,0,1,285.027,347.987Zm-6.239-5.407a.208.208,0,0,0-.208.208v3.743a.208.208,0,0,0,.208.208h6.239a.208.208,0,0,0,.208-.208v-3.743a.208.208,0,0,0-.208-.208Zm0,0" transform="translate(-266.482 -327.987)"/><path class="a" d="M285.027,11.646h-6.239a1.457,1.457,0,0,1-1.456-1.456V1.456A1.457,1.457,0,0,1,278.788,0h6.239a1.457,1.457,0,0,1,1.456,1.456V10.19A1.457,1.457,0,0,1,285.027,11.646Zm-6.239-10.4a.208.208,0,0,0-.208.208V10.19a.208.208,0,0,0,.208.208h6.239a.208.208,0,0,0,.208-.208V1.456a.208.208,0,0,0-.208-.208Zm0,0" transform="translate(-266.482 0)"/></svg>