<svg xmlns="http://www.w3.org/2000/svg" width="20" height="20" viewBox="0 0 20 20"><defs><style>.a{fill:#fff;}</style></defs><rect class="a" width="5" height="2" transform="translate(7 13)"/><rect class="a" width="9" height="2" transform="translate(7 10)"/><path class="a" d="M17.656,3.125h-.781V2.344A2.346,2.346,0,0,0,14.531,0H2.344A2.346,2.346,0,0,0,0,2.344V14.531a2.346,2.346,0,0,0,2.344,2.344h.781v.781A2.346,2.346,0,0,0,5.469,20h8.978L20,14.42V5.469A2.346,2.346,0,0,0,17.656,3.125ZM3.125,5.469v9.844H2.344a.782.782,0,0,1-.781-.781V2.344a.782.782,0,0,1,.781-.781H14.531a.782.782,0,0,1,.781.781v.781H5.469A2.346,2.346,0,0,0,3.125,5.469ZM14.918,17.312V15.66a.782.782,0,0,1,.781-.781h1.64Zm3.52-4H15.7a2.346,2.346,0,0,0-2.344,2.344v2.778H5.469a.782.782,0,0,1-.781-.781V5.469a.782.782,0,0,1,.781-.781H17.656a.782.782,0,0,1,.781.781Z"/><rect class="a" width="9" height="1" transform="translate(7 7)"/></svg>