<svg xmlns="http://www.w3.org/2000/svg" width="20" height="22.857" viewBox="0 0 20 22.857"><defs><style>.a{fill:#fff;}</style></defs><path class="a" d="M20.286,22.955H3.619A2.621,2.621,0,0,1,1,20.335V2.714a.714.714,0,1,1,1.429,0V20.335a1.192,1.192,0,0,0,1.19,1.191H19.571V4.619a.714.714,0,1,1,1.429,0V22.24A.715.715,0,0,1,20.286,22.955Z" transform="translate(-1 -0.098)"/><path class="a" d="M20.286,5.232H3.619A2.616,2.616,0,1,1,3.619,0H18.381A.714.714,0,0,1,19.1.713V3.8h1.19a.713.713,0,1,1,0,1.427ZM3.619,1.427a1.189,1.189,0,1,0,0,2.378H17.667V1.427Z" transform="translate(-1)"/><path class="a" d="M11.2,19.866a6.183,6.183,0,1,1,6.2-6.183A6.2,6.2,0,0,1,11.2,19.866Zm0-10.939a4.756,4.756,0,1,0,4.766,4.756A4.766,4.766,0,0,0,11.2,8.927Z" transform="translate(-1.195 -0.338)"/><path class="a" d="M13.128,16.207a.708.708,0,0,1-.5-.209l-1.665-1.665a.712.712,0,0,1-.209-.5V11.213a.713.713,0,1,1,1.427,0v2.32l1.455,1.455a.714.714,0,0,1-.5,1.218Z" transform="translate(-1.462 -0.496)"/></svg>