<svg xmlns="http://www.w3.org/2000/svg" width="20" height="22.039" viewBox="0 0 20 22.039"><defs><style>.a{fill:#fff;}</style></defs><path class="a" d="M215.6,259.821a4.463,4.463,0,0,1-1.115-.514.188.188,0,0,1-.032-.121.371.371,0,0,1,.238-.358.784.784,0,0,1,.692.1.649.649,0,0,0,.878-.957s0,0,0-.007a1.889,1.889,0,0,0-.732-.393v-.055a.649.649,0,1,0-1.3.007v.088a1.632,1.632,0,0,0-.547,2.729,5.418,5.418,0,0,0,1.484.716.432.432,0,0,1,.325.512.617.617,0,0,1-.617.524,1.149,1.149,0,0,1-.852-.22.649.649,0,0,0-.9.188.656.656,0,0,0,.188.905,2.352,2.352,0,0,0,.918.39v.062a.649.649,0,1,0,1.3-.006v-.129A1.829,1.829,0,0,0,215.6,259.821Z" transform="translate(-204.88 -245.837)"/><path class="a" d="M43.528,10.756a.648.648,0,0,0,.16-.438,4.965,4.965,0,0,0-2.493-4.5,6.884,6.884,0,0,0-3.382-.689s-.061.081,1.461-1.955A1.937,1.937,0,0,0,37.911,0a.72.72,0,0,0-.431.071.652.652,0,0,0-.168.129,4.788,4.788,0,0,1-1.892,1.105A3.115,3.115,0,0,0,33.893.077a.646.646,0,0,0-.428.007,3.105,3.105,0,0,0-1.508,1.227A4.975,4.975,0,0,1,30.09.232a.657.657,0,0,0-.5-.231A1.937,1.937,0,0,0,28.1,3.175L29.563,5.13a8.381,8.381,0,0,0-1.94.171,4.844,4.844,0,0,0-3.934,5.017.646.646,0,1,0,1.291.028A3.872,3.872,0,0,1,26.388,7.21a5.332,5.332,0,0,1,3.355-.784l-4.167,5.738a5.805,5.805,0,0,0,2.093,8.441c.155.08.235.117.436.206a13.313,13.313,0,0,0,11.172,0c.107-.048.22-.1.325-.15a5.805,5.805,0,0,0,2.375-8.224c-.163-.268.136.158-4.343-6.01a5.332,5.332,0,0,1,3.355.784A3.872,3.872,0,0,1,42.4,10.346.646.646,0,0,0,43.528,10.756Zm-2.717,2.252a4.513,4.513,0,0,1-1.895,6.547,12.046,12.046,0,0,1-10.458,0,4.513,4.513,0,0,1-1.895-6.547c.078-.12-.284.381,4.66-6.425q.636.1,1.33.273a2.876,2.876,0,0,1-.976,1.613.646.646,0,0,0,.388,1.162.791.791,0,0,0,.541-.253,4.037,4.037,0,0,0,1.18-1.812,4.037,4.037,0,0,0,1.18,1.812.787.787,0,0,0,.541.253.655.655,0,0,0,.231-.043A.646.646,0,0,0,35.8,8.468a2.878,2.878,0,0,1-.976-1.613c.019,0,.541-.144,1.33-.273,4.969,6.842,4.584,6.307,4.66,6.425ZM29.126,2.387a.666.666,0,0,1-.18-.467.656.656,0,0,1,.429-.593A6.236,6.236,0,0,0,31.82,2.615a3.429,3.429,0,0,0,.446.1.646.646,0,0,0,.657-.439,1.535,1.535,0,0,1,.569-.746,2.111,2.111,0,0,1,.193-.124s0,0,0,0a1.886,1.886,0,0,1,.343.245,1.7,1.7,0,0,1,.465.728.64.64,0,0,0,.257.258.789.789,0,0,0,.641.023A6.221,6.221,0,0,0,38,1.327a.649.649,0,0,1,.31.982c-.038.053,0,0-.127.166l-2.1,2.813a20.317,20.317,0,0,0-2.4.532,20.307,20.307,0,0,0-2.4-.531s-.035-.047-2.167-2.9Z" transform="translate(-23.688 0)"/></svg>