<svg xmlns="http://www.w3.org/2000/svg" width="32" height="32" viewBox="0 0 32 32"><defs><style>.a{fill:#fff;}</style></defs><path class="a" d="M27.313,4.686A16,16,0,0,0,4.686,27.314,16,16,0,0,0,27.313,4.686ZM8.021,27.649a8.1,8.1,0,0,1,15.957,0,14.094,14.094,0,0,1-15.957,0Zm2.891-13.657A5.087,5.087,0,1,1,16,19.079a5.093,5.093,0,0,1-5.087-5.087ZM25.6,26.349a9.992,9.992,0,0,0-5.809-6.522,6.962,6.962,0,1,0-7.587,0A9.991,9.991,0,0,0,6.4,26.348a14.125,14.125,0,1,1,19.206,0Zm0,0" transform="translate(0)"/></svg>