<?xml version="1.0" encoding="UTF-8"?>
<!DOCTYPE svg PUBLIC "-//W3C//DTD SVG 1.1//EN" "http://www.w3.org/Graphics/SVG/1.1/DTD/svg11.dtd">
<!-- Creator: CorelDRAW 2018 (64-Bit Evaluation Version) -->
<svg xmlns="http://www.w3.org/2000/svg" xml:space="preserve" width="3508px" height="2480px" version="1.1" style="shape-rendering:geometricPrecision; text-rendering:geometricPrecision; image-rendering:optimizeQuality; fill-rule:evenodd; clip-rule:evenodd"
viewBox="0 0 3508 2480.4"
 xmlns:xlink="http://www.w3.org/1999/xlink">
 <defs>
  <style type="text/css">
   <![CDATA[
    .str1 {stroke:#111D5E;stroke-width:9.37;stroke-miterlimit:2.61313}
    .str0 {stroke:#F79421;stroke-width:6.25;stroke-linecap:round;stroke-miterlimit:2.61313}
    .fil1 {fill:none}
    .fil2 {fill:#111D5E}
    .fil3 {fill:#F79421}
    .fil0 {fill:#040824;fill-rule:nonzero}
   ]]>
  </style>
 </defs>
 <g id="Layer_x0020_1">
  <metadata id="CorelCorpID_0Corel-Layer"/>
  <polygon class="fil0" points="787.06,1655.46 798.16,1655.46 827.07,1722.02 855.98,1655.46 866.51,1655.46 866.51,1734.8 859.12,1734.8 859.12,1664.87 858.89,1664.87 828.64,1734.8 825.39,1734.8 794.68,1664.87 794.46,1664.87 794.46,1734.8 787.06,1734.8 "/>
  <path id="1" class="fil0" d="M882.65 1708.91c0,-3.96 0.67,-7.6 2.02,-10.92 1.34,-3.33 3.21,-6.21 5.6,-8.63 2.39,-2.43 5.27,-4.32 8.63,-5.66 3.36,-1.35 7.02,-2.02 10.98,-2.02 3.96,0 7.6,0.67 10.93,2.02 3.32,1.34 6.2,3.23 8.63,5.66 2.42,2.42 4.31,5.3 5.66,8.63 1.34,3.32 2.01,6.96 2.01,10.92 0,3.96 -0.67,7.6 -2.01,10.93 -1.35,3.32 -3.24,6.2 -5.66,8.63 -2.43,2.42 -5.31,4.31 -8.63,5.65 -3.33,1.35 -6.97,2.02 -10.93,2.02 -3.96,0 -7.62,-0.67 -10.98,-2.02 -3.36,-1.34 -6.24,-3.23 -8.63,-5.65 -2.39,-2.43 -4.26,-5.31 -5.6,-8.63 -1.35,-3.33 -2.02,-6.97 -2.02,-10.93zm6.72 0c0,2.91 0.47,5.66 1.41,8.24 0.93,2.57 2.29,4.82 4.09,6.72 1.79,1.91 3.96,3.42 6.49,4.54 2.55,1.12 5.38,1.68 8.52,1.68 3.14,0 5.98,-0.56 8.52,-1.68 2.54,-1.12 4.7,-2.63 6.5,-4.54 1.79,-1.9 3.15,-4.15 4.09,-6.72 0.93,-2.58 1.4,-5.33 1.4,-8.24 0,-2.91 -0.47,-5.66 -1.4,-8.24 -0.94,-2.57 -2.3,-4.81 -4.09,-6.72 -1.8,-1.9 -3.96,-3.42 -6.5,-4.54 -2.54,-1.12 -5.38,-1.68 -8.52,-1.68 -3.14,0 -5.97,0.56 -8.52,1.68 -2.53,1.12 -4.7,2.64 -6.49,4.54 -1.8,1.91 -3.16,4.15 -4.09,6.72 -0.94,2.58 -1.41,5.33 -1.41,8.24z"/>
  <path id="2" class="fil0" d="M952.13 1697.59c0,-0.97 -0.04,-2.15 -0.11,-3.53 -0.08,-1.38 -0.13,-2.78 -0.17,-4.2 -0.04,-1.42 -0.09,-2.74 -0.17,-3.98 -0.07,-1.23 -0.11,-2.18 -0.11,-2.85l6.72 0c0.08,1.94 0.13,3.81 0.17,5.6 0.04,1.79 0.13,2.95 0.28,3.47l0.34 0c1.34,-2.84 3.58,-5.28 6.72,-7.34 3.14,-2.05 6.8,-3.08 10.98,-3.08 4.04,0 7.32,0.64 9.86,1.9 2.54,1.27 4.54,2.94 6,4.99 1.46,2.06 2.47,4.43 3.02,7.12 0.56,2.69 0.84,5.45 0.84,8.29l0 30.82 -6.72 0 0 -30.48c0,-2.1 -0.19,-4.13 -0.56,-6.11 -0.37,-1.98 -1.03,-3.76 -1.96,-5.32 -0.93,-1.57 -2.24,-2.82 -3.92,-3.76 -1.68,-0.93 -3.87,-1.4 -6.56,-1.4 -2.46,0 -4.8,0.43 -7,1.29 -2.21,0.86 -4.11,2.17 -5.72,3.92 -1.6,1.76 -2.87,3.96 -3.81,6.61 -0.93,2.66 -1.4,5.78 -1.4,9.36l0 25.89 -6.72 0 0 -37.21z"/>
  <path id="3" class="fil0" d="M1060.16 1725.05c-2.62,3.96 -5.85,6.8 -9.7,8.51 -3.85,1.72 -8.09,2.58 -12.72,2.58 -3.96,0 -7.54,-0.67 -10.75,-2.02 -3.22,-1.34 -5.98,-3.23 -8.3,-5.65 -2.31,-2.43 -4.09,-5.31 -5.32,-8.63 -1.23,-3.33 -1.85,-7.01 -1.85,-11.04 0,-3.89 0.64,-7.47 1.91,-10.76 1.27,-3.29 3.06,-6.14 5.37,-8.57 2.32,-2.43 5.05,-4.33 8.19,-5.72 3.13,-1.38 6.61,-2.07 10.42,-2.07 3.96,0 7.45,0.69 10.47,2.07 3.03,1.39 5.57,3.22 7.63,5.49 2.05,2.28 3.6,4.88 4.65,7.79 1.04,2.92 1.56,5.87 1.56,8.85l0 4.71 -43.48 0c0,1.42 0.28,3.23 0.84,5.44 0.57,2.2 1.59,4.35 3.09,6.44 1.49,2.09 3.49,3.89 5.99,5.38 2.5,1.49 5.74,2.24 9.7,2.24 3.43,0 6.76,-0.82 9.97,-2.46 3.21,-1.65 5.68,-3.89 7.39,-6.73l4.94 4.15zm-5.16 -20.51c0,-2.32 -0.47,-4.48 -1.4,-6.5 -0.93,-2.02 -2.2,-3.79 -3.81,-5.32 -1.61,-1.53 -3.51,-2.75 -5.72,-3.64 -2.2,-0.9 -4.53,-1.35 -7,-1.35 -3.66,0 -6.7,0.75 -9.13,2.24 -2.43,1.5 -4.35,3.22 -5.77,5.16 -1.42,1.94 -2.43,3.83 -3.03,5.66 -0.6,1.83 -0.9,3.08 -0.9,3.75l36.76 0z"/>
  <path id="4" class="fil0" d="M1102.07 1689.08l-14.8 0 0 33.73c0,2.31 0.64,4.11 1.91,5.37 1.27,1.28 3.02,1.91 5.27,1.91 1.26,0 2.55,-0.17 3.86,-0.5 1.31,-0.34 2.56,-0.77 3.76,-1.29l0.56 6.05c-1.27,0.45 -2.73,0.86 -4.37,1.23 -1.65,0.37 -3.1,0.56 -4.37,0.56 -2.4,0 -4.45,-0.35 -6.17,-1.06 -1.72,-0.71 -3.1,-1.66 -4.14,-2.86 -1.05,-1.2 -1.82,-2.6 -2.3,-4.2 -0.49,-1.61 -0.73,-3.35 -0.73,-5.21l0 -33.73 -11.21 0 0 -6.05 11.21 0 0 -14.91 6.72 0 0 14.91 14.8 0 0 6.05z"/>
  <path id="5" class="fil0" d="M1115.29 1683.03l6.72 0 0 51.77 -6.72 0 0 -51.77zm-1.68 -20.51c0,-1.42 0.48,-2.62 1.45,-3.59 0.98,-0.97 2.17,-1.46 3.59,-1.46 1.42,0 2.62,0.49 3.59,1.46 0.97,0.97 1.45,2.17 1.45,3.59 0,1.42 -0.48,2.61 -1.45,3.58 -0.97,0.97 -2.17,1.46 -3.59,1.46 -1.42,0 -2.61,-0.49 -3.59,-1.46 -0.97,-0.97 -1.45,-2.16 -1.45,-3.58z"/>
  <path id="6" class="fil0" d="M1189.92 1683.03l6.72 0 0 51.77 -6.72 0 0 -51.77zm-1.68 -20.51c0,-1.42 0.49,-2.62 1.46,-3.59 0.97,-0.97 2.16,-1.46 3.58,-1.46 1.42,0 2.62,0.49 3.59,1.46 0.97,0.97 1.46,2.17 1.46,3.59 0,1.42 -0.49,2.61 -1.46,3.58 -0.97,0.97 -2.17,1.46 -3.59,1.46 -1.42,0 -2.61,-0.49 -3.58,-1.46 -0.97,-0.97 -1.46,-2.16 -1.46,-3.58z"/>
  <path id="7" class="fil0" d="M1215.7 1697.59c0,-0.97 -0.04,-2.15 -0.12,-3.53 -0.07,-1.38 -0.13,-2.78 -0.16,-4.2 -0.04,-1.42 -0.1,-2.74 -0.17,-3.98 -0.08,-1.23 -0.11,-2.18 -0.11,-2.85l6.72 0c0.07,1.94 0.13,3.81 0.17,5.6 0.03,1.79 0.13,2.95 0.28,3.47l0.33 0c1.35,-2.84 3.59,-5.28 6.73,-7.34 3.13,-2.05 6.79,-3.08 10.98,-3.08 4.03,0 7.32,0.64 9.86,1.9 2.54,1.27 4.54,2.94 6,4.99 1.45,2.06 2.46,4.43 3.02,7.12 0.56,2.69 0.84,5.45 0.84,8.29l0 30.82 -6.72 0 0 -30.48c0,-2.1 -0.19,-4.13 -0.56,-6.11 -0.38,-1.98 -1.03,-3.76 -1.96,-5.32 -0.94,-1.57 -2.24,-2.82 -3.92,-3.76 -1.69,-0.93 -3.87,-1.4 -6.56,-1.4 -2.47,0 -4.8,0.43 -7,1.29 -2.21,0.86 -4.11,2.17 -5.72,3.92 -1.61,1.76 -2.88,3.96 -3.81,6.61 -0.93,2.66 -1.4,5.78 -1.4,9.36l0 25.89 -6.72 0 0 -37.21z"/>
  <path id="8" class="fil0" d="M1330 1731.44c0,6.42 -0.94,11.61 -2.8,15.57 -1.87,3.96 -4.21,7.02 -7.01,9.19 -2.8,2.17 -5.81,3.62 -9.02,4.37 -3.21,0.75 -6.13,1.12 -8.74,1.12 -2.61,0 -5.17,-0.24 -7.68,-0.73 -2.5,-0.48 -4.87,-1.19 -7.11,-2.13 -2.24,-0.93 -4.28,-2.07 -6.11,-3.41 -1.83,-1.35 -3.42,-2.88 -4.76,-4.6l5.26 -4.93c2.4,3.36 5.38,5.83 8.97,7.4 3.59,1.57 7.4,2.35 11.43,2.35 3.44,0 6.33,-0.45 8.69,-1.34 2.35,-0.9 4.29,-2.08 5.82,-3.53 1.53,-1.46 2.73,-3.07 3.59,-4.82 0.86,-1.76 1.49,-3.51 1.9,-5.27 0.41,-1.75 0.66,-3.42 0.73,-4.99 0.08,-1.57 0.11,-2.83 0.11,-3.81l0 -7.17 -0.22 0c-1.94,3.14 -4.58,5.6 -7.9,7.4 -3.33,1.79 -7.23,2.69 -11.71,2.69 -3.81,0 -7.4,-0.69 -10.76,-2.08 -3.36,-1.38 -6.29,-3.28 -8.8,-5.71 -2.5,-2.43 -4.48,-5.25 -5.93,-8.46 -1.46,-3.21 -2.19,-6.65 -2.19,-10.31 0,-3.66 0.73,-7.1 2.19,-10.31 1.45,-3.21 3.43,-6.01 5.93,-8.41 2.51,-2.39 5.44,-4.29 8.8,-5.71 3.36,-1.42 6.95,-2.13 10.76,-2.13 4.48,0 8.38,0.9 11.71,2.69 3.32,1.79 5.96,4.26 7.9,7.4l0.22 0 0 -8.74 6.73 0 0 48.41zm-6.5 -23.2c0,-2.84 -0.54,-5.51 -1.63,-8.01 -1.08,-2.51 -2.54,-4.67 -4.37,-6.5 -1.83,-1.83 -3.99,-3.29 -6.5,-4.37 -2.5,-1.09 -5.17,-1.63 -8.01,-1.63 -2.84,0 -5.51,0.54 -8.01,1.63 -2.5,1.08 -4.67,2.54 -6.5,4.37 -1.83,1.83 -3.29,3.99 -4.37,6.5 -1.08,2.5 -1.63,5.17 -1.63,8.01 0,2.84 0.55,5.51 1.63,8.01 1.08,2.5 2.54,4.67 4.37,6.5 1.83,1.83 4,3.29 6.5,4.37 2.5,1.08 5.17,1.63 8.01,1.63 2.84,0 5.51,-0.55 8.01,-1.63 2.51,-1.08 4.67,-2.54 6.5,-4.37 1.83,-1.83 3.29,-4 4.37,-6.5 1.09,-2.5 1.63,-5.17 1.63,-8.01z"/>
  <path id="9" class="fil0" d="M1460.32 1722.36c-3.81,5.15 -8.21,8.85 -13.22,11.09 -5,2.24 -10.42,3.36 -16.25,3.36 -6.05,0 -11.6,-1.02 -16.64,-3.08 -5.04,-2.05 -9.36,-4.93 -12.94,-8.63 -3.59,-3.69 -6.39,-8.1 -8.41,-13.22 -2.01,-5.12 -3.02,-10.7 -3.02,-16.75 0,-6.05 1.01,-11.62 3.02,-16.7 2.02,-5.08 4.82,-9.47 8.41,-13.17 3.58,-3.7 7.9,-6.59 12.94,-8.68 5.04,-2.09 10.59,-3.14 16.64,-3.14 5.38,0 10.4,0.95 15.07,2.86 4.67,1.9 8.76,5.1 12.27,9.58l-6.05 5.04c-2.46,-3.73 -5.62,-6.46 -9.47,-8.18 -3.84,-1.72 -7.78,-2.58 -11.82,-2.58 -5.15,0 -9.8,0.9 -13.95,2.69 -4.15,1.8 -7.68,4.26 -10.59,7.4 -2.91,3.14 -5.15,6.84 -6.72,11.09 -1.57,4.26 -2.36,8.86 -2.36,13.79 0,4.93 0.79,9.52 2.36,13.78 1.57,4.26 3.81,7.96 6.72,11.1 2.91,3.13 6.44,5.6 10.59,7.39 4.15,1.79 8.8,2.69 13.95,2.69 2.02,0 4.11,-0.24 6.28,-0.73 2.16,-0.48 4.27,-1.23 6.33,-2.24 2.05,-1.01 4.01,-2.28 5.88,-3.81 1.87,-1.53 3.51,-3.38 4.93,-5.55l6.05 4.6z"/>
  <path id="10" class="fil0" d="M1471.98 1697.59c0,-0.97 -0.04,-2.15 -0.11,-3.53 -0.08,-1.38 -0.14,-2.78 -0.17,-4.2 -0.04,-1.42 -0.1,-2.74 -0.17,-3.98 -0.08,-1.23 -0.11,-2.18 -0.11,-2.85l6.72 0c0.08,1.94 0.13,3.81 0.17,5.6 0.04,1.79 0.13,2.95 0.28,3.47 1.72,-3.06 3.92,-5.56 6.61,-7.51 2.69,-1.94 5.98,-2.91 9.86,-2.91 0.67,0 1.33,0.06 1.96,0.17 0.64,0.11 1.29,0.24 1.96,0.39l-0.78 6.61c-0.9,-0.3 -1.76,-0.45 -2.58,-0.45 -2.91,0 -5.43,0.47 -7.56,1.4 -2.13,0.94 -3.89,2.23 -5.27,3.87 -1.38,1.64 -2.41,3.57 -3.08,5.77 -0.67,2.21 -1.01,4.58 -1.01,7.12l0 28.24 -6.72 0 0 -37.21z"/>
  <path id="11" class="fil0" d="M1553 1725.05c-2.62,3.96 -5.85,6.8 -9.69,8.51 -3.85,1.72 -8.09,2.58 -12.72,2.58 -3.96,0 -7.55,-0.67 -10.76,-2.02 -3.21,-1.34 -5.98,-3.23 -8.29,-5.65 -2.32,-2.43 -4.09,-5.31 -5.33,-8.63 -1.23,-3.33 -1.85,-7.01 -1.85,-11.04 0,-3.89 0.64,-7.47 1.91,-10.76 1.27,-3.29 3.06,-6.14 5.38,-8.57 2.31,-2.43 5.04,-4.33 8.18,-5.72 3.14,-1.38 6.61,-2.07 10.42,-2.07 3.96,0 7.45,0.69 10.48,2.07 3.02,1.39 5.56,3.22 7.62,5.49 2.05,2.28 3.6,4.88 4.65,7.79 1.04,2.92 1.57,5.87 1.57,8.85l0 4.71 -43.48 0c0,1.42 0.28,3.23 0.84,5.44 0.56,2.2 1.59,4.35 3.08,6.44 1.49,2.09 3.49,3.89 6,5.38 2.5,1.49 5.73,2.24 9.69,2.24 3.43,0 6.76,-0.82 9.97,-2.46 3.21,-1.65 5.68,-3.89 7.4,-6.73l4.93 4.15zm-5.16 -20.51c0,-2.32 -0.46,-4.48 -1.4,-6.5 -0.93,-2.02 -2.2,-3.79 -3.81,-5.32 -1.6,-1.53 -3.51,-2.75 -5.71,-3.64 -2.21,-0.9 -4.54,-1.35 -7.01,-1.35 -3.66,0 -6.7,0.75 -9.13,2.24 -2.43,1.5 -4.35,3.22 -5.77,5.16 -1.42,1.94 -2.43,3.83 -3.03,5.66 -0.59,1.83 -0.89,3.08 -0.89,3.75l36.75 0z"/>
  <path id="12" class="fil0" d="M1614.86 1725.72l-0.23 0c-1.04,1.79 -2.35,3.34 -3.92,4.65 -1.57,1.31 -3.27,2.39 -5.1,3.25 -1.83,0.86 -3.75,1.49 -5.77,1.91 -2.02,0.41 -4,0.61 -5.94,0.61 -3.96,0 -7.62,-0.67 -10.98,-2.02 -3.36,-1.34 -6.24,-3.23 -8.63,-5.65 -2.39,-2.43 -4.26,-5.31 -5.6,-8.63 -1.35,-3.33 -2.02,-6.97 -2.02,-10.93 0,-3.96 0.67,-7.6 2.02,-10.92 1.34,-3.33 3.21,-6.21 5.6,-8.63 2.39,-2.43 5.27,-4.32 8.63,-5.66 3.36,-1.35 7.02,-2.02 10.98,-2.02 1.94,0 3.92,0.21 5.94,0.62 2.02,0.41 3.94,1.04 5.77,1.9 1.83,0.86 3.53,1.94 5.1,3.25 1.57,1.31 2.88,2.86 3.92,4.65l0.23 0 0 -42.02 6.72 0 0 84.72 -6.72 0 0 -9.08zm0.67 -16.81c0,-2.91 -0.56,-5.66 -1.68,-8.24 -1.12,-2.57 -2.66,-4.81 -4.6,-6.72 -1.94,-1.9 -4.22,-3.42 -6.83,-4.54 -2.62,-1.12 -5.46,-1.68 -8.52,-1.68 -3.14,0 -5.98,0.56 -8.52,1.68 -2.54,1.12 -4.7,2.64 -6.5,4.54 -1.79,1.91 -3.15,4.15 -4.09,6.72 -0.93,2.58 -1.4,5.33 -1.4,8.24 0,2.91 0.47,5.66 1.4,8.24 0.94,2.57 2.3,4.82 4.09,6.72 1.8,1.91 3.96,3.42 6.5,4.54 2.54,1.12 5.38,1.68 8.52,1.68 3.06,0 5.9,-0.56 8.52,-1.68 2.61,-1.12 4.89,-2.63 6.83,-4.54 1.94,-1.9 3.48,-4.15 4.6,-6.72 1.12,-2.58 1.68,-5.33 1.68,-8.24z"/>
  <path id="13" class="fil0" d="M1639.28 1683.03l6.73 0 0 51.77 -6.73 0 0 -51.77zm-1.68 -20.51c0,-1.42 0.49,-2.62 1.46,-3.59 0.97,-0.97 2.17,-1.46 3.59,-1.46 1.42,0 2.61,0.49 3.58,1.46 0.97,0.97 1.46,2.17 1.46,3.59 0,1.42 -0.49,2.61 -1.46,3.58 -0.97,0.97 -2.16,1.46 -3.58,1.46 -1.42,0 -2.62,-0.49 -3.59,-1.46 -0.97,-0.97 -1.46,-2.16 -1.46,-3.58z"/>
  <path id="14" class="fil0" d="M1690.38 1689.08l-14.79 0 0 33.73c0,2.31 0.64,4.11 1.91,5.37 1.27,1.28 3.02,1.91 5.26,1.91 1.27,0 2.56,-0.17 3.87,-0.5 1.31,-0.34 2.56,-0.77 3.75,-1.29l0.56 6.05c-1.27,0.45 -2.72,0.86 -4.37,1.23 -1.64,0.37 -3.1,0.56 -4.37,0.56 -2.39,0 -4.44,-0.35 -6.16,-1.06 -1.72,-0.71 -3.1,-1.66 -4.15,-2.86 -1.04,-1.2 -1.81,-2.6 -2.29,-4.2 -0.49,-1.61 -0.73,-3.35 -0.73,-5.21l0 -33.73 -11.21 0 0 -6.05 11.21 0 0 -14.91 6.72 0 0 14.91 14.79 0 0 6.05z"/>
  <polygon id="15" class="fil0" points="1750.11,1655.46 1761.2,1655.46 1790.12,1722.02 1819.03,1655.46 1829.56,1655.46 1829.56,1734.8 1822.17,1734.8 1822.17,1664.87 1821.94,1664.87 1791.69,1734.8 1788.44,1734.8 1757.73,1664.87 1757.51,1664.87 1757.51,1734.8 1750.11,1734.8 "/>
  <path id="16" class="fil0" d="M1888.84 1713.06c0,2.54 0.02,4.82 0.06,6.83 0.04,2.02 0.09,3.89 0.17,5.61 0.07,1.71 0.17,3.32 0.28,4.81 0.11,1.5 0.28,2.99 0.5,4.49l-6.27 0c-0.45,-2.54 -0.68,-5.34 -0.68,-8.41l-0.22 0c-1.94,3.36 -4.35,5.83 -7.23,7.4 -2.87,1.57 -6.52,2.35 -10.92,2.35 -2.25,0 -4.45,-0.28 -6.62,-0.84 -2.16,-0.56 -4.1,-1.46 -5.82,-2.69 -1.72,-1.23 -3.12,-2.82 -4.21,-4.76 -1.08,-1.94 -1.62,-4.3 -1.62,-7.06 0,-3.96 1.01,-7.1 3.03,-9.41 2.01,-2.32 4.5,-4.06 7.45,-5.22 2.95,-1.15 6.09,-1.9 9.41,-2.24 3.33,-0.33 6.26,-0.5 8.8,-0.5l7.84 0 0 -3.14c0,-4.48 -1.38,-7.69 -4.14,-9.64 -2.77,-1.94 -6.24,-2.91 -10.43,-2.91 -5.97,0 -11.24,1.94 -15.8,5.83l-3.92 -4.6c2.47,-2.39 5.53,-4.2 9.19,-5.43 3.66,-1.23 7.17,-1.85 10.53,-1.85 6.28,0 11.28,1.47 15.02,4.43 3.74,2.95 5.6,7.71 5.6,14.28l0 12.67zm-13.44 -4.26c-2.84,0 -5.59,0.19 -8.24,0.56 -2.65,0.37 -5.04,1.01 -7.17,1.9 -2.13,0.9 -3.83,2.1 -5.1,3.59 -1.27,1.49 -1.91,3.36 -1.91,5.6 0,1.57 0.36,2.97 1.07,4.21 0.71,1.23 1.62,2.24 2.74,3.02 1.12,0.79 2.38,1.38 3.76,1.79 1.38,0.41 2.78,0.62 4.2,0.62 3.59,0 6.54,-0.52 8.85,-1.57 2.32,-1.04 4.17,-2.41 5.55,-4.09 1.38,-1.68 2.33,-3.58 2.86,-5.71 0.52,-2.13 0.78,-4.28 0.78,-6.45l0 -3.47 -7.39 0z"/>
  <polygon id="17" class="fil0" points="1920,1706.78 1901.51,1683.03 1910.13,1683.03 1924.48,1702.64 1938.71,1683.03 1947.11,1683.03 1928.85,1706.78 1951.04,1734.8 1942.3,1734.8 1924.25,1711.38 1906.55,1734.8 1898.48,1734.8 "/>
  <path id="18" class="fil0" d="M1961.8 1683.03l6.72 0 0 51.77 -6.72 0 0 -51.77zm-1.69 -20.51c0,-1.42 0.49,-2.62 1.46,-3.59 0.97,-0.97 2.17,-1.46 3.59,-1.46 1.42,0 2.61,0.49 3.58,1.46 0.97,0.97 1.46,2.17 1.46,3.59 0,1.42 -0.49,2.61 -1.46,3.58 -0.97,0.97 -2.16,1.46 -3.58,1.46 -1.42,0 -2.62,-0.49 -3.59,-1.46 -0.97,-0.97 -1.46,-2.16 -1.46,-3.58z"/>
  <path id="19" class="fil0" d="M1987.57 1697.59c0,-0.97 -0.04,-2.15 -0.11,-3.53 -0.08,-1.38 -0.13,-2.78 -0.17,-4.2 -0.04,-1.42 -0.09,-2.74 -0.17,-3.98 -0.07,-1.23 -0.11,-2.18 -0.11,-2.85l6.72 0c0.08,1.94 0.13,3.81 0.17,5.6 0.04,1.79 0.13,2.95 0.28,3.47l0.34 0c1.34,-2.84 3.58,-5.28 6.72,-7.34 3.14,-2.05 6.8,-3.08 10.98,-3.08 3.44,0 6.58,0.88 9.42,2.63 2.83,1.76 4.89,4.62 6.16,8.58 1.64,-3.89 4.09,-6.73 7.34,-8.52 3.25,-1.79 6.67,-2.69 10.25,-2.69 4.04,0 7.32,0.64 9.86,1.9 2.54,1.27 4.54,2.94 6,4.99 1.46,2.06 2.47,4.43 3.02,7.12 0.56,2.69 0.84,5.45 0.84,8.29l0 30.82 -6.72 0 0 -30.48c0,-2.1 -0.18,-4.13 -0.56,-6.11 -0.37,-1.98 -1.03,-3.76 -1.96,-5.32 -0.93,-1.57 -2.24,-2.82 -3.92,-3.76 -1.68,-0.93 -3.87,-1.4 -6.56,-1.4 -3.14,0 -5.71,0.58 -7.73,1.74 -2.02,1.16 -3.6,2.63 -4.76,4.43 -1.16,1.79 -1.98,3.73 -2.47,5.82 -0.48,2.09 -0.73,4.07 -0.73,5.94l0 29.14 -6.72 0 0 -31.16c0,-4.78 -0.88,-8.63 -2.63,-11.54 -1.76,-2.91 -4.47,-4.37 -8.13,-4.37 -2.46,0 -4.8,0.43 -7,1.29 -2.21,0.86 -4.11,2.17 -5.72,3.92 -1.6,1.76 -2.87,3.96 -3.81,6.61 -0.93,2.66 -1.4,5.78 -1.4,9.36l0 25.89 -6.72 0 0 -37.21z"/>
  <path id="20" class="fil0" d="M2084.17 1683.03l6.72 0 0 51.77 -6.72 0 0 -51.77zm-1.69 -20.51c0,-1.42 0.49,-2.62 1.46,-3.59 0.97,-0.97 2.17,-1.46 3.59,-1.46 1.42,0 2.61,0.49 3.58,1.46 0.97,0.97 1.46,2.17 1.46,3.59 0,1.42 -0.49,2.61 -1.46,3.58 -0.97,0.97 -2.16,1.46 -3.58,1.46 -1.42,0 -2.62,-0.49 -3.59,-1.46 -0.97,-0.97 -1.46,-2.16 -1.46,-3.58z"/>
  <path id="21" class="fil0" d="M2158.8 1683.03l6.72 0 0 51.77 -6.72 0 0 -51.77zm-1.68 -20.51c0,-1.42 0.48,-2.62 1.45,-3.59 0.97,-0.97 2.17,-1.46 3.59,-1.46 1.42,0 2.61,0.49 3.59,1.46 0.97,0.97 1.45,2.17 1.45,3.59 0,1.42 -0.48,2.61 -1.45,3.58 -0.98,0.97 -2.17,1.46 -3.59,1.46 -1.42,0 -2.62,-0.49 -3.59,-1.46 -0.97,-0.97 -1.45,-2.16 -1.45,-3.58z"/>
  <path id="22" class="fil0" d="M2184.57 1697.59c0,-0.97 -0.04,-2.15 -0.11,-3.53 -0.07,-1.38 -0.13,-2.78 -0.17,-4.2 -0.04,-1.42 -0.09,-2.74 -0.17,-3.98 -0.07,-1.23 -0.11,-2.18 -0.11,-2.85l6.73 0c0.07,1.94 0.13,3.81 0.16,5.6 0.04,1.79 0.13,2.95 0.28,3.47l0.34 0c1.34,-2.84 3.59,-5.28 6.72,-7.34 3.14,-2.05 6.8,-3.08 10.99,-3.08 4.03,0 7.32,0.64 9.86,1.9 2.54,1.27 4.54,2.94 5.99,4.99 1.46,2.06 2.47,4.43 3.03,7.12 0.56,2.69 0.84,5.45 0.84,8.29l0 30.82 -6.73 0 0 -30.48c0,-2.1 -0.18,-4.13 -0.56,-6.11 -0.37,-1.98 -1.02,-3.76 -1.96,-5.32 -0.93,-1.57 -2.24,-2.82 -3.92,-3.76 -1.68,-0.93 -3.87,-1.4 -6.55,-1.4 -2.47,0 -4.8,0.43 -7.01,1.29 -2.2,0.86 -4.11,2.17 -5.71,3.92 -1.61,1.76 -2.88,3.96 -3.81,6.61 -0.94,2.66 -1.4,5.78 -1.4,9.36l0 25.89 -6.73 0 0 -37.21z"/>
  <path id="23" class="fil0" d="M2298.87 1731.44c0,6.42 -0.93,11.61 -2.8,15.57 -1.87,3.96 -4.2,7.02 -7,9.19 -2.8,2.17 -5.81,3.62 -9.02,4.37 -3.22,0.75 -6.13,1.12 -8.74,1.12 -2.62,0 -5.18,-0.24 -7.68,-0.73 -2.5,-0.48 -4.87,-1.19 -7.12,-2.13 -2.24,-0.93 -4.27,-2.07 -6.1,-3.41 -1.83,-1.35 -3.42,-2.88 -4.77,-4.6l5.27 -4.93c2.39,3.36 5.38,5.83 8.97,7.4 3.58,1.57 7.39,2.35 11.43,2.35 3.43,0 6.33,-0.45 8.68,-1.34 2.35,-0.9 4.3,-2.08 5.83,-3.53 1.53,-1.46 2.73,-3.07 3.58,-4.82 0.86,-1.76 1.5,-3.51 1.91,-5.27 0.41,-1.75 0.65,-3.42 0.73,-4.99 0.07,-1.57 0.11,-2.83 0.11,-3.81l0 -7.17 -0.22 0c-1.95,3.14 -4.58,5.6 -7.9,7.4 -3.33,1.79 -7.23,2.69 -11.71,2.69 -3.81,0 -7.4,-0.69 -10.76,-2.08 -3.36,-1.38 -6.3,-3.28 -8.8,-5.71 -2.5,-2.43 -4.48,-5.25 -5.94,-8.46 -1.46,-3.21 -2.18,-6.65 -2.18,-10.31 0,-3.66 0.72,-7.1 2.18,-10.31 1.46,-3.21 3.44,-6.01 5.94,-8.41 2.5,-2.39 5.44,-4.29 8.8,-5.71 3.36,-1.42 6.95,-2.13 10.76,-2.13 4.48,0 8.38,0.9 11.71,2.69 3.32,1.79 5.95,4.26 7.9,7.4l0.22 0 0 -8.74 6.72 0 0 48.41zm-6.5 -23.2c0,-2.84 -0.54,-5.51 -1.62,-8.01 -1.08,-2.51 -2.54,-4.67 -4.37,-6.5 -1.83,-1.83 -4,-3.29 -6.5,-4.37 -2.5,-1.09 -5.17,-1.63 -8.01,-1.63 -2.84,0 -5.51,0.54 -8.01,1.63 -2.51,1.08 -4.67,2.54 -6.5,4.37 -1.84,1.83 -3.29,3.99 -4.37,6.5 -1.09,2.5 -1.63,5.17 -1.63,8.01 0,2.84 0.54,5.51 1.63,8.01 1.08,2.5 2.53,4.67 4.37,6.5 1.83,1.83 3.99,3.29 6.5,4.37 2.5,1.08 5.17,1.63 8.01,1.63 2.84,0 5.51,-0.55 8.01,-1.63 2.5,-1.08 4.67,-2.54 6.5,-4.37 1.83,-1.83 3.29,-4 4.37,-6.5 1.08,-2.5 1.62,-5.17 1.62,-8.01z"/>
  <path id="24" class="fil0" d="M2371.27 1690.42l15.68 0c3.89,0 7.04,-0.49 9.47,-1.46 2.43,-0.97 4.32,-2.16 5.66,-3.58 1.35,-1.42 2.26,-2.95 2.75,-4.6 0.48,-1.64 0.72,-3.13 0.72,-4.48 0,-1.34 -0.24,-2.84 -0.72,-4.48 -0.49,-1.64 -1.4,-3.18 -2.75,-4.6 -1.34,-1.41 -3.23,-2.61 -5.66,-3.58 -2.43,-0.97 -5.58,-1.46 -9.47,-1.46l-15.68 0 0 28.24zm-7.4 -34.96l20.84 0c1.05,0 2.47,0.03 4.26,0.11 1.79,0.07 3.74,0.3 5.83,0.67 2.09,0.38 4.22,0.97 6.38,1.8 2.17,0.82 4.11,2.01 5.83,3.58 1.72,1.57 3.14,3.55 4.26,5.94 1.12,2.39 1.68,5.3 1.68,8.74 0,3.81 -0.65,6.95 -1.96,9.41 -1.31,2.47 -2.95,4.47 -4.93,6 -1.98,1.53 -4.17,2.67 -6.56,3.42 -2.39,0.74 -4.67,1.27 -6.83,1.57l23.08 38.1 -8.4 0 -22.3 -37.66 -13.78 0 0 37.66 -7.4 0 0 -79.34z"/>
  <path id="25" class="fil0" d="M2474.14 1725.05c-2.62,3.96 -5.85,6.8 -9.7,8.51 -3.84,1.72 -8.08,2.58 -12.72,2.58 -3.95,0 -7.54,-0.67 -10.75,-2.02 -3.22,-1.34 -5.98,-3.23 -8.3,-5.65 -2.31,-2.43 -4.09,-5.31 -5.32,-8.63 -1.23,-3.33 -1.85,-7.01 -1.85,-11.04 0,-3.89 0.64,-7.47 1.91,-10.76 1.27,-3.29 3.06,-6.14 5.38,-8.57 2.31,-2.43 5.04,-4.33 8.18,-5.72 3.13,-1.38 6.61,-2.07 10.42,-2.07 3.96,0 7.45,0.69 10.48,2.07 3.02,1.39 5.56,3.22 7.62,5.49 2.05,2.28 3.6,4.88 4.65,7.79 1.04,2.92 1.57,5.87 1.57,8.85l0 4.71 -43.48 0c0,1.42 0.28,3.23 0.84,5.44 0.56,2.2 1.58,4.35 3.08,6.44 1.49,2.09 3.49,3.89 5.99,5.38 2.51,1.49 5.74,2.24 9.7,2.24 3.43,0 6.76,-0.82 9.97,-2.46 3.21,-1.65 5.68,-3.89 7.4,-6.73l4.93 4.15zm-5.16 -20.51c0,-2.32 -0.47,-4.48 -1.4,-6.5 -0.93,-2.02 -2.2,-3.79 -3.81,-5.32 -1.61,-1.53 -3.51,-2.75 -5.71,-3.64 -2.21,-0.9 -4.54,-1.35 -7.01,-1.35 -3.66,0 -6.7,0.75 -9.13,2.24 -2.43,1.5 -4.35,3.22 -5.77,5.16 -1.42,1.94 -2.43,3.83 -3.03,5.66 -0.59,1.83 -0.89,3.08 -0.89,3.75l36.75 0z"/>
  <path id="26" class="fil0" d="M2516.05 1689.08l-14.8 0 0 33.73c0,2.31 0.64,4.11 1.91,5.37 1.27,1.28 3.03,1.91 5.27,1.91 1.27,0 2.56,-0.17 3.86,-0.5 1.31,-0.34 2.56,-0.77 3.76,-1.29l0.56 6.05c-1.27,0.45 -2.73,0.86 -4.37,1.23 -1.65,0.37 -3.1,0.56 -4.37,0.56 -2.39,0 -4.45,-0.35 -6.17,-1.06 -1.71,-0.71 -3.1,-1.66 -4.14,-2.86 -1.05,-1.2 -1.81,-2.6 -2.3,-4.2 -0.49,-1.61 -0.73,-3.35 -0.73,-5.21l0 -33.73 -11.2 0 0 -6.05 11.2 0 0 -14.91 6.72 0 0 14.91 14.8 0 0 6.05z"/>
  <path id="27" class="fil0" d="M2571.85 1720.23c0,0.97 0.04,2.15 0.12,3.53 0.07,1.38 0.13,2.78 0.16,4.2 0.04,1.42 0.1,2.75 0.17,3.98 0.08,1.23 0.11,2.18 0.11,2.86l-6.72 0c-0.07,-1.94 -0.13,-3.81 -0.17,-5.61 -0.04,-1.79 -0.13,-2.95 -0.28,-3.47l-0.33 0c-1.35,2.84 -3.59,5.29 -6.73,7.34 -3.14,2.05 -6.8,3.08 -10.98,3.08 -4.03,0 -7.34,-0.63 -9.92,-1.9 -2.58,-1.27 -4.59,-2.94 -6.05,-4.99 -1.46,-2.05 -2.45,-4.43 -2.97,-7.12 -0.52,-2.69 -0.78,-5.45 -0.78,-8.29l0 -30.81 6.72 0 0 30.48c0,2.09 0.19,4.12 0.56,6.1 0.37,1.98 1.03,3.76 1.96,5.33 0.94,1.56 2.24,2.82 3.92,3.75 1.69,0.93 3.87,1.4 6.56,1.4 2.47,0 4.8,-0.43 7,-1.29 2.21,-0.86 4.11,-2.16 5.72,-3.92 1.61,-1.76 2.87,-3.96 3.81,-6.61 0.93,-2.65 1.4,-5.77 1.4,-9.36l0 -25.88 6.72 0 0 37.2z"/>
  <path id="28" class="fil0" d="M2590.34 1697.59c0,-0.97 -0.04,-2.15 -0.11,-3.53 -0.07,-1.38 -0.13,-2.78 -0.17,-4.2 -0.04,-1.42 -0.09,-2.74 -0.17,-3.98 -0.07,-1.23 -0.11,-2.18 -0.11,-2.85l6.73 0c0.07,1.94 0.13,3.81 0.16,5.6 0.04,1.79 0.13,2.95 0.28,3.47 1.72,-3.06 3.93,-5.56 6.62,-7.51 2.69,-1.94 5.97,-2.91 9.86,-2.91 0.67,0 1.32,0.06 1.96,0.17 0.63,0.11 1.29,0.24 1.96,0.39l-0.78 6.61c-0.9,-0.3 -1.76,-0.45 -2.58,-0.45 -2.92,0 -5.44,0.47 -7.57,1.4 -2.13,0.94 -3.88,2.23 -5.26,3.87 -1.39,1.64 -2.41,3.57 -3.09,5.77 -0.67,2.21 -1,4.58 -1,7.12l0 28.24 -6.73 0 0 -37.21z"/>
  <path id="29" class="fil0" d="M2627.66 1697.59c0,-0.97 -0.04,-2.15 -0.11,-3.53 -0.08,-1.38 -0.13,-2.78 -0.17,-4.2 -0.04,-1.42 -0.09,-2.74 -0.17,-3.98 -0.07,-1.23 -0.11,-2.18 -0.11,-2.85l6.72 0c0.08,1.94 0.13,3.81 0.17,5.6 0.04,1.79 0.13,2.95 0.28,3.47l0.34 0c1.34,-2.84 3.58,-5.28 6.72,-7.34 3.14,-2.05 6.8,-3.08 10.98,-3.08 4.04,0 7.32,0.64 9.86,1.9 2.54,1.27 4.54,2.94 6,4.99 1.46,2.06 2.46,4.43 3.02,7.12 0.56,2.69 0.84,5.45 0.84,8.29l0 30.82 -6.72 0 0 -30.48c0,-2.1 -0.19,-4.13 -0.56,-6.11 -0.37,-1.98 -1.03,-3.76 -1.96,-5.32 -0.93,-1.57 -2.24,-2.82 -3.92,-3.76 -1.68,-0.93 -3.87,-1.4 -6.56,-1.4 -2.46,0 -4.8,0.43 -7,1.29 -2.21,0.86 -4.11,2.17 -5.72,3.92 -1.6,1.76 -2.87,3.96 -3.81,6.61 -0.93,2.66 -1.4,5.78 -1.4,9.36l0 25.89 -6.72 0 0 -37.21z"/>
  <path id="30" class="fil0" d="M2690.08 1721.57c1.42,2.77 3.51,4.88 6.27,6.33 2.77,1.46 5.68,2.19 8.74,2.19 1.42,0 2.84,-0.22 4.26,-0.67 1.42,-0.45 2.69,-1.09 3.81,-1.91 1.12,-0.82 2.04,-1.81 2.75,-2.97 0.71,-1.15 1.06,-2.48 1.06,-3.97 0,-2.4 -0.76,-4.19 -2.3,-5.38 -1.53,-1.2 -3.41,-2.13 -5.66,-2.81 -2.24,-0.67 -4.7,-1.25 -7.39,-1.73 -2.69,-0.49 -5.16,-1.23 -7.4,-2.24 -2.24,-1.01 -4.12,-2.41 -5.66,-4.21 -1.53,-1.79 -2.29,-4.33 -2.29,-7.62 0,-2.54 0.52,-4.74 1.56,-6.61 1.05,-1.86 2.41,-3.42 4.09,-4.65 1.69,-1.23 3.57,-2.15 5.66,-2.74 2.1,-0.6 4.22,-0.9 6.39,-0.9 4.26,0 7.94,0.78 11.04,2.35 3.1,1.57 5.51,4.04 7.23,7.4l-6.05 3.58c-1.27,-2.39 -2.86,-4.2 -4.77,-5.43 -1.9,-1.23 -4.38,-1.85 -7.45,-1.85 -1.19,0 -2.45,0.19 -3.75,0.56 -1.31,0.37 -2.49,0.9 -3.53,1.57 -1.05,0.67 -1.93,1.53 -2.64,2.58 -0.71,1.04 -1.06,2.24 -1.06,3.58 0,2.32 0.77,4.04 2.3,5.16 1.53,1.12 3.41,2 5.66,2.63 2.24,0.64 4.7,1.18 7.39,1.63 2.69,0.44 5.16,1.17 7.4,2.18 2.24,1.01 4.13,2.47 5.66,4.37 1.53,1.91 2.29,4.62 2.29,8.13 0,2.69 -0.5,5.02 -1.51,7 -1.01,1.98 -2.39,3.64 -4.14,4.99 -1.76,1.34 -3.76,2.35 -6,3.02 -2.24,0.68 -4.6,1.01 -7.06,1.01 -4.48,0 -8.57,-0.86 -12.27,-2.58 -3.7,-1.71 -6.56,-4.37 -8.57,-7.95l5.94 -4.04z"/>
  <polygon id="31" class="fil0" points="1135.12,1730.76 1166.16,1689.08 1136.69,1689.08 1136.69,1683.03 1175.47,1683.03 1175.47,1687.06 1144.54,1728.75 1176.81,1728.75 1176.81,1734.8 1135.12,1734.8 "/>
  <polygon id="32" class="fil0" points="2104,1730.76 2135.04,1689.08 2105.57,1689.08 2105.57,1683.03 2144.34,1683.03 2144.34,1687.06 2113.41,1728.75 2145.69,1728.75 2145.69,1734.8 2104,1734.8 "/>
  <line class="fil1 str0" x1="776.97" y1="1590.61" x2="2731.04" y2= "1590.61" />
  <line class="fil1 str0" x1="776.97" y1="1812.4" x2="2728.7" y2= "1812.4" />
  <path class="fil2" d="M2355.09 1375.51l0 -56.83 -98.96 0c-1.16,0 -2.78,0.11 -3.86,0.06 -3.24,-0.16 -1.7,-0.02 -2.54,-1.16l0.06 -92.35 145.02 -0.09 0.05 -56.86 -202.2 0 0.03 354.08 202.17 -0.04 -0.07 -57.75 -144.98 -0.28 0.03 -88.78 105.25 0z"/>
  <path class="fil2" d="M2506.74 1465.17l0.01 -239.32c45.74,0 81.09,-4.52 117.95,24.31 22.84,17.87 47.7,49.83 47.88,94.91 0.17,44.45 -24.99,78.53 -47.55,95.25 -38.22,28.32 -64.07,24.85 -118.29,24.85zm-56.82 57.19l106.66 -0.05c38.02,-0.78 72.77,-13.36 100.13,-33.36 7.1,-5.19 15.48,-12.04 21.67,-18.29 2.39,-2.41 4.2,-4.82 6.55,-7.14 3.32,-3.29 9.09,-10.75 11.93,-14.89 14.72,-21.46 26.01,-44.65 30.89,-76.33 4.96,-32.24 0.61,-65.12 -10.4,-92.71 -10.28,-25.76 -24.56,-44.97 -43.56,-63.71 -1.79,-1.77 -4.88,-4.28 -7.09,-6.07 -30.83,-24.94 -66.98,-39.93 -108.04,-41.53l-51.79 0.06 -57.03 -0.06 0.08 354.08z"/>
  <path class="fil3" d="M1896.94 1216.42c29.64,-0.17 81.91,-4.85 107.57,9.85 12.62,7.23 28.95,23.35 31.97,38.3l-139.54 0 0 48.16 139.4 0.02c-1.16,4.1 -5.52,12.06 -7.71,15.79 -4.76,8.15 -16.53,18.33 -24.68,22.84 -25.66,14.23 -77.42,9.65 -107,9.5l-0.21 43.44 139.37 118.82 82.51 -0.83 -139.27 -117.99c27.88,-0.87 69.95,-21.1 85.66,-42.17 24.01,-32.2 16.08,-49.21 27.27,-49.44l45.4 0.02 -0.07 -48.16c-9.97,0.06 -19.87,0.24 -29.82,0.49 -4.62,0.11 -10.33,0.46 -14.84,-0.11 -12.06,-1.51 -3.48,-16.51 -26.86,-48.52l71.59 0 -0.04 -48.15 -240.7 0 0 48.14z"/>
  <path class="fil2 str1" d="M1784.62 1427.41c-33.52,33.51 -85.52,47.04 -131.97,31.65 -43.98,-14.56 -84.6,-58 -86.39,-115.44 -1.7,-54.47 31.82,-101.02 80.5,-121.38 25.32,-10.59 59.01,-11.45 85.65,-2.09 14.02,4.93 29.95,13.97 40.46,23.01l6.5 5.75c4.38,3.89 8.92,9.94 12.16,13.1l11.61 -8.1c10.33,-7.2 23.17,-17.31 32.91,-23.66 -1.7,-4.43 -17.34,-19.83 -21.9,-24.45 -1.5,-1.52 -3.09,-2.47 -4.82,-4.09 -2.69,-2.52 -6.66,-5.55 -9.9,-7.92 -49.38,-36.17 -114.01,-45.57 -171.89,-23.59 -34.44,13.09 -60.62,34.95 -82.05,63.24 -20.4,26.93 -35.31,67.24 -34.12,111.28 1.23,45.26 17.84,80.36 38.95,107 17.86,22.53 47.94,48.04 85.48,59.82 40.77,12.78 85.98,11.46 124.53,-3.79 24.29,-9.61 48.73,-25.76 65.16,-43.95 1.61,-1.78 3.03,-2.96 4.58,-4.88 2.92,-3.61 10.23,-11.55 11.69,-15.26l-22.69 -15.15c-3.24,-2.23 -20.13,-14.19 -22.52,-14.86l-11.93 13.76z"/>
  <polygon class="fil2" points="1450.5,985.71 1450.59,1522.19 1319.84,1522.31 1319.76,1125.78 "/>
  <polygon class="fil3" points="778.13,953.02 922.88,953.02 1118.99,1158.47 1492.52,756.92 1394.47,756.91 1469.18,677.54 1646.61,677.54 1646.61,854.97 1567.23,929.68 1567.24,831.27 1118.98,1312.55 "/>
  <polygon class="fil2" points="778.13,981.04 778.28,1522.21 907.99,1522.32 908.87,1121.11 "/>
 </g>
</svg>
