<svg xmlns="http://www.w3.org/2000/svg" width="25.69" height="26.974" viewBox="0 0 25.69 26.974"><defs><style>.a{fill:#fff;}</style></defs><path class="a" d="M138.139,421.768a4.812,4.812,0,0,1-4.807-4.807.961.961,0,0,1,1.923,0,2.884,2.884,0,1,0,5.768,0,.961.961,0,0,1,1.923,0A4.812,4.812,0,0,1,138.139,421.768Zm0,0" transform="translate(-125.294 -394.794)"/><path class="a" d="M23.442,87.129H2.248A2.249,2.249,0,0,1,.786,83.172a8.612,8.612,0,0,0,3.067-6.594V72.995a8.991,8.991,0,1,1,17.983,0v3.583a8.61,8.61,0,0,0,3.055,6.585,2.248,2.248,0,0,1-1.449,3.967Zm-10.6-21.2A7.073,7.073,0,0,0,5.78,72.995v3.583a10.532,10.532,0,0,1-3.738,8.056.32.32,0,0,0-.116.247.325.325,0,0,0,.321.321H23.442a.325.325,0,0,0,.321-.321.317.317,0,0,0-.113-.244,10.536,10.536,0,0,1-3.74-8.059V72.995A7.073,7.073,0,0,0,12.845,65.928Zm0,0" transform="translate(0 -64)"/></svg>