<svg xmlns="http://www.w3.org/2000/svg" width="20" height="20" viewBox="0 0 20 20"><defs><style>.a{fill:#fff;}</style></defs><path class="a" d="M19.688,8.749c-.161-.1-1.422-.857-1.924-1.086l-.621-1.5c.185-.5.537-1.887.592-2.128a.667.667,0,0,0-.179-.62l-.971-.971a.667.667,0,0,0-.62-.179c-.183.042-1.61.4-2.128.592l-1.5-.621c-.219-.48-.953-1.711-1.086-1.924A.667.667,0,0,0,10.687,0H9.313a.667.667,0,0,0-.565.312c-.1.161-.857,1.422-1.086,1.924l-1.5.621c-.5-.185-1.887-.537-2.128-.592a.667.667,0,0,0-.62.179l-.971.971a.667.667,0,0,0-.179.62c.042.183.4,1.61.592,2.128l-.621,1.5c-.48.219-1.711.953-1.924,1.086A.667.667,0,0,0,0,9.314v1.374a.667.667,0,0,0,.312.565c.161.1,1.422.857,1.924,1.086l.621,1.5c-.185.5-.537,1.887-.592,2.128a.667.667,0,0,0,.179.62l.971.971a.667.667,0,0,0,.62.179c.183-.042,1.61-.4,2.128-.592l1.5.621c.219.48.953,1.711,1.086,1.924A.667.667,0,0,0,9.313,20h1.374a.667.667,0,0,0,.565-.312c.1-.161.857-1.422,1.086-1.924l1.5-.621c.5.185,1.887.537,2.128.592a.666.666,0,0,0,.62-.179l.971-.971a.667.667,0,0,0,.179-.62c-.042-.183-.4-1.61-.592-2.128l.621-1.5c.48-.219,1.711-.953,1.924-1.086A.667.667,0,0,0,20,10.688V9.314A.667.667,0,0,0,19.688,8.749Zm-1.021,1.563h0c-.475.282-1.265.737-1.513.84a.667.667,0,0,0-.508.4L15.8,13.6a.667.667,0,0,0,.074.644c.1.248.34,1.129.476,1.664l-.44.44c-.535-.136-1.415-.374-1.664-.476A.667.667,0,0,0,13.6,15.8l-2.047.848a.667.667,0,0,0-.4.508c-.1.248-.557,1.038-.84,1.513H9.689c-.282-.475-.737-1.265-.84-1.513a.667.667,0,0,0-.4-.508L6.4,15.8a.667.667,0,0,0-.644.074c-.248.1-1.128.34-1.664.476l-.44-.44c.136-.535.374-1.415.476-1.664A.667.667,0,0,0,4.2,13.6l-.848-2.047a.667.667,0,0,0-.508-.4c-.248-.1-1.038-.557-1.513-.84V9.69c.475-.282,1.265-.737,1.513-.84a.667.667,0,0,0,.508-.4L4.2,6.4a.667.667,0,0,0-.074-.644c-.1-.248-.34-1.129-.476-1.664l.44-.44c.535.136,1.415.374,1.664.476A.667.667,0,0,0,6.4,4.2l2.047-.848a.667.667,0,0,0,.4-.508c.1-.248.557-1.038.84-1.513h.622c.282.475.737,1.265.84,1.513a.667.667,0,0,0,.4.508L13.6,4.2a.667.667,0,0,0,.644-.074c.248-.1,1.128-.34,1.664-.476l.44.44c-.136.535-.374,1.415-.476,1.664A.667.667,0,0,0,15.8,6.4l.848,2.047a.667.667,0,0,0,.508.4c.248.1,1.038.557,1.513.84v.622Z" transform="translate(0 -0.001)"/><g transform="translate(5.635 5.635)"><path class="a" d="M148.76,144.4a4.365,4.365,0,1,0,4.365,4.365A4.37,4.37,0,0,0,148.76,144.4Zm0,7.4a3.03,3.03,0,1,1,3.03-3.03A3.034,3.034,0,0,1,148.76,151.792Z" transform="translate(-144.395 -144.396)"/></g></svg>