<svg xmlns="http://www.w3.org/2000/svg" width="20" height="19.989" viewBox="0 0 20 19.989"><defs><style>.a{fill:#fff;}</style></defs><path class="a" d="M15.772,5.778A5.778,5.778,0,1,0,6.725,10.54,10.01,10.01,0,0,0,0,19.989H1.561a8.442,8.442,0,0,1,8.433-8.433,5.785,5.785,0,0,0,5.778-5.778ZM9.994,9.994A4.216,4.216,0,1,1,14.21,5.778,4.221,4.221,0,0,1,9.994,9.994ZM20,14.367l-3.675,3.675-1.1-1.1,1.829-1.829H15.695A3.4,3.4,0,0,0,12.3,18.5v1.487H10.736V18.5a4.964,4.964,0,0,1,4.958-4.954h1.276L15.22,11.8l1.1-1.1Zm0,0" transform="translate(0)"/></svg>